<?xml version="1.0" encoding="UTF-8"?>
<!-- Generated by SVGo -->
<svg width="1563" height="845" xmlns="http://www.w3.org/2000/svg" xmlns:xlink="http://www.w3.org/1999/xlink">
<rect x="0" y="0" width="1563" height="845" style="fill:#CCFFCC"/>
<polygon points="1555,555 1552,557 1554,556 1559,556 1561,560 1556,561 1552,564 1556,567 1561,567 1561,564 1557,567 1553,564 1558,562 1562,560 1561,555" style="fill:#6b6b6b;stroke:black"/>
<polygon points="1556,422 1553,420 1554,425 1558,427 1556,423" style="fill:#6b6b6b;stroke:black"/>
<polygon points="1544,430 1542,425 1539,420 1539,418 1534,418" style="fill:#6b6b6b;stroke:black"/>
<polygon points="1536,555 1533,558 1536,561 1541,561 1542,565 1537,566 1536,567 1541,567 1544,563 1544,558 1545,555" style="fill:#6b6b6b;stroke:black"/>
<polygon points="1520,390 1516,393 1516,398 1519,402 1524,402 1527,404 1524,407 1528,406 1528,391 1527,390" style="fill:#6b6b6b;stroke:black"/>
<polygon points="1528,298 1527,293 1524,293 1521,294 1518,291 1516,301 1516,303 1517,302 1518,297 1520,296 1523,299 1526,296 1527,301 1527,303 1528,301" style="fill:#6b6b6b;stroke:black"/>
<polygon points="1522,522 1520,525 1524,524" style="fill:#6b6b6b;stroke:black"/>
<polygon points="1507,522 1509,526 1509,531 1505,533 1501,529 1501,522 1500,523 1500,533 1501,534 1506,534 1510,532 1510,527 1511,522" style="fill:#6b6b6b;stroke:black"/>
<polygon points="1509,333 1509,323 1506,319 1501,319" style="fill:#6b6b6b;stroke:black"/>
<polygon points="1506,621 1508,625 1508,630 1504,632 1500,628 1500,621 1499,622 1499,637 1500,638 1500,633 1505,633 1509,630 1509,625 1511,621" style="fill:#6b6b6b;stroke:black"/>
<polygon points="1507,423 1503,425 1503,430 1507,434" style="fill:#6b6b6b;stroke:black"/>
<polygon points="1506,390 1508,394 1508,399 1504,401 1500,397 1500,390 1499,391 1499,401 1500,402 1505,402 1509,400 1509,395 1510,390" style="fill:#6b6b6b;stroke:black"/>
<polygon points="1510,293 1505,291 1500,292 1498,297 1500,302 1505,303 1510,301 1511,296" style="fill:#6b6b6b;stroke:black"/>
<polygon points="1503,554 1500,552 1501,557 1505,559 1503,555" style="fill:#6b6b6b;stroke:black"/>
<polygon points="1490,555 1486,557 1486,562 1490,566" style="fill:#6b6b6b;stroke:black"/>
<polygon points="1493,524 1488,522 1483,523 1481,528 1483,533 1488,534 1493,532 1494,527" style="fill:#6b6b6b;stroke:black"/>
<polygon points="1484,423 1481,426 1484,429 1489,429 1490,433 1485,434 1484,435 1489,435 1492,431 1492,426 1493,423" style="fill:#6b6b6b;stroke:black"/>
<polygon points="1484,390 1481,393 1484,396 1489,396 1490,400 1485,401 1484,402 1489,402 1492,398 1492,393 1493,390" style="fill:#6b6b6b;stroke:black"/>
<polygon points="1489,324 1491,328 1491,333 1487,335 1483,331 1483,324 1482,325 1482,335 1483,336 1488,336 1492,334 1492,329 1493,324" style="fill:#6b6b6b;stroke:black"/>
<polygon points="1490,291 1486,293 1486,298 1490,302" style="fill:#6b6b6b;stroke:black"/>
<polygon points="1485,621 1482,623 1484,622 1489,622 1491,626 1486,627 1482,630 1486,633 1491,633 1491,630 1487,633 1483,630 1488,628 1492,626 1491,621" style="fill:#6b6b6b;stroke:black"/>
<polygon points="1466,627 1466,623 1471,622 1476,623 1471,621 1466,621 1463,625 1463,630 1467,633 1472,633 1475,629 1473,627" style="fill:#6b6b6b;stroke:black"/>
<polygon points="1466,561 1466,557 1471,556 1476,557 1471,555 1466,555 1463,559 1463,564 1467,567 1472,567 1475,563 1473,561" style="fill:#6b6b6b;stroke:black"/>
<polygon points="1466,429 1466,425 1471,424 1476,425 1471,423 1466,423 1463,427 1463,432 1467,435 1472,435 1475,431 1473,429" style="fill:#6b6b6b;stroke:black"/>
<polygon points="1471,291 1473,295 1473,300 1469,302 1465,298 1465,291 1464,292 1464,307 1465,308 1465,303 1470,303 1474,300 1474,295 1476,291" style="fill:#6b6b6b;stroke:black"/>
<polygon points="1458,326 1458,331 1456,335 1453,331 1453,324 1452,328 1452,333 1448,334 1447,329 1448,324 1443,324 1440,326 1440,331 1438,335 1435,331 1435,324 1434,328 1434,333 1430,334 1429,329 1430,324 1427,324 1428,329 1428,336 1438,336 1441,333 1441,328" style="fill:#6b6b6b;stroke:black"/>
<polygon points="1455,621 1451,623 1451,628 1455,632" style="fill:#6b6b6b;stroke:black"/>
<polygon points="1454,555 1456,559 1456,564 1452,566 1448,562 1448,555 1447,556 1447,571 1448,572 1448,567 1453,567 1457,564 1457,559 1459,555" style="fill:#6b6b6b;stroke:black"/>
<polygon points="1454,489 1456,493 1456,498 1452,500 1448,496 1448,489 1447,490 1447,500 1448,501 1453,501 1457,499 1457,494 1458,489" style="fill:#6b6b6b;stroke:black"/>
<polygon points="1454,291 1449,292 1449,302 1448,303 1449,308 1450,304 1455,303" style="fill:#6b6b6b;stroke:black"/>
<polygon points="1450,390 1447,392 1449,391 1454,391 1456,395 1451,396 1447,399 1451,402 1456,402 1456,399 1452,402 1448,399 1453,397 1457,395 1456,390" style="fill:#6b6b6b;stroke:black"/>
<polygon points="1432,522 1429,525 1432,528 1437,528 1438,532 1433,533 1432,534 1437,534 1440,530 1440,525 1441,522" style="fill:#6b6b6b;stroke:black"/>
<polygon points="1432,423 1428,426 1428,431 1431,435 1436,435 1439,437 1436,440 1440,439 1440,424 1439,423" style="fill:#6b6b6b;stroke:black"/>
<polygon points="1439,633 1434,633 1436,638" style="fill:#6b6b6b;stroke:black"/>
<polygon points="1436,555 1431,556 1431,566 1430,567 1431,572 1432,568 1437,567" style="fill:#6b6b6b;stroke:black"/>
<polygon points="1440,491 1435,489 1430,490 1428,495 1430,500 1435,501 1440,499 1441,494" style="fill:#6b6b6b;stroke:black"/>
<polygon points="1423,524 1423,529 1421,533 1418,529 1418,522 1417,526 1417,531 1413,532 1412,527 1413,522 1410,522 1411,527 1411,534 1421,534 1424,531 1424,526 1426,522" style="fill:#6b6b6b;stroke:black"/>
<polygon points="1414,621 1411,624 1414,627 1419,627 1420,631 1415,632 1414,633 1419,633 1422,629 1422,624 1423,621" style="fill:#6b6b6b;stroke:black"/>
<polygon points="1423,557 1418,555 1413,556 1411,561 1413,566 1418,567 1423,565 1424,560" style="fill:#6b6b6b;stroke:black"/>
<polygon points="1414,429 1414,425 1419,424 1424,425 1419,423 1414,423 1411,427 1411,432 1415,435 1420,435 1423,431 1421,429" style="fill:#6b6b6b;stroke:black"/>
<polygon points="1420,390 1416,392 1416,397 1420,401" style="fill:#6b6b6b;stroke:black"/>
<polygon points="1423,293 1418,291 1413,292 1411,297 1413,302 1418,303 1423,301 1424,296" style="fill:#6b6b6b;stroke:black"/>
<polygon points="1366,423 1361,424 1361,434 1360,435 1361,440 1362,436 1367,435" style="fill:#6b6b6b;stroke:black"/>
<polygon points="1370,326 1365,324 1360,325 1358,330 1360,335 1365,336 1370,334 1371,329" style="fill:#6b6b6b;stroke:black"/>
<polygon points="1366,291 1361,292 1361,302 1360,303 1361,308 1362,304 1367,303" style="fill:#6b6b6b;stroke:black"/>
<polygon points="1352,397 1350,392 1347,387 1347,385 1342,385" style="fill:#6b6b6b;stroke:black"/>
<polygon points="1353,557 1348,555 1343,556 1341,561 1343,566 1348,567 1353,565 1354,560" style="fill:#6b6b6b;stroke:black"/>
<polygon points="1349,522 1351,526 1351,531 1347,533 1343,529 1343,522 1342,523 1342,533 1343,534 1348,534 1352,532 1352,527 1353,522" style="fill:#6b6b6b;stroke:black"/>
<polygon points="1350,324 1346,326 1346,331 1350,335" style="fill:#6b6b6b;stroke:black"/>
<polygon points="1350,291 1345,291 1341,295 1342,300 1346,303 1351,303 1353,300 1348,303 1343,300 1342,295 1347,291 1352,293 1352,292" style="fill:#6b6b6b;stroke:black"/>
<polygon points="1345,489 1342,491 1344,490 1349,490 1351,494 1346,495 1342,498 1346,501 1351,501 1351,498 1347,501 1343,498 1348,496 1352,494 1351,489" style="fill:#6b6b6b;stroke:black"/>
<polygon points="1347,588 1345,591 1349,590" style="fill:#6b6b6b;stroke:black"/>
<polygon points="1326,621 1324,626 1324,633 1325,629 1325,624 1330,622 1333,626 1333,631 1331,633 1334,631 1334,626 1335,621" style="fill:#6b6b6b;stroke:black"/>
<polygon points="1331,555 1326,556 1326,566 1325,567 1326,572 1327,568 1332,567" style="fill:#6b6b6b;stroke:black"/>
<polygon points="1331,489 1333,493 1333,498 1329,500 1325,496 1325,489 1324,490 1324,500 1325,501 1330,501 1334,499 1334,494 1335,489" style="fill:#6b6b6b;stroke:black"/>
<polygon points="1326,429 1326,425 1331,424 1336,425 1331,423 1326,423 1323,427 1323,432 1327,435 1332,435 1335,431 1333,429" style="fill:#6b6b6b;stroke:black"/>
<polygon points="1336,327 1331,324 1326,325 1325,320 1326,319 1321,319 1324,322 1324,332 1322,336" style="fill:#6b6b6b;stroke:black"/>
<polygon points="1326,297 1326,293 1331,292 1336,293 1331,291 1326,291 1323,295 1323,300 1327,303 1332,303 1335,299 1333,297" style="fill:#6b6b6b;stroke:black"/>
<polygon points="1333,600 1331,599 1331,604 1334,605" style="fill:#6b6b6b;stroke:black"/>
<polygon points="1327,600 1325,599 1325,604 1328,605" style="fill:#6b6b6b;stroke:black"/>
<polygon points="1318,392 1318,397 1316,401 1313,397 1313,390 1312,394 1312,399 1308,400 1307,395 1308,390 1305,390 1306,395 1306,402 1316,402 1319,399 1319,394 1321,390" style="fill:#6b6b6b;stroke:black"/>
<polygon points="1319,624 1314,621 1309,622 1304,621 1307,624 1307,634 1305,638" style="fill:#6b6b6b;stroke:black"/>
<polygon points="1319,426 1314,423 1309,424 1304,423 1307,426 1307,436 1305,440" style="fill:#6b6b6b;stroke:black"/>
<polygon points="1319,294 1314,291 1309,292 1308,287 1309,286 1304,286 1307,289 1307,299 1305,303" style="fill:#6b6b6b;stroke:black"/>
<polygon points="1310,588 1307,590 1309,589 1314,589 1316,593 1311,594 1307,597 1311,600 1316,600 1316,597 1312,600 1308,597 1313,595 1317,593 1316,588" style="fill:#6b6b6b;stroke:black"/>
<polygon points="1296,555 1291,556 1291,566 1290,567 1291,572 1292,568 1297,567" style="fill:#6b6b6b;stroke:black"/>
<polygon points="1291,390 1289,395 1289,402 1290,398 1290,393 1295,391 1298,395 1298,400 1296,402 1299,400 1299,395 1300,390" style="fill:#6b6b6b;stroke:black"/>
<polygon points="1291,324 1288,327 1291,330 1296,330 1297,334 1292,335 1291,336 1296,336 1299,332 1299,327 1300,324" style="fill:#6b6b6b;stroke:black"/>
<polygon points="1296,298 1299,293 1298,291 1297,293 1292,294 1291,291 1288,292 1293,297 1289,302 1292,303 1295,299 1296,303 1301,303" style="fill:#6b6b6b;stroke:black"/>
<polygon points="1292,522 1289,524 1291,523 1296,523 1298,527 1293,528 1289,531 1293,534 1298,534 1298,531 1294,534 1290,531 1295,529 1299,527 1298,522" style="fill:#6b6b6b;stroke:black"/>
<polygon points="1280,588 1276,590 1276,595 1280,599" style="fill:#6b6b6b;stroke:black"/>
<polygon points="1274,555 1272,560 1272,567 1273,563 1273,558 1278,556 1281,560 1281,565 1279,567 1282,565 1282,560 1283,555" style="fill:#6b6b6b;stroke:black"/>
<polygon points="1274,522 1272,527 1272,534 1273,530 1273,525 1278,523 1281,527 1281,532 1279,534 1282,532 1282,527 1283,522" style="fill:#6b6b6b;stroke:black"/>
<polygon points="1279,489 1274,490 1274,500 1273,501 1274,506 1275,502 1280,501" style="fill:#6b6b6b;stroke:black"/>
<polygon points="1283,425 1278,423 1273,424 1271,429 1273,434 1278,435 1283,433 1284,428" style="fill:#6b6b6b;stroke:black"/>
<polygon points="1274,297 1274,293 1279,292 1284,293 1279,291 1274,291 1271,295 1271,300 1275,303 1280,303 1283,299 1281,297" style="fill:#6b6b6b;stroke:black"/>
<polygon points="1276,620 1273,618 1274,623 1278,625 1276,621" style="fill:#6b6b6b;stroke:black"/>
<polygon points="1266,624 1261,621 1256,622 1251,621 1254,624 1254,634 1252,638" style="fill:#6b6b6b;stroke:black"/>
<polygon points="1256,588 1254,593 1254,600 1255,596 1255,591 1260,589 1263,593 1263,598 1261,600 1264,598 1264,593 1265,588" style="fill:#6b6b6b;stroke:black"/>
<polygon points="1266,558 1261,555 1256,556 1255,551 1256,550 1251,550 1254,553 1254,563 1252,567" style="fill:#6b6b6b;stroke:black"/>
<polygon points="1265,524 1260,522 1255,523 1253,528 1255,533 1260,534 1265,532 1266,527" style="fill:#6b6b6b;stroke:black"/>
<polygon points="1261,423 1256,424 1256,434 1255,435 1256,440 1257,436 1262,435" style="fill:#6b6b6b;stroke:black"/>
<polygon points="1262,390 1257,390 1253,394 1254,399 1258,402 1263,402 1265,399 1260,402 1255,399 1254,394 1259,390 1264,392 1264,391" style="fill:#6b6b6b;stroke:black"/>
<polygon points="1261,324 1263,328 1263,333 1259,335 1255,331 1255,324 1254,325 1254,335 1255,336 1260,336 1264,334 1264,329 1265,324" style="fill:#6b6b6b;stroke:black"/>
<polygon points="1260,501 1258,498 1258,503 1259,506 1261,503" style="fill:#6b6b6b;stroke:black"/>
<polygon points="1240,291 1236,294 1236,299 1239,303 1244,303 1247,305 1244,308 1248,307 1248,292 1247,291" style="fill:#6b6b6b;stroke:black"/>
<polygon points="1248,623 1243,621 1238,622 1236,627 1238,632 1243,633 1248,631 1249,626" style="fill:#6b6b6b;stroke:black"/>
<polygon points="1244,588 1239,589 1239,599 1238,600 1239,605 1240,601 1245,600" style="fill:#6b6b6b;stroke:black"/>
<polygon points="1244,555 1246,559 1246,564 1242,566 1238,562 1238,555 1237,556 1237,566 1238,567 1243,567 1247,565 1247,560 1248,555" style="fill:#6b6b6b;stroke:black"/>
<polygon points="1239,528 1239,524 1244,523 1249,524 1244,522 1239,522 1236,526 1236,531 1240,534 1245,534 1248,530 1246,528" style="fill:#6b6b6b;stroke:black"/>
<polygon points="1239,330 1239,326 1244,325 1249,326 1244,324 1239,324 1236,328 1236,333 1240,336 1245,336 1248,332 1246,330" style="fill:#6b6b6b;stroke:black"/>
<polygon points="1227,522 1229,526 1229,531 1225,533 1221,529 1221,522 1220,523 1220,533 1221,534 1226,534 1230,532 1230,527 1231,522" style="fill:#6b6b6b;stroke:black"/>
<polygon points="1221,588 1218,591 1221,594 1226,594 1227,598 1222,599 1221,600 1226,600 1229,596 1229,591 1230,588" style="fill:#6b6b6b;stroke:black"/>
<polygon points="1230,491 1225,489 1220,490 1218,495 1220,500 1225,501 1230,499 1231,494" style="fill:#6b6b6b;stroke:black"/>
<polygon points="1221,396 1221,392 1226,391 1231,392 1226,390 1221,390 1218,394 1218,399 1222,402 1227,402 1230,398 1228,396" style="fill:#6b6b6b;stroke:black"/>
<polygon points="1226,324 1221,325 1221,335 1220,336 1221,341 1222,337 1227,336" style="fill:#6b6b6b;stroke:black"/>
<polygon points="1226,291 1228,295 1228,300 1224,302 1220,298 1220,291 1219,292 1219,302 1220,303 1225,303 1229,301 1229,296 1230,291" style="fill:#6b6b6b;stroke:black"/>
<polygon points="1227,628 1227,618 1222,616 1219,616" style="fill:#6b6b6b;stroke:black"/>
<polygon points="1223,422 1220,420 1221,425 1225,427 1223,423" style="fill:#6b6b6b;stroke:black"/>
<polygon points="1214,493 1210,489 1202,489 1203,494 1203,504 1204,505 1209,505 1214,502 1215,497" style="fill:#6b6b6b;stroke:black"/>
<polygon points="1204,594 1204,590 1209,589 1214,590 1209,588 1204,588 1201,592 1201,597 1205,600 1210,600 1213,596 1211,594" style="fill:#6b6b6b;stroke:black"/>
<polygon points="1204,522 1201,525 1204,528 1209,528 1210,532 1205,533 1204,534 1209,534 1212,530 1212,525 1213,522" style="fill:#6b6b6b;stroke:black"/>
<polygon points="1195,628 1194,623 1191,623 1188,624 1185,621 1183,631 1183,633 1184,632 1185,627 1187,626 1190,629 1193,626 1194,631 1194,633 1195,631" style="fill:#6b6b6b;stroke:black"/>
<polygon points="1193,522 1189,524 1189,529 1193,533" style="fill:#6b6b6b;stroke:black"/>
<polygon points="1194,333 1194,323 1191,319 1186,319" style="fill:#6b6b6b;stroke:black"/>
<polygon points="1194,600 1189,600 1191,605" style="fill:#6b6b6b;stroke:black"/>
<polygon points="1186,561 1186,557 1191,556 1196,557 1191,555 1186,555 1183,559 1183,564 1187,567 1192,567 1195,563 1193,561" style="fill:#6b6b6b;stroke:black"/>
<polygon points="1191,390 1186,391 1186,401 1185,402 1186,407 1187,403 1192,402" style="fill:#6b6b6b;stroke:black"/>
<polygon points="1169,627 1169,623 1174,622 1179,623 1174,621 1169,621 1166,625 1166,630 1170,633 1175,633 1178,629 1176,627" style="fill:#6b6b6b;stroke:black"/>
<polygon points="1174,555 1176,559 1176,564 1172,566 1168,562 1168,555 1167,556 1167,571 1168,572 1168,567 1173,567 1177,564 1177,559 1179,555" style="fill:#6b6b6b;stroke:black"/>
<polygon points="1174,522 1169,523 1169,533 1168,534 1169,539 1170,535 1175,534" style="fill:#6b6b6b;stroke:black"/>
<polygon points="1169,429 1169,425 1174,424 1179,425 1174,423 1169,423 1166,427 1166,432 1170,435 1175,435 1178,431 1176,429" style="fill:#6b6b6b;stroke:black"/>
<polygon points="1170,291 1167,293 1169,292 1174,292 1176,296 1171,297 1167,300 1171,303 1176,303 1176,300 1172,303 1168,300 1173,298 1177,296 1176,291" style="fill:#6b6b6b;stroke:black"/>
<polygon points="1176,600 1174,599 1174,604 1177,605" style="fill:#6b6b6b;stroke:black"/>
<polygon points="1172,489 1170,492 1174,491" style="fill:#6b6b6b;stroke:black"/>
<polygon points="1170,600 1168,599 1168,604 1171,605" style="fill:#6b6b6b;stroke:black"/>
<polygon points="1157,529 1160,524 1159,522 1158,524 1153,525 1152,522 1149,523 1154,528 1150,533 1153,534 1156,530 1157,534 1162,534" style="fill:#6b6b6b;stroke:black"/>
<polygon points="1159,397 1157,392 1154,387 1154,385 1149,385" style="fill:#6b6b6b;stroke:black"/>
<polygon points="1156,621 1158,625 1158,630 1154,632 1150,628 1150,621 1149,622 1149,632 1150,633 1155,633 1159,631 1159,626 1160,621" style="fill:#6b6b6b;stroke:black"/>
<polygon points="1156,555 1151,556 1151,566 1150,567 1151,572 1152,568 1157,567" style="fill:#6b6b6b;stroke:black"/>
<polygon points="1156,423 1151,424 1151,434 1150,435 1151,440 1152,436 1157,435" style="fill:#6b6b6b;stroke:black"/>
<polygon points="1152,489 1149,491 1151,490 1156,490 1158,494 1153,495 1149,498 1153,501 1158,501 1158,498 1154,501 1150,498 1155,496 1159,494 1158,489" style="fill:#6b6b6b;stroke:black"/>
<polygon points="1154,258 1152,261 1156,260" style="fill:#6b6b6b;stroke:black"/>
<polygon points="1143,260 1143,265 1141,269 1138,265 1138,258 1137,262 1137,267 1133,268 1132,263 1133,258 1130,258 1131,263 1131,270 1141,270 1144,267 1144,262 1146,258" style="fill:#6b6b6b;stroke:black"/>
<polygon points="1143,595 1142,590 1139,590 1136,591 1133,588 1131,598 1131,600 1132,599 1133,594 1135,593 1138,596 1141,593 1142,598 1142,600 1143,598" style="fill:#6b6b6b;stroke:black"/>
<polygon points="1134,528 1134,524 1139,523 1144,524 1139,522 1134,522 1131,526 1131,531 1135,534 1140,534 1143,530 1141,528" style="fill:#6b6b6b;stroke:black"/>
<polygon points="1139,489 1134,490 1134,500 1133,501 1134,506 1135,502 1140,501" style="fill:#6b6b6b;stroke:black"/>
<polygon points="1134,390 1131,393 1134,396 1139,396 1140,400 1135,401 1134,402 1139,402 1142,398 1142,393 1143,390" style="fill:#6b6b6b;stroke:black"/>
<polygon points="1143,293 1138,291 1133,292 1131,297 1133,302 1138,303 1143,301 1144,296" style="fill:#6b6b6b;stroke:black"/>
<polygon points="1135,423 1132,425 1134,424 1139,424 1141,428 1136,429 1132,432 1136,435 1141,435 1141,432 1137,435 1133,432 1138,430 1142,428 1141,423" style="fill:#6b6b6b;stroke:black"/>
<polygon points="1124,430 1122,425 1119,420 1119,418 1114,418" style="fill:#6b6b6b;stroke:black"/>
<polygon points="1125,397 1124,392 1121,392 1118,393 1115,390 1113,400 1113,402 1114,401 1115,396 1117,395 1120,398 1123,395 1124,400 1124,402 1125,400" style="fill:#6b6b6b;stroke:black"/>
<polygon points="1116,621 1113,624 1116,627 1121,627 1122,631 1117,632 1116,633 1121,633 1124,629 1124,624 1125,621" style="fill:#6b6b6b;stroke:black"/>
<polygon points="1116,594 1116,590 1121,589 1126,590 1121,588 1116,588 1113,592 1113,597 1117,600 1122,600 1125,596 1123,594" style="fill:#6b6b6b;stroke:black"/>
<polygon points="1116,561 1116,557 1121,556 1126,557 1121,555 1116,555 1113,559 1113,564 1117,567 1122,567 1125,563 1123,561" style="fill:#6b6b6b;stroke:black"/>
<polygon points="1116,489 1113,492 1116,495 1121,495 1122,499 1117,500 1116,501 1121,501 1124,497 1124,492 1125,489" style="fill:#6b6b6b;stroke:black"/>
<polygon points="1125,326 1120,324 1115,325 1113,330 1115,335 1120,336 1125,334 1126,329" style="fill:#6b6b6b;stroke:black"/>
<polygon points="1125,293 1120,291 1115,292 1113,297 1115,302 1120,303 1125,301 1126,296" style="fill:#6b6b6b;stroke:black"/>
<polygon points="1104,291 1099,292 1099,302 1098,303 1099,308 1100,304 1105,303" style="fill:#6b6b6b;stroke:black"/>
<polygon points="1104,258 1106,262 1106,267 1102,269 1098,265 1098,258 1097,259 1097,274 1098,275 1098,270 1103,270 1107,267 1107,262 1109,258" style="fill:#6b6b6b;stroke:black"/>
<polygon points="1100,423 1097,425 1099,424 1104,424 1106,428 1101,429 1097,432 1101,435 1106,435 1106,432 1102,435 1098,432 1103,430 1107,428 1106,423" style="fill:#6b6b6b;stroke:black"/>
<polygon points="1090,623 1085,621 1080,622 1078,627 1080,632 1085,633 1090,631 1091,626" style="fill:#6b6b6b;stroke:black"/>
<polygon points="1090,557 1085,555 1080,556 1078,561 1080,566 1085,567 1090,565 1091,560" style="fill:#6b6b6b;stroke:black"/>
<polygon points="1086,522 1081,523 1081,533 1080,534 1081,539 1082,535 1087,534" style="fill:#6b6b6b;stroke:black"/>
<polygon points="1087,489 1083,491 1083,496 1087,500" style="fill:#6b6b6b;stroke:black"/>
<polygon points="1086,258 1081,259 1081,269 1080,270 1081,275 1082,271 1087,270" style="fill:#6b6b6b;stroke:black"/>
<polygon points="1065,621 1061,624 1061,629 1064,633 1069,633 1072,635 1069,638 1073,637 1073,622 1072,621" style="fill:#6b6b6b;stroke:black"/>
<polygon points="1072,597 1072,587 1069,583 1064,583" style="fill:#6b6b6b;stroke:black"/>
<polygon points="1072,432 1072,422 1069,418 1064,418" style="fill:#6b6b6b;stroke:black"/>
<polygon points="1073,397 1072,392 1069,392 1066,393 1063,390 1061,400 1061,402 1062,401 1063,396 1065,395 1068,398 1071,395 1072,400 1072,402 1073,400" style="fill:#6b6b6b;stroke:black"/>
<polygon points="1070,555 1065,555 1061,559 1062,564 1066,567 1071,567 1073,564 1068,567 1063,564 1062,559 1067,555 1072,557 1072,556" style="fill:#6b6b6b;stroke:black"/>
<polygon points="1073,491 1068,489 1063,490 1061,495 1063,500 1068,501 1073,499 1074,494" style="fill:#6b6b6b;stroke:black"/>
<polygon points="1074,327 1069,324 1064,325 1063,320 1064,319 1059,319 1062,322 1062,332 1060,336" style="fill:#6b6b6b;stroke:black"/>
<polygon points="1064,297 1064,293 1069,292 1074,293 1069,291 1064,291 1061,295 1061,300 1065,303 1070,303 1073,299 1071,297" style="fill:#6b6b6b;stroke:black"/>
<polygon points="1055,529 1054,524 1051,524 1048,525 1045,522 1043,532 1043,534 1044,533 1045,528 1047,527 1050,530 1053,527 1054,532 1054,534 1055,532" style="fill:#6b6b6b;stroke:black"/>
<polygon points="1054,267 1054,257 1051,253 1046,253" style="fill:#6b6b6b;stroke:black"/>
<polygon points="1051,588 1053,592 1053,597 1049,599 1045,595 1045,588 1044,589 1044,599 1045,600 1050,600 1054,598 1054,593 1055,588" style="fill:#6b6b6b;stroke:black"/>
<polygon points="1046,561 1046,557 1051,556 1056,557 1051,555 1046,555 1043,559 1043,564 1047,567 1052,567 1055,563 1053,561" style="fill:#6b6b6b;stroke:black"/>
<polygon points="1054,501 1049,501 1051,506" style="fill:#6b6b6b;stroke:black"/>
<polygon points="1051,423 1053,427 1053,432 1049,434 1045,430 1045,423 1044,424 1044,434 1045,435 1050,435 1054,433 1054,428 1055,423" style="fill:#6b6b6b;stroke:black"/>
<polygon points="1055,392 1050,390 1045,391 1043,396 1045,401 1050,402 1055,400 1056,395" style="fill:#6b6b6b;stroke:black"/>
<polygon points="1051,291 1053,295 1053,300 1049,302 1045,298 1045,291 1044,292 1044,307 1045,308 1045,303 1050,303 1054,300 1054,295 1056,291" style="fill:#6b6b6b;stroke:black"/>
<polygon points="1038,623 1033,621 1028,622 1026,627 1028,632 1033,633 1038,631 1039,626" style="fill:#6b6b6b;stroke:black"/>
<polygon points="1017,621 1016,621 1015,626 1015,636 1020,636 1021,632" style="fill:#6b6b6b;stroke:black"/>
<polygon points="1016,522 1011,523 1011,533 1010,534 1011,539 1012,535 1017,534" style="fill:#6b6b6b;stroke:black"/>
<polygon points="1016,489 1011,490 1011,500 1010,501 1011,506 1012,502 1017,501" style="fill:#6b6b6b;stroke:black"/>
<polygon points="1016,423 1011,424 1011,434 1010,435 1011,440 1012,436 1017,435" style="fill:#6b6b6b;stroke:black"/>
<polygon points="1016,390 1018,394 1018,399 1014,401 1010,397 1010,390 1009,391 1009,406 1010,407 1010,402 1015,402 1019,399 1019,394 1021,390" style="fill:#6b6b6b;stroke:black"/>
<polygon points="1016,324 1018,328 1018,333 1014,335 1010,331 1010,324 1009,325 1009,340 1010,341 1010,336 1015,336 1019,333 1019,328 1021,324" style="fill:#6b6b6b;stroke:black"/>
<polygon points="995,588 991,591 991,596 994,600 999,600 1002,602 999,605 1003,604 1003,589 1002,588" style="fill:#6b6b6b;stroke:black"/>
<polygon points="995,291 991,294 991,299 994,303 999,303 1002,305 999,308 1003,307 1003,292 1002,291" style="fill:#6b6b6b;stroke:black"/>
<polygon points="1003,557 998,555 993,556 991,561 993,566 998,567 1003,565 1004,560" style="fill:#6b6b6b;stroke:black"/>
<polygon points="994,522 992,527 992,534 993,530 993,525 998,523 1001,527 1001,532 999,534 1002,532 1002,527 1003,522" style="fill:#6b6b6b;stroke:black"/>
<polygon points="994,489 992,494 992,501 993,497 993,492 998,490 1001,494 1001,499 999,501 1002,499 1002,494 1003,489" style="fill:#6b6b6b;stroke:black"/>
<polygon points="986,525 981,522 976,523 975,518 976,517 971,517 974,520 974,530 972,534" style="fill:#6b6b6b;stroke:black"/>
<polygon points="986,492 981,489 976,490 975,485 976,484 971,484 974,487 974,497 972,501" style="fill:#6b6b6b;stroke:black"/>
<polygon points="982,423 978,425 978,430 982,434" style="fill:#6b6b6b;stroke:black"/>
<polygon points="976,258 974,263 974,270 975,266 975,261 980,259 983,263 983,268 981,270 984,268 984,263 985,258" style="fill:#6b6b6b;stroke:black"/>
<polygon points="979,621 977,624 981,623" style="fill:#6b6b6b;stroke:black"/>
<polygon points="964,522 959,523 959,533 958,534 959,539 960,535 965,534" style="fill:#6b6b6b;stroke:black"/>
<polygon points="964,489 966,493 966,498 962,500 958,496 958,489 957,490 957,500 958,501 963,501 967,499 967,494 968,489" style="fill:#6b6b6b;stroke:black"/>
<polygon points="959,429 959,425 964,424 969,425 964,423 959,423 956,427 956,432 960,435 965,435 968,431 966,429" style="fill:#6b6b6b;stroke:black"/>
<polygon points="968,392 963,390 958,391 956,396 958,401 963,402 968,400 969,395" style="fill:#6b6b6b;stroke:black"/>
<polygon points="959,330 959,326 964,325 969,326 964,324 959,324 956,328 956,333 960,336 965,336 968,332 966,330" style="fill:#6b6b6b;stroke:black"/>
<polygon points="950,557 950,562 948,566 945,562 945,555 944,559 944,564 940,565 939,560 940,555 937,555 938,560 938,567 948,567 951,564 951,559 953,555" style="fill:#6b6b6b;stroke:black"/>
<polygon points="949,595 947,590 944,585 944,583 939,583" style="fill:#6b6b6b;stroke:black"/>
<polygon points="942,258 938,261 938,266 941,270 946,270 949,272 946,275 950,274 950,259 949,258" style="fill:#6b6b6b;stroke:black"/>
<polygon points="941,522 939,527 939,534 940,530 940,525 945,523 948,527 948,532 946,534 949,532 949,527 950,522" style="fill:#6b6b6b;stroke:black"/>
<polygon points="951,426 946,423 941,424 940,419 941,418 936,418 939,421 939,431 937,435" style="fill:#6b6b6b;stroke:black"/>
<polygon points="946,390 941,391 941,401 940,402 941,407 942,403 947,402" style="fill:#6b6b6b;stroke:black"/>
<polygon points="941,291 939,296 939,303 940,299 940,294 945,292 948,296 948,301 946,303 949,301 949,296 950,291" style="fill:#6b6b6b;stroke:black"/>
<polygon points="924,627 924,623 929,622 934,623 929,621 924,621 921,625 921,630 925,633 930,633 933,629 931,627" style="fill:#6b6b6b;stroke:black"/>
<polygon points="934,591 929,588 924,589 919,588 922,591 922,601 920,605" style="fill:#6b6b6b;stroke:black"/>
<polygon points="924,555 921,558 924,561 929,561 930,565 925,566 924,567 929,567 932,563 932,558 933,555" style="fill:#6b6b6b;stroke:black"/>
<polygon points="933,524 928,522 923,523 921,528 923,533 928,534 933,532 934,527" style="fill:#6b6b6b;stroke:black"/>
<polygon points="933,425 928,423 923,424 921,429 923,434 928,435 933,433 934,428" style="fill:#6b6b6b;stroke:black"/>
<polygon points="934,294 929,291 924,292 919,291 922,294 922,304 920,308" style="fill:#6b6b6b;stroke:black"/>
<polygon points="924,264 924,260 929,259 934,260 929,258 924,258 921,262 921,267 925,270 930,270 933,266 931,264" style="fill:#6b6b6b;stroke:black"/>
<polygon points="915,628 914,623 911,623 908,624 905,621 903,631 903,633 904,632 905,627 907,626 910,629 913,626 914,631 914,633 915,631" style="fill:#6b6b6b;stroke:black"/>
<polygon points="914,496 912,491 909,486 909,484 904,484" style="fill:#6b6b6b;stroke:black"/>
<polygon points="912,555 908,557 908,562 912,566" style="fill:#6b6b6b;stroke:black"/>
<polygon points="906,396 906,392 911,391 916,392 911,390 906,390 903,394 903,399 907,402 912,402 915,398 913,396" style="fill:#6b6b6b;stroke:black"/>
<polygon points="911,258 913,262 913,267 909,269 905,265 905,258 904,259 904,274 905,275 905,270 910,270 914,267 914,262 916,258" style="fill:#6b6b6b;stroke:black"/>
<polygon points="897,564 897,554 894,550 889,550" style="fill:#6b6b6b;stroke:black"/>
<polygon points="887,324 890,326 892,329 895,324" style="fill:#6b6b6b;stroke:black"/>
<polygon points="895,522 891,524 891,529 895,533" style="fill:#6b6b6b;stroke:black"/>
<polygon points="895,489 891,491 891,496 895,500" style="fill:#6b6b6b;stroke:black"/>
<polygon points="894,423 896,427 896,432 892,434 888,430 888,423 887,424 887,434 888,435 893,435 897,433 897,428 898,423" style="fill:#6b6b6b;stroke:black"/>
<polygon points="894,390 889,391 889,401 888,402 889,407 890,403 895,402" style="fill:#6b6b6b;stroke:black"/>
<polygon points="898,293 893,291 888,292 886,297 888,302 893,303 898,301 899,296" style="fill:#6b6b6b;stroke:black"/>
<polygon points="890,588 887,590 889,589 894,589 896,593 891,594 887,597 891,600 896,600 896,597 892,600 888,597 893,595 897,593 896,588" style="fill:#6b6b6b;stroke:black"/>
<polygon points="890,258 887,260 889,259 894,259 896,263 891,264 887,267 891,270 896,270 896,267 892,270 888,267 893,265 897,263 896,258" style="fill:#6b6b6b;stroke:black"/>
<polygon points="880,590 880,595 878,599 875,595 875,588 874,592 874,597 870,598 869,593 870,588 867,588 868,593 868,600 878,600 881,597 881,592 883,588" style="fill:#6b6b6b;stroke:black"/>
<polygon points="879,630 879,620 876,616 871,616" style="fill:#6b6b6b;stroke:black"/>
<polygon points="880,557 875,555 870,556 868,561 870,566 875,567 880,565 881,560" style="fill:#6b6b6b;stroke:black"/>
<polygon points="871,528 871,524 876,523 881,524 876,522 871,522 868,526 868,531 872,534 877,534 880,530 878,528" style="fill:#6b6b6b;stroke:black"/>
<polygon points="871,489 868,492 871,495 876,495 877,499 872,500 871,501 876,501 879,497 879,492 880,489" style="fill:#6b6b6b;stroke:black"/>
<polygon points="871,429 871,425 876,424 881,425 876,423 871,423 868,427 868,432 872,435 877,435 880,431 878,429" style="fill:#6b6b6b;stroke:black"/>
<polygon points="871,390 868,393 871,396 876,396 877,400 872,401 871,402 876,402 879,398 879,393 880,390" style="fill:#6b6b6b;stroke:black"/>
<polygon points="859,621 861,625 861,630 857,632 853,628 853,621 852,622 852,632 853,633 858,633 862,631 862,626 863,621" style="fill:#6b6b6b;stroke:black"/>
<polygon points="860,555 856,557 856,562 860,566" style="fill:#6b6b6b;stroke:black"/>
<polygon points="859,522 854,523 854,533 853,534 854,539 855,535 860,534" style="fill:#6b6b6b;stroke:black"/>
<polygon points="859,489 861,493 861,498 857,500 853,496 853,489 852,490 852,500 853,501 858,501 862,499 862,494 863,489" style="fill:#6b6b6b;stroke:black"/>
<polygon points="859,390 854,391 854,401 853,402 854,407 855,403 860,402" style="fill:#6b6b6b;stroke:black"/>
<polygon points="859,324 861,328 861,333 857,335 853,331 853,324 852,325 852,335 853,336 858,336 862,334 862,329 863,324" style="fill:#6b6b6b;stroke:black"/>
<polygon points="859,258 861,262 861,267 857,269 853,265 853,258 852,259 852,269 853,270 858,270 862,268 862,263 863,258" style="fill:#6b6b6b;stroke:black"/>
<polygon points="842,588 838,590 838,595 842,599" style="fill:#6b6b6b;stroke:black"/>
<polygon points="846,558 841,555 836,556 835,551 836,550 831,550 834,553 834,563 832,567" style="fill:#6b6b6b;stroke:black"/>
<polygon points="842,291 838,293 838,298 842,302" style="fill:#6b6b6b;stroke:black"/>
<polygon points="827,597 827,587 824,583 819,583" style="fill:#6b6b6b;stroke:black"/>
<polygon points="824,621 826,625 826,630 822,632 818,628 818,621 817,622 817,637 818,638 818,633 823,633 827,630 827,625 829,621" style="fill:#6b6b6b;stroke:black"/>
<polygon points="819,522 817,527 817,534 818,530 818,525 823,523 826,527 826,532 824,534 827,532 827,527 828,522" style="fill:#6b6b6b;stroke:black"/>
<polygon points="829,492 824,489 819,490 814,489 817,492 817,502 815,506" style="fill:#6b6b6b;stroke:black"/>
<polygon points="819,291 817,296 817,303 818,299 818,294 823,292 826,296 826,301 824,303 827,301 827,296 828,291" style="fill:#6b6b6b;stroke:black"/>
<polygon points="827,270 822,270 824,275" style="fill:#6b6b6b;stroke:black"/>
<polygon points="820,390 817,392 819,391 824,391 826,395 821,396 817,399 821,402 826,402 826,399 822,402 818,399 823,397 827,395 826,390" style="fill:#6b6b6b;stroke:black"/>
<polygon points="809,562 807,557 804,552 804,550 799,550" style="fill:#6b6b6b;stroke:black"/>
<polygon points="806,621 801,622 801,632 800,633 801,638 802,634 807,633" style="fill:#6b6b6b;stroke:black"/>
<polygon points="810,590 805,588 800,589 798,594 800,599 805,600 810,598 811,593" style="fill:#6b6b6b;stroke:black"/>
<polygon points="801,396 801,392 806,391 811,392 806,390 801,390 798,394 798,399 802,402 807,402 810,398 808,396" style="fill:#6b6b6b;stroke:black"/>
<polygon points="810,326 805,324 800,325 798,330 800,335 805,336 810,334 811,329" style="fill:#6b6b6b;stroke:black"/>
<polygon points="810,293 805,291 800,292 798,297 800,302 805,303 810,301 811,296" style="fill:#6b6b6b;stroke:black"/>
<polygon points="803,422 800,420 801,425 805,427 803,423" style="fill:#6b6b6b;stroke:black"/>
<polygon points="790,588 786,590 786,595 790,599" style="fill:#6b6b6b;stroke:black"/>
<polygon points="790,555 786,557 786,562 790,566" style="fill:#6b6b6b;stroke:black"/>
<polygon points="790,522 785,522 781,526 782,531 786,534 791,534 793,531 788,534 783,531 782,526 787,522 792,524 792,523" style="fill:#6b6b6b;stroke:black"/>
<polygon points="790,489 786,491 786,496 790,500" style="fill:#6b6b6b;stroke:black"/>
<polygon points="784,429 784,425 789,424 794,425 789,423 784,423 781,427 781,432 785,435 790,435 793,431 791,429" style="fill:#6b6b6b;stroke:black"/>
<polygon points="789,390 791,394 791,399 787,401 783,397 783,390 782,391 782,406 783,407 783,402 788,402 792,399 792,394 794,390" style="fill:#6b6b6b;stroke:black"/>
<polygon points="789,324 784,325 784,335 783,336 784,341 785,337 790,336" style="fill:#6b6b6b;stroke:black"/>
<polygon points="789,291 784,292 784,302 783,303 784,308 785,304 790,303" style="fill:#6b6b6b;stroke:black"/>
<polygon points="784,264 784,260 789,259 794,260 789,258 784,258 781,262 781,267 785,270 790,270 793,266 791,264" style="fill:#6b6b6b;stroke:black"/>
<polygon points="774,266 772,261 768,258 764,268 762,270 767,270 766,266 768,261 771,262 773,267 771,270 776,270" style="fill:#6b6b6b;stroke:black"/>
<polygon points="766,627 766,623 771,622 776,623 771,621 766,621 763,625 763,630 767,633 772,633 775,629 773,627" style="fill:#6b6b6b;stroke:black"/>
<polygon points="776,591 771,588 766,589 765,584 766,583 761,583 764,586 764,596 762,600" style="fill:#6b6b6b;stroke:black"/>
<polygon points="766,561 766,557 771,556 776,557 771,555 766,555 763,559 763,564 767,567 772,567 775,563 773,561" style="fill:#6b6b6b;stroke:black"/>
<polygon points="775,491 770,489 765,490 763,495 765,500 770,501 775,499 776,494" style="fill:#6b6b6b;stroke:black"/>
<polygon points="772,423 768,425 768,430 772,434" style="fill:#6b6b6b;stroke:black"/>
<polygon points="766,297 766,293 771,292 776,293 771,291 766,291 763,295 763,300 767,303 772,303 775,299 773,297" style="fill:#6b6b6b;stroke:black"/>
<polygon points="757,563 755,558 751,555 747,565 745,567 750,567 749,563 751,558 754,559 756,564 754,567 759,567" style="fill:#6b6b6b;stroke:black"/>
<polygon points="750,291 746,294 746,299 749,303 754,303 757,305 754,308 758,307 758,292 757,291" style="fill:#6b6b6b;stroke:black"/>
<polygon points="754,621 756,625 756,630 752,632 748,628 748,621 747,622 747,632 748,633 753,633 757,631 757,626 758,621" style="fill:#6b6b6b;stroke:black"/>
<polygon points="754,522 749,523 749,533 748,534 749,539 750,535 755,534" style="fill:#6b6b6b;stroke:black"/>
<polygon points="749,423 746,426 749,429 754,429 755,433 750,434 749,435 754,435 757,431 757,426 758,423" style="fill:#6b6b6b;stroke:black"/>
<polygon points="754,390 749,391 749,401 748,402 749,407 750,403 755,402" style="fill:#6b6b6b;stroke:black"/>
<polygon points="749,330 749,326 754,325 759,326 754,324 749,324 746,328 746,333 750,336 755,336 758,332 756,330" style="fill:#6b6b6b;stroke:black"/>
<polygon points="753,270 751,267 751,272 752,275 754,272" style="fill:#6b6b6b;stroke:black"/>
<polygon points="732,588 728,591 728,596 731,600 736,600 739,602 736,605 740,604 740,589 739,588" style="fill:#6b6b6b;stroke:black"/>
<polygon points="740,430 739,425 736,425 733,426 730,423 728,433 728,435 729,434 730,429 732,428 735,431 738,428 739,433 739,435 740,433" style="fill:#6b6b6b;stroke:black"/>
<polygon points="740,623 735,621 730,622 728,627 730,632 735,633 740,631 741,626" style="fill:#6b6b6b;stroke:black"/>
<polygon points="731,561 731,557 736,556 741,557 736,555 731,555 728,559 728,564 732,567 737,567 740,563 738,561" style="fill:#6b6b6b;stroke:black"/>
<polygon points="737,489 733,491 733,496 737,500" style="fill:#6b6b6b;stroke:black"/>
<polygon points="737,324 732,324 728,328 729,333 733,336 738,336 740,333 735,336 730,333 729,328 734,324 739,326 739,325" style="fill:#6b6b6b;stroke:black"/>
<polygon points="731,258 729,263 729,270 730,266 730,261 735,259 738,263 738,268 736,270 739,268 739,263 740,258" style="fill:#6b6b6b;stroke:black"/>
<polygon points="735,534 733,531 733,536 734,539 736,536" style="fill:#6b6b6b;stroke:black"/>
<polygon points="735,402 733,399 733,404 734,407 736,404" style="fill:#6b6b6b;stroke:black"/>
<polygon points="719,522 721,526 721,531 717,533 713,529 713,522 712,523 712,533 713,534 718,534 722,532 722,527 723,522" style="fill:#6b6b6b;stroke:black"/>
<polygon points="714,489 711,492 714,495 719,495 720,499 715,500 714,501 719,501 722,497 722,492 723,489" style="fill:#6b6b6b;stroke:black"/>
<polygon points="719,423 714,424 714,434 713,435 714,440 715,436 720,435" style="fill:#6b6b6b;stroke:black"/>
<polygon points="719,390 721,394 721,399 717,401 713,397 713,390 712,391 712,401 713,402 718,402 722,400 722,395 723,390" style="fill:#6b6b6b;stroke:black"/>
<polygon points="719,324 721,328 721,333 717,335 713,331 713,324 712,325 712,335 713,336 718,336 722,334 722,329 723,324" style="fill:#6b6b6b;stroke:black"/>
<polygon points="492,621 487,621 483,625 484,630 488,633 493,633 495,630 490,633 485,630 484,625 489,621 494,623 494,622" style="fill:#6b6b6b;stroke:black"/>
<polygon points="491,555 486,556 486,566 485,567 486,572 487,568 492,567" style="fill:#6b6b6b;stroke:black"/>
<polygon points="486,423 483,426 486,429 491,429 492,433 487,434 486,435 491,435 494,431 494,426 495,423" style="fill:#6b6b6b;stroke:black"/>
<polygon points="491,390 493,394 493,399 489,401 485,397 485,390 484,391 484,406 485,407 485,402 490,402 494,399 494,394 496,390" style="fill:#6b6b6b;stroke:black"/>
<polygon points="488,521 485,519 486,524 490,526 488,522" style="fill:#6b6b6b;stroke:black"/>
<polygon points="469,621 466,624 469,627 474,627 475,631 470,632 469,633 474,633 477,629 477,624 478,621" style="fill:#6b6b6b;stroke:black"/>
<polygon points="474,588 476,592 476,597 472,599 468,595 468,588 467,589 467,599 468,600 473,600 477,598 477,593 478,588" style="fill:#6b6b6b;stroke:black"/>
<polygon points="474,522 476,526 476,531 472,533 468,529 468,522 467,523 467,533 468,534 473,534 477,532 477,527 478,522" style="fill:#6b6b6b;stroke:black"/>
<polygon points="474,489 476,493 476,498 472,500 468,496 468,489 467,490 467,500 468,501 473,501 477,499 477,494 478,489" style="fill:#6b6b6b;stroke:black"/>
<polygon points="469,462 469,458 474,457 479,458 474,456 469,456 466,460 466,465 470,468 475,468 478,464 476,462" style="fill:#6b6b6b;stroke:black"/>
<polygon points="474,390 469,391 469,401 468,402 469,407 470,403 475,402" style="fill:#6b6b6b;stroke:black"/>
<polygon points="469,363 469,359 474,358 479,359 474,357 469,357 466,361 466,366 470,369 475,369 478,365 476,363" style="fill:#6b6b6b;stroke:black"/>
<polygon points="478,326 473,324 468,325 466,330 468,335 473,336 478,334 479,329" style="fill:#6b6b6b;stroke:black"/>
<polygon points="469,264 469,260 474,259 479,260 474,258 469,258 466,262 466,267 470,270 475,270 478,266 476,264" style="fill:#6b6b6b;stroke:black"/>
<polygon points="460,529 459,524 456,524 453,525 450,522 448,532 448,534 449,533 450,528 452,527 455,530 458,527 459,532 459,534 460,532" style="fill:#6b6b6b;stroke:black"/>
<polygon points="459,464 457,459 453,456 449,466 447,468 452,468 451,464 453,459 456,460 458,465 456,468 461,468" style="fill:#6b6b6b;stroke:black"/>
<polygon points="451,627 451,623 456,622 461,623 456,621 451,621 448,625 448,630 452,633 457,633 460,629 458,627" style="fill:#6b6b6b;stroke:black"/>
<polygon points="451,588 448,591 451,594 456,594 457,598 452,599 451,600 456,600 459,596 459,591 460,588" style="fill:#6b6b6b;stroke:black"/>
<polygon points="456,555 451,556 451,566 450,567 451,572 452,568 457,567" style="fill:#6b6b6b;stroke:black"/>
<polygon points="456,423 458,427 458,432 454,434 450,430 450,423 449,424 449,434 450,435 455,435 459,433 459,428 460,423" style="fill:#6b6b6b;stroke:black"/>
<polygon points="456,357 458,361 458,366 454,368 450,364 450,357 449,358 449,373 450,374 450,369 455,369 459,366 459,361 461,357" style="fill:#6b6b6b;stroke:black"/>
<polygon points="460,326 455,324 450,325 448,330 450,335 455,336 460,334 461,329" style="fill:#6b6b6b;stroke:black"/>
<polygon points="456,291 458,295 458,300 454,302 450,298 450,291 449,292 449,302 450,303 455,303 459,301 459,296 460,291" style="fill:#6b6b6b;stroke:black"/>
<polygon points="456,258 458,262 458,267 454,269 450,265 450,258 449,259 449,274 450,275 450,270 455,270 459,267 459,262 461,258" style="fill:#6b6b6b;stroke:black"/>
<polygon points="442,432 442,422 439,418 434,418" style="fill:#6b6b6b;stroke:black"/>
<polygon points="443,397 442,392 439,392 436,393 433,390 431,400 431,402 432,401 433,396 435,395 438,398 441,395 442,400 442,402 443,400" style="fill:#6b6b6b;stroke:black"/>
<polygon points="439,588 441,592 441,597 437,599 433,595 433,588 432,589 432,604 433,605 433,600 438,600 442,597 442,592 444,588" style="fill:#6b6b6b;stroke:black"/>
<polygon points="440,555 435,555 431,559 432,564 436,567 441,567 443,564 438,567 433,564 432,559 437,555 442,557 442,556" style="fill:#6b6b6b;stroke:black"/>
<polygon points="421,489 416,490 416,500 415,501 416,506 417,502 422,501" style="fill:#6b6b6b;stroke:black"/>
<polygon points="421,456 416,457 416,467 415,468 416,473 417,469 422,468" style="fill:#6b6b6b;stroke:black"/>
<polygon points="397,621 400,623 402,626 405,621" style="fill:#6b6b6b;stroke:black"/>
<polygon points="397,522 400,524 402,527 405,522" style="fill:#6b6b6b;stroke:black"/>
<polygon points="407,397 405,392 402,387 402,385 397,385" style="fill:#6b6b6b;stroke:black"/>
<polygon points="400,357 396,360 396,365 399,369 404,369 407,371 404,374 408,373 408,358 407,357" style="fill:#6b6b6b;stroke:black"/>
<polygon points="409,558 404,555 399,556 398,551 399,550 394,550 397,553 397,563 395,567" style="fill:#6b6b6b;stroke:black"/>
<polygon points="405,456 400,456 396,460 397,465 401,468 406,468 408,465 403,468 398,465 397,460 402,456 407,458 407,457" style="fill:#6b6b6b;stroke:black"/>
<polygon points="399,330 399,326 404,325 409,326 404,324 399,324 396,328 396,333 400,336 405,336 408,332 406,330" style="fill:#6b6b6b;stroke:black"/>
<polygon points="399,297 399,293 404,292 409,293 404,291 399,291 396,295 396,300 400,303 405,303 408,299 406,297" style="fill:#6b6b6b;stroke:black"/>
<polygon points="407,270 402,270 404,275" style="fill:#6b6b6b;stroke:black"/>
<polygon points="400,489 397,491 399,490 404,490 406,494 401,495 397,498 401,501 406,501 406,498 402,501 398,498 403,496 407,494 406,489" style="fill:#6b6b6b;stroke:black"/>
<polygon points="400,423 397,425 399,424 404,424 406,428 401,429 397,432 401,435 406,435 406,432 402,435 398,432 403,430 407,428 406,423" style="fill:#6b6b6b;stroke:black"/>
<polygon points="381,621 378,624 381,627 386,627 387,631 382,632 381,633 386,633 389,629 389,624 390,621" style="fill:#6b6b6b;stroke:black"/>
<polygon points="387,588 383,590 383,595 387,599" style="fill:#6b6b6b;stroke:black"/>
<polygon points="386,562 389,557 388,555 387,557 382,558 381,555 378,556 383,561 379,566 382,567 385,563 386,567 391,567" style="fill:#6b6b6b;stroke:black"/>
<polygon points="386,522 388,526 388,531 384,533 380,529 380,522 379,523 379,533 380,534 385,534 389,532 389,527 390,522" style="fill:#6b6b6b;stroke:black"/>
<polygon points="381,456 378,459 381,462 386,462 387,466 382,467 381,468 386,468 389,464 389,459 390,456" style="fill:#6b6b6b;stroke:black"/>
<polygon points="381,429 381,425 386,424 391,425 386,423 381,423 378,427 378,432 382,435 387,435 390,431 388,429" style="fill:#6b6b6b;stroke:black"/>
<polygon points="390,260 385,258 380,259 378,264 380,269 385,270 390,268 391,263" style="fill:#6b6b6b;stroke:black"/>
<polygon points="382,324 379,326 381,325 386,325 388,329 383,330 379,333 383,336 388,336 388,333 384,336 380,333 385,331 389,329 388,324" style="fill:#6b6b6b;stroke:black"/>
<polygon points="365,489 361,492 361,497 364,501 369,501 372,503 369,506 373,505 373,490 372,489" style="fill:#6b6b6b;stroke:black"/>
<polygon points="374,427 370,423 362,423 363,428 363,438 364,439 369,439 374,436 375,431" style="fill:#6b6b6b;stroke:black"/>
<polygon points="373,336 373,331 372,326 367,324 362,326 362,336 360,340 365,340" style="fill:#6b6b6b;stroke:black"/>
<polygon points="364,594 364,590 369,589 374,590 369,588 364,588 361,592 361,597 365,600 370,600 373,596 371,594" style="fill:#6b6b6b;stroke:black"/>
<polygon points="373,555 363,555 362,556 362,566 361,571" style="fill:#6b6b6b;stroke:black"/>
<polygon points="364,522 362,527 362,534 363,530 363,525 368,523 371,527 371,532 369,534 372,532 372,527 373,522" style="fill:#6b6b6b;stroke:black"/>
<polygon points="370,456 366,458 366,463 370,467" style="fill:#6b6b6b;stroke:black"/>
<polygon points="334,456 329,457 329,467 328,468 329,473 330,469 335,468" style="fill:#6b6b6b;stroke:black"/>
<polygon points="301,529 299,524 296,519 296,517 291,517" style="fill:#6b6b6b;stroke:black"/>
<polygon points="299,588 295,590 295,595 299,599" style="fill:#6b6b6b;stroke:black"/>
<polygon points="299,357 295,359 295,364 299,368" style="fill:#6b6b6b;stroke:black"/>
<polygon points="298,291 293,292 293,302 292,303 293,308 294,304 299,303" style="fill:#6b6b6b;stroke:black"/>
<polygon points="294,258 291,260 293,259 298,259 300,263 295,264 291,267 295,270 300,270 300,267 296,270 292,267 297,265 301,263 300,258" style="fill:#6b6b6b;stroke:black"/>
<polyline points="1080,545 1043,534 1016,522 958,501 783,407 754,390 80,1" style="stroke:#000080;stroke-width:3;fill:none"/>
<polyline points="1080,545 1043,534 1016,522 958,501 783,407 754,390 80,1" style="stroke:#000080;stroke-width:3;fill:none"/>
<polyline points="1080,545 1043,534 1016,522 958,501 783,407 754,390 80,1" style="stroke:#000080;stroke-width:3;fill:none"/>
<polyline points="1080,545 1043,534 1016,522 958,501 783,407 754,390 80,1" style="stroke:#000080;stroke-width:3;fill:none"/>
<polyline points="1080,545 1043,534 1016,522 958,501 783,407 754,390 80,1" style="stroke:#000080;stroke-width:3;fill:none"/>
<circle cx="1080" cy="545" r="10" style="stroke:black;fill:red"/>
<rect x="2" y="-10" width="78" height="865" style="stroke:black;fill:#B3B3B3;stroke-width:4"/>
<line x1="40" y1="0" x2="40" y2="845" style="stroke:black;stroke-dasharray:25,25;stroke-width:3"/>
</svg>