<?xml version="1.0" encoding="UTF-8"?>
<!-- Generated by SVGo -->
<svg width="1563" height="593" xmlns="http://www.w3.org/2000/svg" xmlns:xlink="http://www.w3.org/1999/xlink">
<rect x="0" y="0" width="1563" height="593" style="fill:#CCFFCC"/>
<polygon points="1555,303 1552,305 1554,304 1559,304 1561,308 1556,309 1552,312 1556,315 1561,315 1561,312 1557,315 1553,312 1558,310 1562,308 1561,303" style="fill:#6b6b6b;stroke:black"/>
<polygon points="1556,170 1553,168 1554,173 1558,175 1556,171" style="fill:#6b6b6b;stroke:black"/>
<polygon points="1544,178 1542,173 1539,168 1539,166 1534,166" style="fill:#6b6b6b;stroke:black"/>
<polygon points="1536,303 1533,306 1536,309 1541,309 1542,313 1537,314 1536,315 1541,315 1544,311 1544,306 1545,303" style="fill:#6b6b6b;stroke:black"/>
<polygon points="1520,138 1516,141 1516,146 1519,150 1524,150 1527,152 1524,155 1528,154 1528,139 1527,138" style="fill:#6b6b6b;stroke:black"/>
<polygon points="1528,46 1527,41 1524,41 1521,42 1518,39 1516,49 1516,51 1517,50 1518,45 1520,44 1523,47 1526,44 1527,49 1527,51 1528,49" style="fill:#6b6b6b;stroke:black"/>
<polygon points="1522,270 1520,273 1524,272" style="fill:#6b6b6b;stroke:black"/>
<polygon points="1507,270 1509,274 1509,279 1505,281 1501,277 1501,270 1500,271 1500,281 1501,282 1506,282 1510,280 1510,275 1511,270" style="fill:#6b6b6b;stroke:black"/>
<polygon points="1509,81 1509,71 1506,67 1501,67" style="fill:#6b6b6b;stroke:black"/>
<polygon points="1506,369 1508,373 1508,378 1504,380 1500,376 1500,369 1499,370 1499,385 1500,386 1500,381 1505,381 1509,378 1509,373 1511,369" style="fill:#6b6b6b;stroke:black"/>
<polygon points="1507,171 1503,173 1503,178 1507,182" style="fill:#6b6b6b;stroke:black"/>
<polygon points="1506,138 1508,142 1508,147 1504,149 1500,145 1500,138 1499,139 1499,149 1500,150 1505,150 1509,148 1509,143 1510,138" style="fill:#6b6b6b;stroke:black"/>
<polygon points="1510,41 1505,39 1500,40 1498,45 1500,50 1505,51 1510,49 1511,44" style="fill:#6b6b6b;stroke:black"/>
<polygon points="1503,302 1500,300 1501,305 1505,307 1503,303" style="fill:#6b6b6b;stroke:black"/>
<polygon points="1490,303 1486,305 1486,310 1490,314" style="fill:#6b6b6b;stroke:black"/>
<polygon points="1493,272 1488,270 1483,271 1481,276 1483,281 1488,282 1493,280 1494,275" style="fill:#6b6b6b;stroke:black"/>
<polygon points="1484,171 1481,174 1484,177 1489,177 1490,181 1485,182 1484,183 1489,183 1492,179 1492,174 1493,171" style="fill:#6b6b6b;stroke:black"/>
<polygon points="1484,138 1481,141 1484,144 1489,144 1490,148 1485,149 1484,150 1489,150 1492,146 1492,141 1493,138" style="fill:#6b6b6b;stroke:black"/>
<polygon points="1489,72 1491,76 1491,81 1487,83 1483,79 1483,72 1482,73 1482,83 1483,84 1488,84 1492,82 1492,77 1493,72" style="fill:#6b6b6b;stroke:black"/>
<polygon points="1490,39 1486,41 1486,46 1490,50" style="fill:#6b6b6b;stroke:black"/>
<polygon points="1485,369 1482,371 1484,370 1489,370 1491,374 1486,375 1482,378 1486,381 1491,381 1491,378 1487,381 1483,378 1488,376 1492,374 1491,369" style="fill:#6b6b6b;stroke:black"/>
<polygon points="1466,375 1466,371 1471,370 1476,371 1471,369 1466,369 1463,373 1463,378 1467,381 1472,381 1475,377 1473,375" style="fill:#6b6b6b;stroke:black"/>
<polygon points="1466,309 1466,305 1471,304 1476,305 1471,303 1466,303 1463,307 1463,312 1467,315 1472,315 1475,311 1473,309" style="fill:#6b6b6b;stroke:black"/>
<polygon points="1466,177 1466,173 1471,172 1476,173 1471,171 1466,171 1463,175 1463,180 1467,183 1472,183 1475,179 1473,177" style="fill:#6b6b6b;stroke:black"/>
<polygon points="1471,39 1473,43 1473,48 1469,50 1465,46 1465,39 1464,40 1464,55 1465,56 1465,51 1470,51 1474,48 1474,43 1476,39" style="fill:#6b6b6b;stroke:black"/>
<polygon points="1458,74 1458,79 1456,83 1453,79 1453,72 1452,76 1452,81 1448,82 1447,77 1448,72 1443,72 1440,74 1440,79 1438,83 1435,79 1435,72 1434,76 1434,81 1430,82 1429,77 1430,72 1427,72 1428,77 1428,84 1438,84 1441,81 1441,76" style="fill:#6b6b6b;stroke:black"/>
<polygon points="1455,369 1451,371 1451,376 1455,380" style="fill:#6b6b6b;stroke:black"/>
<polygon points="1454,303 1456,307 1456,312 1452,314 1448,310 1448,303 1447,304 1447,319 1448,320 1448,315 1453,315 1457,312 1457,307 1459,303" style="fill:#6b6b6b;stroke:black"/>
<polygon points="1454,270 1449,271 1449,281 1448,282 1449,287 1450,283 1455,282" style="fill:#6b6b6b;stroke:black"/>
<polygon points="1454,237 1456,241 1456,246 1452,248 1448,244 1448,237 1447,238 1447,248 1448,249 1453,249 1457,247 1457,242 1458,237" style="fill:#6b6b6b;stroke:black"/>
<polygon points="1454,39 1449,40 1449,50 1448,51 1449,56 1450,52 1455,51" style="fill:#6b6b6b;stroke:black"/>
<polygon points="1450,138 1447,140 1449,139 1454,139 1456,143 1451,144 1447,147 1451,150 1456,150 1456,147 1452,150 1448,147 1453,145 1457,143 1456,138" style="fill:#6b6b6b;stroke:black"/>
<polygon points="1432,270 1429,273 1432,276 1437,276 1438,280 1433,281 1432,282 1437,282 1440,278 1440,273 1441,270" style="fill:#6b6b6b;stroke:black"/>
<polygon points="1432,171 1428,174 1428,179 1431,183 1436,183 1439,185 1436,188 1440,187 1440,172 1439,171" style="fill:#6b6b6b;stroke:black"/>
<polygon points="1439,381 1434,381 1436,386" style="fill:#6b6b6b;stroke:black"/>
<polygon points="1436,303 1431,304 1431,314 1430,315 1431,320 1432,316 1437,315" style="fill:#6b6b6b;stroke:black"/>
<polygon points="1440,239 1435,237 1430,238 1428,243 1430,248 1435,249 1440,247 1441,242" style="fill:#6b6b6b;stroke:black"/>
<polygon points="1436,138 1431,139 1431,149 1430,150 1431,155 1432,151 1437,150" style="fill:#6b6b6b;stroke:black"/>
<polygon points="1423,272 1423,277 1421,281 1418,277 1418,270 1417,274 1417,279 1413,280 1412,275 1413,270 1410,270 1411,275 1411,282 1421,282 1424,279 1424,274 1426,270" style="fill:#6b6b6b;stroke:black"/>
<polygon points="1414,369 1411,372 1414,375 1419,375 1420,379 1415,380 1414,381 1419,381 1422,377 1422,372 1423,369" style="fill:#6b6b6b;stroke:black"/>
<polygon points="1423,305 1418,303 1413,304 1411,309 1413,314 1418,315 1423,313 1424,308" style="fill:#6b6b6b;stroke:black"/>
<polygon points="1414,177 1414,173 1419,172 1424,173 1419,171 1414,171 1411,175 1411,180 1415,183 1420,183 1423,179 1421,177" style="fill:#6b6b6b;stroke:black"/>
<polygon points="1420,138 1416,140 1416,145 1420,149" style="fill:#6b6b6b;stroke:black"/>
<polygon points="1414,72 1411,75 1414,78 1419,78 1420,82 1415,83 1414,84 1419,84 1422,80 1422,75 1423,72" style="fill:#6b6b6b;stroke:black"/>
<polygon points="1423,41 1418,39 1413,40 1411,45 1413,50 1418,51 1423,49 1424,44" style="fill:#6b6b6b;stroke:black"/>
<polygon points="1403,270 1399,272 1399,277 1403,281" style="fill:#6b6b6b;stroke:black"/>
<polygon points="1401,303 1403,307 1403,312 1399,314 1395,310 1395,303 1394,304 1394,314 1395,315 1400,315 1404,313 1404,308 1405,303" style="fill:#6b6b6b;stroke:black"/>
<polygon points="1401,237 1396,238 1396,248 1395,249 1396,254 1397,250 1402,249" style="fill:#6b6b6b;stroke:black"/>
<polygon points="1396,138 1393,141 1396,144 1401,144 1402,148 1397,149 1396,150 1401,150 1404,146 1404,141 1405,138" style="fill:#6b6b6b;stroke:black"/>
<polygon points="1402,72 1398,74 1398,79 1402,83" style="fill:#6b6b6b;stroke:black"/>
<polygon points="1401,39 1396,40 1396,50 1395,51 1396,56 1397,52 1402,51" style="fill:#6b6b6b;stroke:black"/>
<polygon points="1380,369 1376,372 1376,377 1379,381 1384,381 1387,383 1384,386 1388,385 1388,370 1387,369" style="fill:#6b6b6b;stroke:black"/>
<polygon points="1387,81 1387,71 1384,67 1379,67" style="fill:#6b6b6b;stroke:black"/>
<polygon points="1379,303 1376,306 1379,309 1384,309 1385,313 1380,314 1379,315 1384,315 1387,311 1387,306 1388,303" style="fill:#6b6b6b;stroke:black"/>
<polygon points="1388,272 1383,270 1378,271 1376,276 1378,281 1383,282 1388,280 1389,275" style="fill:#6b6b6b;stroke:black"/>
<polygon points="1385,171 1381,173 1381,178 1385,182" style="fill:#6b6b6b;stroke:black"/>
<polygon points="1389,141 1384,138 1379,139 1378,134 1379,133 1374,133 1377,136 1377,146 1375,150" style="fill:#6b6b6b;stroke:black"/>
<polygon points="1380,237 1377,239 1379,238 1384,238 1386,242 1381,243 1377,246 1381,249 1386,249 1386,246 1382,249 1378,246 1383,244 1387,242 1386,237" style="fill:#6b6b6b;stroke:black"/>
<polygon points="1370,282 1365,282 1367,287" style="fill:#6b6b6b;stroke:black"/>
<polygon points="1366,171 1361,172 1361,182 1360,183 1361,188 1362,184 1367,183" style="fill:#6b6b6b;stroke:black"/>
<polygon points="1370,74 1365,72 1360,73 1358,78 1360,83 1365,84 1370,82 1371,77" style="fill:#6b6b6b;stroke:black"/>
<polygon points="1366,39 1361,40 1361,50 1360,51 1361,56 1362,52 1367,51" style="fill:#6b6b6b;stroke:black"/>
<polygon points="1352,145 1350,140 1347,135 1347,133 1342,133" style="fill:#6b6b6b;stroke:black"/>
<polygon points="1353,305 1348,303 1343,304 1341,309 1343,314 1348,315 1353,313 1354,308" style="fill:#6b6b6b;stroke:black"/>
<polygon points="1349,270 1351,274 1351,279 1347,281 1343,277 1343,270 1342,271 1342,281 1343,282 1348,282 1352,280 1352,275 1353,270" style="fill:#6b6b6b;stroke:black"/>
<polygon points="1350,72 1346,74 1346,79 1350,83" style="fill:#6b6b6b;stroke:black"/>
<polygon points="1350,39 1345,39 1341,43 1342,48 1346,51 1351,51 1353,48 1348,51 1343,48 1342,43 1347,39 1352,41 1352,40" style="fill:#6b6b6b;stroke:black"/>
<polygon points="1345,237 1342,239 1344,238 1349,238 1351,242 1346,243 1342,246 1346,249 1351,249 1351,246 1347,249 1343,246 1348,244 1352,242 1351,237" style="fill:#6b6b6b;stroke:black"/>
<polygon points="1347,336 1345,339 1349,338" style="fill:#6b6b6b;stroke:black"/>
<polygon points="1326,369 1324,374 1324,381 1325,377 1325,372 1330,370 1333,374 1333,379 1331,381 1334,379 1334,374 1335,369" style="fill:#6b6b6b;stroke:black"/>
<polygon points="1331,303 1326,304 1326,314 1325,315 1326,320 1327,316 1332,315" style="fill:#6b6b6b;stroke:black"/>
<polygon points="1331,237 1333,241 1333,246 1329,248 1325,244 1325,237 1324,238 1324,248 1325,249 1330,249 1334,247 1334,242 1335,237" style="fill:#6b6b6b;stroke:black"/>
<polygon points="1326,177 1326,173 1331,172 1336,173 1331,171 1326,171 1323,175 1323,180 1327,183 1332,183 1335,179 1333,177" style="fill:#6b6b6b;stroke:black"/>
<polygon points="1336,75 1331,72 1326,73 1325,68 1326,67 1321,67 1324,70 1324,80 1322,84" style="fill:#6b6b6b;stroke:black"/>
<polygon points="1326,45 1326,41 1331,40 1336,41 1331,39 1326,39 1323,43 1323,48 1327,51 1332,51 1335,47 1333,45" style="fill:#6b6b6b;stroke:black"/>
<polygon points="1327,138 1324,140 1326,139 1331,139 1333,143 1328,144 1324,147 1328,150 1333,150 1333,147 1329,150 1325,147 1330,145 1334,143 1333,138" style="fill:#6b6b6b;stroke:black"/>
<polygon points="1333,348 1331,347 1331,352 1334,353" style="fill:#6b6b6b;stroke:black"/>
<polygon points="1327,348 1325,347 1325,352 1328,353" style="fill:#6b6b6b;stroke:black"/>
<polygon points="1318,140 1318,145 1316,149 1313,145 1313,138 1312,142 1312,147 1308,148 1307,143 1308,138 1305,138 1306,143 1306,150 1316,150 1319,147 1319,142 1321,138" style="fill:#6b6b6b;stroke:black"/>
<polygon points="1319,372 1314,369 1309,370 1304,369 1307,372 1307,382 1305,386" style="fill:#6b6b6b;stroke:black"/>
<polygon points="1319,174 1314,171 1309,172 1304,171 1307,174 1307,184 1305,188" style="fill:#6b6b6b;stroke:black"/>
<polygon points="1319,42 1314,39 1309,40 1308,35 1309,34 1304,34 1307,37 1307,47 1305,51" style="fill:#6b6b6b;stroke:black"/>
<polygon points="1310,336 1307,338 1309,337 1314,337 1316,341 1311,342 1307,345 1311,348 1316,348 1316,345 1312,348 1308,345 1313,343 1317,341 1316,336" style="fill:#6b6b6b;stroke:black"/>
<polygon points="1291,342 1291,338 1296,337 1301,338 1296,336 1291,336 1288,340 1288,345 1292,348 1297,348 1300,344 1298,342" style="fill:#6b6b6b;stroke:black"/>
<polygon points="1296,303 1291,304 1291,314 1290,315 1291,320 1292,316 1297,315" style="fill:#6b6b6b;stroke:black"/>
<polygon points="1291,138 1289,143 1289,150 1290,146 1290,141 1295,139 1298,143 1298,148 1296,150 1299,148 1299,143 1300,138" style="fill:#6b6b6b;stroke:black"/>
<polygon points="1291,72 1288,75 1291,78 1296,78 1297,82 1292,83 1291,84 1296,84 1299,80 1299,75 1300,72" style="fill:#6b6b6b;stroke:black"/>
<polygon points="1296,46 1299,41 1298,39 1297,41 1292,42 1291,39 1288,40 1293,45 1289,50 1292,51 1295,47 1296,51 1301,51" style="fill:#6b6b6b;stroke:black"/>
<polygon points="1292,270 1289,272 1291,271 1296,271 1298,275 1293,276 1289,279 1293,282 1298,282 1298,279 1294,282 1290,279 1295,277 1299,275 1298,270" style="fill:#6b6b6b;stroke:black"/>
<polygon points="1280,336 1276,338 1276,343 1280,347" style="fill:#6b6b6b;stroke:black"/>
<polygon points="1274,303 1272,308 1272,315 1273,311 1273,306 1278,304 1281,308 1281,313 1279,315 1282,313 1282,308 1283,303" style="fill:#6b6b6b;stroke:black"/>
<polygon points="1274,270 1272,275 1272,282 1273,278 1273,273 1278,271 1281,275 1281,280 1279,282 1282,280 1282,275 1283,270" style="fill:#6b6b6b;stroke:black"/>
<polygon points="1279,237 1274,238 1274,248 1273,249 1274,254 1275,250 1280,249" style="fill:#6b6b6b;stroke:black"/>
<polygon points="1283,173 1278,171 1273,172 1271,177 1273,182 1278,183 1283,181 1284,176" style="fill:#6b6b6b;stroke:black"/>
<polygon points="1274,45 1274,41 1279,40 1284,41 1279,39 1274,39 1271,43 1271,48 1275,51 1280,51 1283,47 1281,45" style="fill:#6b6b6b;stroke:black"/>
<polygon points="1276,368 1273,366 1274,371 1278,373 1276,369" style="fill:#6b6b6b;stroke:black"/>
<polygon points="1266,372 1261,369 1256,370 1251,369 1254,372 1254,382 1252,386" style="fill:#6b6b6b;stroke:black"/>
<polygon points="1256,336 1254,341 1254,348 1255,344 1255,339 1260,337 1263,341 1263,346 1261,348 1264,346 1264,341 1265,336" style="fill:#6b6b6b;stroke:black"/>
<polygon points="1266,306 1261,303 1256,304 1255,299 1256,298 1251,298 1254,301 1254,311 1252,315" style="fill:#6b6b6b;stroke:black"/>
<polygon points="1265,272 1260,270 1255,271 1253,276 1255,281 1260,282 1265,280 1266,275" style="fill:#6b6b6b;stroke:black"/>
<polygon points="1261,171 1256,172 1256,182 1255,183 1256,188 1257,184 1262,183" style="fill:#6b6b6b;stroke:black"/>
<polygon points="1262,138 1257,138 1253,142 1254,147 1258,150 1263,150 1265,147 1260,150 1255,147 1254,142 1259,138 1264,140 1264,139" style="fill:#6b6b6b;stroke:black"/>
<polygon points="1261,72 1263,76 1263,81 1259,83 1255,79 1255,72 1254,73 1254,83 1255,84 1260,84 1264,82 1264,77 1265,72" style="fill:#6b6b6b;stroke:black"/>
<polygon points="1260,249 1258,246 1258,251 1259,254 1261,251" style="fill:#6b6b6b;stroke:black"/>
<polygon points="1240,39 1236,42 1236,47 1239,51 1244,51 1247,53 1244,56 1248,55 1248,40 1247,39" style="fill:#6b6b6b;stroke:black"/>
<polygon points="1248,371 1243,369 1238,370 1236,375 1238,380 1243,381 1248,379 1249,374" style="fill:#6b6b6b;stroke:black"/>
<polygon points="1244,336 1239,337 1239,347 1238,348 1239,353 1240,349 1245,348" style="fill:#6b6b6b;stroke:black"/>
<polygon points="1244,303 1246,307 1246,312 1242,314 1238,310 1238,303 1237,304 1237,314 1238,315 1243,315 1247,313 1247,308 1248,303" style="fill:#6b6b6b;stroke:black"/>
<polygon points="1239,276 1239,272 1244,271 1249,272 1244,270 1239,270 1236,274 1236,279 1240,282 1245,282 1248,278 1246,276" style="fill:#6b6b6b;stroke:black"/>
<polygon points="1244,237 1246,241 1246,246 1242,248 1238,244 1238,237 1237,238 1237,248 1238,249 1243,249 1247,247 1247,242 1248,237" style="fill:#6b6b6b;stroke:black"/>
<polygon points="1239,78 1239,74 1244,73 1249,74 1244,72 1239,72 1236,76 1236,81 1240,84 1245,84 1248,80 1246,78" style="fill:#6b6b6b;stroke:black"/>
<polygon points="1227,270 1229,274 1229,279 1225,281 1221,277 1221,270 1220,271 1220,281 1221,282 1226,282 1230,280 1230,275 1231,270" style="fill:#6b6b6b;stroke:black"/>
<polygon points="1221,336 1218,339 1221,342 1226,342 1227,346 1222,347 1221,348 1226,348 1229,344 1229,339 1230,336" style="fill:#6b6b6b;stroke:black"/>
<polygon points="1230,239 1225,237 1220,238 1218,243 1220,248 1225,249 1230,247 1231,242" style="fill:#6b6b6b;stroke:black"/>
<polygon points="1221,144 1221,140 1226,139 1231,140 1226,138 1221,138 1218,142 1218,147 1222,150 1227,150 1230,146 1228,144" style="fill:#6b6b6b;stroke:black"/>
<polygon points="1226,72 1221,73 1221,83 1220,84 1221,89 1222,85 1227,84" style="fill:#6b6b6b;stroke:black"/>
<polygon points="1226,39 1228,43 1228,48 1224,50 1220,46 1220,39 1219,40 1219,50 1220,51 1225,51 1229,49 1229,44 1230,39" style="fill:#6b6b6b;stroke:black"/>
<polygon points="1227,376 1227,366 1222,364 1219,364" style="fill:#6b6b6b;stroke:black"/>
<polygon points="1223,170 1220,168 1221,173 1225,175 1223,171" style="fill:#6b6b6b;stroke:black"/>
<polygon points="1214,241 1210,237 1202,237 1203,242 1203,252 1204,253 1209,253 1214,250 1215,245" style="fill:#6b6b6b;stroke:black"/>
<polygon points="1204,342 1204,338 1209,337 1214,338 1209,336 1204,336 1201,340 1201,345 1205,348 1210,348 1213,344 1211,342" style="fill:#6b6b6b;stroke:black"/>
<polygon points="1204,270 1201,273 1204,276 1209,276 1210,280 1205,281 1204,282 1209,282 1212,278 1212,273 1213,270" style="fill:#6b6b6b;stroke:black"/>
<polygon points="1209,138 1211,142 1211,147 1207,149 1203,145 1203,138 1202,139 1202,154 1203,155 1203,150 1208,150 1212,147 1212,142 1214,138" style="fill:#6b6b6b;stroke:black"/>
<polygon points="1209,72 1211,76 1211,81 1207,83 1203,79 1203,72 1202,73 1202,88 1203,89 1203,84 1208,84 1212,81 1212,76 1214,72" style="fill:#6b6b6b;stroke:black"/>
<polygon points="1204,39 1201,42 1204,45 1209,45 1210,49 1205,50 1204,51 1209,51 1212,47 1212,42 1213,39" style="fill:#6b6b6b;stroke:black"/>
<polygon points="1205,171 1202,173 1204,172 1209,172 1211,176 1206,177 1202,180 1206,183 1211,183 1211,180 1207,183 1203,180 1208,178 1212,176 1211,171" style="fill:#6b6b6b;stroke:black"/>
<polygon points="1195,173 1195,178 1193,182 1190,178 1190,171 1189,175 1189,180 1185,181 1184,176 1185,171 1182,171 1183,176 1183,183 1193,183 1196,180 1196,175 1198,171" style="fill:#6b6b6b;stroke:black"/>
<polygon points="1195,376 1194,371 1191,371 1188,372 1185,369 1183,379 1183,381 1184,380 1185,375 1187,374 1190,377 1193,374 1194,379 1194,381 1195,379" style="fill:#6b6b6b;stroke:black"/>
<polygon points="1193,270 1189,272 1189,277 1193,281" style="fill:#6b6b6b;stroke:black"/>
<polygon points="1194,81 1194,71 1191,67 1186,67" style="fill:#6b6b6b;stroke:black"/>
<polygon points="1194,348 1189,348 1191,353" style="fill:#6b6b6b;stroke:black"/>
<polygon points="1186,309 1186,305 1191,304 1196,305 1191,303 1186,303 1183,307 1183,312 1187,315 1192,315 1195,311 1193,309" style="fill:#6b6b6b;stroke:black"/>
<polygon points="1191,138 1186,139 1186,149 1185,150 1186,155 1187,151 1192,150" style="fill:#6b6b6b;stroke:black"/>
<polygon points="1169,375 1169,371 1174,370 1179,371 1174,369 1169,369 1166,373 1166,378 1170,381 1175,381 1178,377 1176,375" style="fill:#6b6b6b;stroke:black"/>
<polygon points="1174,303 1176,307 1176,312 1172,314 1168,310 1168,303 1167,304 1167,319 1168,320 1168,315 1173,315 1177,312 1177,307 1179,303" style="fill:#6b6b6b;stroke:black"/>
<polygon points="1174,270 1169,271 1169,281 1168,282 1169,287 1170,283 1175,282" style="fill:#6b6b6b;stroke:black"/>
<polygon points="1169,177 1169,173 1174,172 1179,173 1174,171 1169,171 1166,175 1166,180 1170,183 1175,183 1178,179 1176,177" style="fill:#6b6b6b;stroke:black"/>
<polygon points="1170,39 1167,41 1169,40 1174,40 1176,44 1171,45 1167,48 1171,51 1176,51 1176,48 1172,51 1168,48 1173,46 1177,44 1176,39" style="fill:#6b6b6b;stroke:black"/>
<polygon points="1176,348 1174,347 1174,352 1177,353" style="fill:#6b6b6b;stroke:black"/>
<polygon points="1172,237 1170,240 1174,239" style="fill:#6b6b6b;stroke:black"/>
<polygon points="1170,348 1168,347 1168,352 1171,353" style="fill:#6b6b6b;stroke:black"/>
<polygon points="1157,277 1160,272 1159,270 1158,272 1153,273 1152,270 1149,271 1154,276 1150,281 1153,282 1156,278 1157,282 1162,282" style="fill:#6b6b6b;stroke:black"/>
<polygon points="1159,145 1157,140 1154,135 1154,133 1149,133" style="fill:#6b6b6b;stroke:black"/>
<polygon points="1156,369 1158,373 1158,378 1154,380 1150,376 1150,369 1149,370 1149,380 1150,381 1155,381 1159,379 1159,374 1160,369" style="fill:#6b6b6b;stroke:black"/>
<polygon points="1156,303 1151,304 1151,314 1150,315 1151,320 1152,316 1157,315" style="fill:#6b6b6b;stroke:black"/>
<polygon points="1156,171 1151,172 1151,182 1150,183 1151,188 1152,184 1157,183" style="fill:#6b6b6b;stroke:black"/>
<polygon points="1152,237 1149,239 1151,238 1156,238 1158,242 1153,243 1149,246 1153,249 1158,249 1158,246 1154,249 1150,246 1155,244 1159,242 1158,237" style="fill:#6b6b6b;stroke:black"/>
<polygon points="1154,6 1152,9 1156,8" style="fill:#6b6b6b;stroke:black"/>
<polygon points="1143,8 1143,13 1141,17 1138,13 1138,6 1137,10 1137,15 1133,16 1132,11 1133,6 1130,6 1131,11 1131,18 1141,18 1144,15 1144,10 1146,6" style="fill:#6b6b6b;stroke:black"/>
<polygon points="1143,343 1142,338 1139,338 1136,339 1133,336 1131,346 1131,348 1132,347 1133,342 1135,341 1138,344 1141,341 1142,346 1142,348 1143,346" style="fill:#6b6b6b;stroke:black"/>
<polygon points="1134,276 1134,272 1139,271 1144,272 1139,270 1134,270 1131,274 1131,279 1135,282 1140,282 1143,278 1141,276" style="fill:#6b6b6b;stroke:black"/>
<polygon points="1139,237 1134,238 1134,248 1133,249 1134,254 1135,250 1140,249" style="fill:#6b6b6b;stroke:black"/>
<polygon points="1134,138 1131,141 1134,144 1139,144 1140,148 1135,149 1134,150 1139,150 1142,146 1142,141 1143,138" style="fill:#6b6b6b;stroke:black"/>
<polygon points="1143,41 1138,39 1133,40 1131,45 1133,50 1138,51 1143,49 1144,44" style="fill:#6b6b6b;stroke:black"/>
<polygon points="1135,171 1132,173 1134,172 1139,172 1141,176 1136,177 1132,180 1136,183 1141,183 1141,180 1137,183 1133,180 1138,178 1142,176 1141,171" style="fill:#6b6b6b;stroke:black"/>
<polygon points="1124,178 1122,173 1119,168 1119,166 1114,166" style="fill:#6b6b6b;stroke:black"/>
<polygon points="1125,145 1124,140 1121,140 1118,141 1115,138 1113,148 1113,150 1114,149 1115,144 1117,143 1120,146 1123,143 1124,148 1124,150 1125,148" style="fill:#6b6b6b;stroke:black"/>
<polygon points="1116,369 1113,372 1116,375 1121,375 1122,379 1117,380 1116,381 1121,381 1124,377 1124,372 1125,369" style="fill:#6b6b6b;stroke:black"/>
<polygon points="1116,342 1116,338 1121,337 1126,338 1121,336 1116,336 1113,340 1113,345 1117,348 1122,348 1125,344 1123,342" style="fill:#6b6b6b;stroke:black"/>
<polygon points="1116,309 1116,305 1121,304 1126,305 1121,303 1116,303 1113,307 1113,312 1117,315 1122,315 1125,311 1123,309" style="fill:#6b6b6b;stroke:black"/>
<polygon points="1116,237 1113,240 1116,243 1121,243 1122,247 1117,248 1116,249 1121,249 1124,245 1124,240 1125,237" style="fill:#6b6b6b;stroke:black"/>
<polygon points="1125,74 1120,72 1115,73 1113,78 1115,83 1120,84 1125,82 1126,77" style="fill:#6b6b6b;stroke:black"/>
<polygon points="1125,41 1120,39 1115,40 1113,45 1115,50 1120,51 1125,49 1126,44" style="fill:#6b6b6b;stroke:black"/>
<polygon points="1116,12 1116,8 1121,7 1126,8 1121,6 1116,6 1113,10 1113,15 1117,18 1122,18 1125,14 1123,12" style="fill:#6b6b6b;stroke:black"/>
<polygon points="1108,305 1108,310 1106,314 1103,310 1103,303 1102,307 1102,312 1098,313 1097,308 1098,303 1095,303 1096,308 1096,315 1106,315 1109,312 1109,307 1111,303" style="fill:#6b6b6b;stroke:black"/>
<polygon points="1108,239 1108,244 1106,248 1103,244 1103,237 1102,241 1102,246 1098,247 1097,242 1098,237 1095,237 1096,242 1096,249 1106,249 1109,246 1109,241 1111,237" style="fill:#6b6b6b;stroke:black"/>
<polygon points="1104,336 1106,340 1106,345 1102,347 1098,343 1098,336 1097,337 1097,347 1098,348 1103,348 1107,346 1107,341 1108,336" style="fill:#6b6b6b;stroke:black"/>
<polygon points="1104,270 1106,274 1106,279 1102,281 1098,277 1098,270 1097,271 1097,286 1098,287 1098,282 1103,282 1107,279 1107,274 1109,270" style="fill:#6b6b6b;stroke:black"/>
<polygon points="1099,138 1096,141 1099,144 1104,144 1105,148 1100,149 1099,150 1104,150 1107,146 1107,141 1108,138" style="fill:#6b6b6b;stroke:black"/>
<polygon points="1104,72 1099,73 1099,83 1098,84 1099,89 1100,85 1105,84" style="fill:#6b6b6b;stroke:black"/>
<polygon points="1104,39 1099,40 1099,50 1098,51 1099,56 1100,52 1105,51" style="fill:#6b6b6b;stroke:black"/>
<polygon points="1104,6 1106,10 1106,15 1102,17 1098,13 1098,6 1097,7 1097,22 1098,23 1098,18 1103,18 1107,15 1107,10 1109,6" style="fill:#6b6b6b;stroke:black"/>
<polygon points="1100,171 1097,173 1099,172 1104,172 1106,176 1101,177 1097,180 1101,183 1106,183 1106,180 1102,183 1098,180 1103,178 1107,176 1106,171" style="fill:#6b6b6b;stroke:black"/>
<polygon points="1090,371 1085,369 1080,370 1078,375 1080,380 1085,381 1090,379 1091,374" style="fill:#6b6b6b;stroke:black"/>
<polygon points="1090,305 1085,303 1080,304 1078,309 1080,314 1085,315 1090,313 1091,308" style="fill:#6b6b6b;stroke:black"/>
<polygon points="1086,270 1081,271 1081,281 1080,282 1081,287 1082,283 1087,282" style="fill:#6b6b6b;stroke:black"/>
<polygon points="1087,237 1083,239 1083,244 1087,248" style="fill:#6b6b6b;stroke:black"/>
<polygon points="1086,6 1081,7 1081,17 1080,18 1081,23 1082,19 1087,18" style="fill:#6b6b6b;stroke:black"/>
<polygon points="1065,369 1061,372 1061,377 1064,381 1069,381 1072,383 1069,386 1073,385 1073,370 1072,369" style="fill:#6b6b6b;stroke:black"/>
<polygon points="1072,345 1072,335 1069,331 1064,331" style="fill:#6b6b6b;stroke:black"/>
<polygon points="1072,180 1072,170 1069,166 1064,166" style="fill:#6b6b6b;stroke:black"/>
<polygon points="1073,145 1072,140 1069,140 1066,141 1063,138 1061,148 1061,150 1062,149 1063,144 1065,143 1068,146 1071,143 1072,148 1072,150 1073,148" style="fill:#6b6b6b;stroke:black"/>
<polygon points="1070,303 1065,303 1061,307 1062,312 1066,315 1071,315 1073,312 1068,315 1063,312 1062,307 1067,303 1072,305 1072,304" style="fill:#6b6b6b;stroke:black"/>
<polygon points="1073,239 1068,237 1063,238 1061,243 1063,248 1068,249 1073,247 1074,242" style="fill:#6b6b6b;stroke:black"/>
<polygon points="1074,75 1069,72 1064,73 1063,68 1064,67 1059,67 1062,70 1062,80 1060,84" style="fill:#6b6b6b;stroke:black"/>
<polygon points="1064,45 1064,41 1069,40 1074,41 1069,39 1064,39 1061,43 1061,48 1065,51 1070,51 1073,47 1071,45" style="fill:#6b6b6b;stroke:black"/>
<polygon points="1055,277 1054,272 1051,272 1048,273 1045,270 1043,280 1043,282 1044,281 1045,276 1047,275 1050,278 1053,275 1054,280 1054,282 1055,280" style="fill:#6b6b6b;stroke:black"/>
<polygon points="1054,15 1054,5 1051,1 1046,1" style="fill:#6b6b6b;stroke:black"/>
<polygon points="1051,336 1053,340 1053,345 1049,347 1045,343 1045,336 1044,337 1044,347 1045,348 1050,348 1054,346 1054,341 1055,336" style="fill:#6b6b6b;stroke:black"/>
<polygon points="1046,309 1046,305 1051,304 1056,305 1051,303 1046,303 1043,307 1043,312 1047,315 1052,315 1055,311 1053,309" style="fill:#6b6b6b;stroke:black"/>
<polygon points="1054,249 1049,249 1051,254" style="fill:#6b6b6b;stroke:black"/>
<polygon points="1051,171 1053,175 1053,180 1049,182 1045,178 1045,171 1044,172 1044,182 1045,183 1050,183 1054,181 1054,176 1055,171" style="fill:#6b6b6b;stroke:black"/>
<polygon points="1055,140 1050,138 1045,139 1043,144 1045,149 1050,150 1055,148 1056,143" style="fill:#6b6b6b;stroke:black"/>
<polygon points="1051,39 1053,43 1053,48 1049,50 1045,46 1045,39 1044,40 1044,55 1045,56 1045,51 1050,51 1054,48 1054,43 1056,39" style="fill:#6b6b6b;stroke:black"/>
<polygon points="1038,371 1033,369 1028,370 1026,375 1028,380 1033,381 1038,379 1039,374" style="fill:#6b6b6b;stroke:black"/>
<polygon points="1039,306 1034,303 1029,304 1024,303 1027,306 1027,316 1025,320" style="fill:#6b6b6b;stroke:black"/>
<polygon points="1035,138 1031,140 1031,145 1035,149" style="fill:#6b6b6b;stroke:black"/>
<polygon points="1029,78 1029,74 1034,73 1039,74 1034,72 1029,72 1026,76 1026,81 1030,84 1035,84 1038,80 1036,78" style="fill:#6b6b6b;stroke:black"/>
<polygon points="1034,39 1029,40 1029,50 1028,51 1029,56 1030,52 1035,51" style="fill:#6b6b6b;stroke:black"/>
<polygon points="1034,6 1036,10 1036,15 1032,17 1028,13 1028,6 1027,7 1027,17 1028,18 1033,18 1037,16 1037,11 1038,6" style="fill:#6b6b6b;stroke:black"/>
<polygon points="1012,336 1008,339 1008,344 1011,348 1016,348 1019,350 1016,353 1020,352 1020,337 1019,336" style="fill:#6b6b6b;stroke:black"/>
<polygon points="1017,369 1016,369 1015,374 1015,384 1020,384 1021,380" style="fill:#6b6b6b;stroke:black"/>
<polygon points="1016,270 1011,271 1011,281 1010,282 1011,287 1012,283 1017,282" style="fill:#6b6b6b;stroke:black"/>
<polygon points="1016,237 1011,238 1011,248 1010,249 1011,254 1012,250 1017,249" style="fill:#6b6b6b;stroke:black"/>
<polygon points="1016,171 1011,172 1011,182 1010,183 1011,188 1012,184 1017,183" style="fill:#6b6b6b;stroke:black"/>
<polygon points="1016,138 1018,142 1018,147 1014,149 1010,145 1010,138 1009,139 1009,154 1010,155 1010,150 1015,150 1019,147 1019,142 1021,138" style="fill:#6b6b6b;stroke:black"/>
<polygon points="1016,72 1018,76 1018,81 1014,83 1010,79 1010,72 1009,73 1009,88 1010,89 1010,84 1015,84 1019,81 1019,76 1021,72" style="fill:#6b6b6b;stroke:black"/>
<polygon points="995,336 991,339 991,344 994,348 999,348 1002,350 999,353 1003,352 1003,337 1002,336" style="fill:#6b6b6b;stroke:black"/>
<polygon points="995,39 991,42 991,47 994,51 999,51 1002,53 999,56 1003,55 1003,40 1002,39" style="fill:#6b6b6b;stroke:black"/>
<polygon points="1003,305 998,303 993,304 991,309 993,314 998,315 1003,313 1004,308" style="fill:#6b6b6b;stroke:black"/>
<polygon points="994,270 992,275 992,282 993,278 993,273 998,271 1001,275 1001,280 999,282 1002,280 1002,275 1003,270" style="fill:#6b6b6b;stroke:black"/>
<polygon points="994,237 992,242 992,249 993,245 993,240 998,238 1001,242 1001,247 999,249 1002,247 1002,242 1003,237" style="fill:#6b6b6b;stroke:black"/>
<polygon points="994,171 991,174 994,177 999,177 1000,181 995,182 994,183 999,183 1002,179 1002,174 1003,171" style="fill:#6b6b6b;stroke:black"/>
<polygon points="999,138 994,139 994,149 993,150 994,155 995,151 1000,150" style="fill:#6b6b6b;stroke:black"/>
<polygon points="995,6 992,8 994,7 999,7 1001,11 996,12 992,15 996,18 1001,18 1001,15 997,18 993,15 998,13 1002,11 1001,6" style="fill:#6b6b6b;stroke:black"/>
<polygon points="977,72 973,75 973,80 976,84 981,84 984,86 981,89 985,88 985,73 984,72" style="fill:#6b6b6b;stroke:black"/>
<polygon points="976,336 973,339 976,342 981,342 982,346 977,347 976,348 981,348 984,344 984,339 985,336" style="fill:#6b6b6b;stroke:black"/>
<polygon points="981,303 976,304 976,314 975,315 976,320 977,316 982,315" style="fill:#6b6b6b;stroke:black"/>
<polygon points="986,273 981,270 976,271 975,266 976,265 971,265 974,268 974,278 972,282" style="fill:#6b6b6b;stroke:black"/>
<polygon points="986,240 981,237 976,238 975,233 976,232 971,232 974,235 974,245 972,249" style="fill:#6b6b6b;stroke:black"/>
<polygon points="982,171 978,173 978,178 982,182" style="fill:#6b6b6b;stroke:black"/>
<polygon points="976,6 974,11 974,18 975,14 975,9 980,7 983,11 983,16 981,18 984,16 984,11 985,6" style="fill:#6b6b6b;stroke:black"/>
<polygon points="979,369 977,372 981,371" style="fill:#6b6b6b;stroke:black"/>
<polygon points="964,270 959,271 959,281 958,282 959,287 960,283 965,282" style="fill:#6b6b6b;stroke:black"/>
<polygon points="964,237 966,241 966,246 962,248 958,244 958,237 957,238 957,248 958,249 963,249 967,247 967,242 968,237" style="fill:#6b6b6b;stroke:black"/>
<polygon points="959,177 959,173 964,172 969,173 964,171 959,171 956,175 956,180 960,183 965,183 968,179 966,177" style="fill:#6b6b6b;stroke:black"/>
<polygon points="968,140 963,138 958,139 956,144 958,149 963,150 968,148 969,143" style="fill:#6b6b6b;stroke:black"/>
<polygon points="959,78 959,74 964,73 969,74 964,72 959,72 956,76 956,81 960,84 965,84 968,80 966,78" style="fill:#6b6b6b;stroke:black"/>
<polygon points="950,305 950,310 948,314 945,310 945,303 944,307 944,312 940,313 939,308 940,303 937,303 938,308 938,315 948,315 951,312 951,307 953,303" style="fill:#6b6b6b;stroke:black"/>
<polygon points="949,343 947,338 944,333 944,331 939,331" style="fill:#6b6b6b;stroke:black"/>
<polygon points="942,6 938,9 938,14 941,18 946,18 949,20 946,23 950,22 950,7 949,6" style="fill:#6b6b6b;stroke:black"/>
<polygon points="941,270 939,275 939,282 940,278 940,273 945,271 948,275 948,280 946,282 949,280 949,275 950,270" style="fill:#6b6b6b;stroke:black"/>
<polygon points="951,174 946,171 941,172 940,167 941,166 936,166 939,169 939,179 937,183" style="fill:#6b6b6b;stroke:black"/>
<polygon points="946,138 941,139 941,149 940,150 941,155 942,151 947,150" style="fill:#6b6b6b;stroke:black"/>
<polygon points="941,39 939,44 939,51 940,47 940,42 945,40 948,44 948,49 946,51 949,49 949,44 950,39" style="fill:#6b6b6b;stroke:black"/>
<polygon points="924,375 924,371 929,370 934,371 929,369 924,369 921,373 921,378 925,381 930,381 933,377 931,375" style="fill:#6b6b6b;stroke:black"/>
<polygon points="934,339 929,336 924,337 919,336 922,339 922,349 920,353" style="fill:#6b6b6b;stroke:black"/>
<polygon points="924,303 921,306 924,309 929,309 930,313 925,314 924,315 929,315 932,311 932,306 933,303" style="fill:#6b6b6b;stroke:black"/>
<polygon points="933,272 928,270 923,271 921,276 923,281 928,282 933,280 934,275" style="fill:#6b6b6b;stroke:black"/>
<polygon points="933,173 928,171 923,172 921,177 923,182 928,183 933,181 934,176" style="fill:#6b6b6b;stroke:black"/>
<polygon points="934,42 929,39 924,40 919,39 922,42 922,52 920,56" style="fill:#6b6b6b;stroke:black"/>
<polygon points="924,12 924,8 929,7 934,8 929,6 924,6 921,10 921,15 925,18 930,18 933,14 931,12" style="fill:#6b6b6b;stroke:black"/>
<polygon points="915,376 914,371 911,371 908,372 905,369 903,379 903,381 904,380 905,375 907,374 910,377 913,374 914,379 914,381 915,379" style="fill:#6b6b6b;stroke:black"/>
<polygon points="914,244 912,239 909,234 909,232 904,232" style="fill:#6b6b6b;stroke:black"/>
<polygon points="912,303 908,305 908,310 912,314" style="fill:#6b6b6b;stroke:black"/>
<polygon points="906,144 906,140 911,139 916,140 911,138 906,138 903,142 903,147 907,150 912,150 915,146 913,144" style="fill:#6b6b6b;stroke:black"/>
<polygon points="911,6 913,10 913,15 909,17 905,13 905,6 904,7 904,22 905,23 905,18 910,18 914,15 914,10 916,6" style="fill:#6b6b6b;stroke:black"/>
<polygon points="897,312 897,302 894,298 889,298" style="fill:#6b6b6b;stroke:black"/>
<polygon points="887,72 890,74 892,77 895,72" style="fill:#6b6b6b;stroke:black"/>
<polygon points="895,270 891,272 891,277 895,281" style="fill:#6b6b6b;stroke:black"/>
<polygon points="895,237 891,239 891,244 895,248" style="fill:#6b6b6b;stroke:black"/>
<polygon points="894,171 896,175 896,180 892,182 888,178 888,171 887,172 887,182 888,183 893,183 897,181 897,176 898,171" style="fill:#6b6b6b;stroke:black"/>
<polygon points="894,138 889,139 889,149 888,150 889,155 890,151 895,150" style="fill:#6b6b6b;stroke:black"/>
<polygon points="898,41 893,39 888,40 886,45 888,50 893,51 898,49 899,44" style="fill:#6b6b6b;stroke:black"/>
<polygon points="890,336 887,338 889,337 894,337 896,341 891,342 887,345 891,348 896,348 896,345 892,348 888,345 893,343 897,341 896,336" style="fill:#6b6b6b;stroke:black"/>
<polygon points="890,6 887,8 889,7 894,7 896,11 891,12 887,15 891,18 896,18 896,15 892,18 888,15 893,13 897,11 896,6" style="fill:#6b6b6b;stroke:black"/>
<polygon points="880,338 880,343 878,347 875,343 875,336 874,340 874,345 870,346 869,341 870,336 867,336 868,341 868,348 878,348 881,345 881,340 883,336" style="fill:#6b6b6b;stroke:black"/>
<polygon points="879,378 879,368 876,364 871,364" style="fill:#6b6b6b;stroke:black"/>
<polygon points="880,305 875,303 870,304 868,309 870,314 875,315 880,313 881,308" style="fill:#6b6b6b;stroke:black"/>
<polygon points="871,276 871,272 876,271 881,272 876,270 871,270 868,274 868,279 872,282 877,282 880,278 878,276" style="fill:#6b6b6b;stroke:black"/>
<polygon points="871,237 868,240 871,243 876,243 877,247 872,248 871,249 876,249 879,245 879,240 880,237" style="fill:#6b6b6b;stroke:black"/>
<polygon points="871,177 871,173 876,172 881,173 876,171 871,171 868,175 868,180 872,183 877,183 880,179 878,177" style="fill:#6b6b6b;stroke:black"/>
<polygon points="871,138 868,141 871,144 876,144 877,148 872,149 871,150 876,150 879,146 879,141 880,138" style="fill:#6b6b6b;stroke:black"/>
<polygon points="876,39 871,40 871,50 870,51 871,56 872,52 877,51" style="fill:#6b6b6b;stroke:black"/>
<polygon points="872,72 869,74 871,73 876,73 878,77 873,78 869,81 873,84 878,84 878,81 874,84 870,81 875,79 879,77 878,72" style="fill:#6b6b6b;stroke:black"/>
<polygon points="862,179 860,174 856,171 852,181 850,183 855,183 854,179 856,174 859,175 861,180 859,183 864,183" style="fill:#6b6b6b;stroke:black"/>
<polygon points="859,369 861,373 861,378 857,380 853,376 853,369 852,370 852,380 853,381 858,381 862,379 862,374 863,369" style="fill:#6b6b6b;stroke:black"/>
<polygon points="854,336 851,339 854,342 859,342 860,346 855,347 854,348 859,348 862,344 862,339 863,336" style="fill:#6b6b6b;stroke:black"/>
<polygon points="860,303 856,305 856,310 860,314" style="fill:#6b6b6b;stroke:black"/>
<polygon points="859,270 854,271 854,281 853,282 854,287 855,283 860,282" style="fill:#6b6b6b;stroke:black"/>
<polygon points="859,237 861,241 861,246 857,248 853,244 853,237 852,238 852,248 853,249 858,249 862,247 862,242 863,237" style="fill:#6b6b6b;stroke:black"/>
<polygon points="859,138 854,139 854,149 853,150 854,155 855,151 860,150" style="fill:#6b6b6b;stroke:black"/>
<polygon points="859,72 861,76 861,81 857,83 853,79 853,72 852,73 852,83 853,84 858,84 862,82 862,77 863,72" style="fill:#6b6b6b;stroke:black"/>
<polygon points="859,6 861,10 861,15 857,17 853,13 853,6 852,7 852,17 853,18 858,18 862,16 862,11 863,6" style="fill:#6b6b6b;stroke:black"/>
<polygon points="842,336 838,338 838,343 842,347" style="fill:#6b6b6b;stroke:black"/>
<polygon points="846,306 841,303 836,304 835,299 836,298 831,298 834,301 834,311 832,315" style="fill:#6b6b6b;stroke:black"/>
<polygon points="841,270 836,271 836,281 835,282 836,287 837,283 842,282" style="fill:#6b6b6b;stroke:black"/>
<polygon points="836,177 836,173 841,172 846,173 841,171 836,171 833,175 833,180 837,183 842,183 845,179 843,177" style="fill:#6b6b6b;stroke:black"/>
<polygon points="836,72 834,77 834,84 835,80 835,75 840,73 843,77 843,82 841,84 844,82 844,77 845,72" style="fill:#6b6b6b;stroke:black"/>
<polygon points="842,39 838,41 838,46 842,50" style="fill:#6b6b6b;stroke:black"/>
<polygon points="827,345 827,335 824,331 819,331" style="fill:#6b6b6b;stroke:black"/>
<polygon points="824,369 826,373 826,378 822,380 818,376 818,369 817,370 817,385 818,386 818,381 823,381 827,378 827,373 829,369" style="fill:#6b6b6b;stroke:black"/>
<polygon points="819,270 817,275 817,282 818,278 818,273 823,271 826,275 826,280 824,282 827,280 827,275 828,270" style="fill:#6b6b6b;stroke:black"/>
<polygon points="829,240 824,237 819,238 814,237 817,240 817,250 815,254" style="fill:#6b6b6b;stroke:black"/>
<polygon points="819,39 817,44 817,51 818,47 818,42 823,40 826,44 826,49 824,51 827,49 827,44 828,39" style="fill:#6b6b6b;stroke:black"/>
<polygon points="827,18 822,18 824,23" style="fill:#6b6b6b;stroke:black"/>
<polygon points="820,138 817,140 819,139 824,139 826,143 821,144 817,147 821,150 826,150 826,147 822,150 818,147 823,145 827,143 826,138" style="fill:#6b6b6b;stroke:black"/>
<polygon points="809,310 807,305 804,300 804,298 799,298" style="fill:#6b6b6b;stroke:black"/>
<polygon points="806,369 801,370 801,380 800,381 801,386 802,382 807,381" style="fill:#6b6b6b;stroke:black"/>
<polygon points="810,338 805,336 800,337 798,342 800,347 805,348 810,346 811,341" style="fill:#6b6b6b;stroke:black"/>
<polygon points="801,144 801,140 806,139 811,140 806,138 801,138 798,142 798,147 802,150 807,150 810,146 808,144" style="fill:#6b6b6b;stroke:black"/>
<polygon points="810,74 805,72 800,73 798,78 800,83 805,84 810,82 811,77" style="fill:#6b6b6b;stroke:black"/>
<polygon points="810,41 805,39 800,40 798,45 800,50 805,51 810,49 811,44" style="fill:#6b6b6b;stroke:black"/>
<polygon points="803,170 800,168 801,173 805,175 803,171" style="fill:#6b6b6b;stroke:black"/>
<polygon points="790,336 786,338 786,343 790,347" style="fill:#6b6b6b;stroke:black"/>
<polygon points="790,303 786,305 786,310 790,314" style="fill:#6b6b6b;stroke:black"/>
<polygon points="790,270 785,270 781,274 782,279 786,282 791,282 793,279 788,282 783,279 782,274 787,270 792,272 792,271" style="fill:#6b6b6b;stroke:black"/>
<polygon points="790,237 786,239 786,244 790,248" style="fill:#6b6b6b;stroke:black"/>
<polygon points="784,177 784,173 789,172 794,173 789,171 784,171 781,175 781,180 785,183 790,183 793,179 791,177" style="fill:#6b6b6b;stroke:black"/>
<polygon points="789,138 791,142 791,147 787,149 783,145 783,138 782,139 782,154 783,155 783,150 788,150 792,147 792,142 794,138" style="fill:#6b6b6b;stroke:black"/>
<polygon points="789,72 784,73 784,83 783,84 784,89 785,85 790,84" style="fill:#6b6b6b;stroke:black"/>
<polygon points="789,39 784,40 784,50 783,51 784,56 785,52 790,51" style="fill:#6b6b6b;stroke:black"/>
<polygon points="784,12 784,8 789,7 794,8 789,6 784,6 781,10 781,15 785,18 790,18 793,14 791,12" style="fill:#6b6b6b;stroke:black"/>
<polygon points="774,14 772,9 768,6 764,16 762,18 767,18 766,14 768,9 771,10 773,15 771,18 776,18" style="fill:#6b6b6b;stroke:black"/>
<polygon points="766,375 766,371 771,370 776,371 771,369 766,369 763,373 763,378 767,381 772,381 775,377 773,375" style="fill:#6b6b6b;stroke:black"/>
<polygon points="776,339 771,336 766,337 765,332 766,331 761,331 764,334 764,344 762,348" style="fill:#6b6b6b;stroke:black"/>
<polygon points="766,309 766,305 771,304 776,305 771,303 766,303 763,307 763,312 767,315 772,315 775,311 773,309" style="fill:#6b6b6b;stroke:black"/>
<polygon points="775,239 770,237 765,238 763,243 765,248 770,249 775,247 776,242" style="fill:#6b6b6b;stroke:black"/>
<polygon points="772,171 768,173 768,178 772,182" style="fill:#6b6b6b;stroke:black"/>
<polygon points="766,45 766,41 771,40 776,41 771,39 766,39 763,43 763,48 767,51 772,51 775,47 773,45" style="fill:#6b6b6b;stroke:black"/>
<polygon points="757,311 755,306 751,303 747,313 745,315 750,315 749,311 751,306 754,307 756,312 754,315 759,315" style="fill:#6b6b6b;stroke:black"/>
<polygon points="750,39 746,42 746,47 749,51 754,51 757,53 754,56 758,55 758,40 757,39" style="fill:#6b6b6b;stroke:black"/>
<polygon points="754,369 756,373 756,378 752,380 748,376 748,369 747,370 747,380 748,381 753,381 757,379 757,374 758,369" style="fill:#6b6b6b;stroke:black"/>
<polygon points="754,270 749,271 749,281 748,282 749,287 750,283 755,282" style="fill:#6b6b6b;stroke:black"/>
<polygon points="749,171 746,174 749,177 754,177 755,181 750,182 749,183 754,183 757,179 757,174 758,171" style="fill:#6b6b6b;stroke:black"/>
<polygon points="754,138 749,139 749,149 748,150 749,155 750,151 755,150" style="fill:#6b6b6b;stroke:black"/>
<polygon points="749,78 749,74 754,73 759,74 754,72 749,72 746,76 746,81 750,84 755,84 758,80 756,78" style="fill:#6b6b6b;stroke:black"/>
<polygon points="753,18 751,15 751,20 752,23 754,20" style="fill:#6b6b6b;stroke:black"/>
<polygon points="732,336 728,339 728,344 731,348 736,348 739,350 736,353 740,352 740,337 739,336" style="fill:#6b6b6b;stroke:black"/>
<polygon points="740,178 739,173 736,173 733,174 730,171 728,181 728,183 729,182 730,177 732,176 735,179 738,176 739,181 739,183 740,181" style="fill:#6b6b6b;stroke:black"/>
<polygon points="740,371 735,369 730,370 728,375 730,380 735,381 740,379 741,374" style="fill:#6b6b6b;stroke:black"/>
<polygon points="731,309 731,305 736,304 741,305 736,303 731,303 728,307 728,312 732,315 737,315 740,311 738,309" style="fill:#6b6b6b;stroke:black"/>
<polygon points="737,237 733,239 733,244 737,248" style="fill:#6b6b6b;stroke:black"/>
<polygon points="737,72 732,72 728,76 729,81 733,84 738,84 740,81 735,84 730,81 729,76 734,72 739,74 739,73" style="fill:#6b6b6b;stroke:black"/>
<polygon points="731,6 729,11 729,18 730,14 730,9 735,7 738,11 738,16 736,18 739,16 739,11 740,6" style="fill:#6b6b6b;stroke:black"/>
<polygon points="735,282 733,279 733,284 734,287 736,284" style="fill:#6b6b6b;stroke:black"/>
<polygon points="735,150 733,147 733,152 734,155 736,152" style="fill:#6b6b6b;stroke:black"/>
<polygon points="719,270 721,274 721,279 717,281 713,277 713,270 712,271 712,281 713,282 718,282 722,280 722,275 723,270" style="fill:#6b6b6b;stroke:black"/>
<polygon points="714,237 711,240 714,243 719,243 720,247 715,248 714,249 719,249 722,245 722,240 723,237" style="fill:#6b6b6b;stroke:black"/>
<polygon points="719,171 714,172 714,182 713,183 714,188 715,184 720,183" style="fill:#6b6b6b;stroke:black"/>
<polygon points="719,138 721,142 721,147 717,149 713,145 713,138 712,139 712,149 713,150 718,150 722,148 722,143 723,138" style="fill:#6b6b6b;stroke:black"/>
<polygon points="719,72 721,76 721,81 717,83 713,79 713,72 712,73 712,83 713,84 718,84 722,82 722,77 723,72" style="fill:#6b6b6b;stroke:black"/>
<polygon points="723,41 718,39 713,40 711,45 713,50 718,51 723,49 724,44" style="fill:#6b6b6b;stroke:black"/>
<polygon points="723,8 718,6 713,7 711,12 713,17 718,18 723,16 724,11" style="fill:#6b6b6b;stroke:black"/>
<polygon points="704,13 702,8 699,3 699,1 694,1" style="fill:#6b6b6b;stroke:black"/>
<polygon points="705,371 700,369 695,370 693,375 695,380 700,381 705,379 706,374" style="fill:#6b6b6b;stroke:black"/>
<polygon points="705,338 700,336 695,337 693,342 695,347 700,348 705,346 706,341" style="fill:#6b6b6b;stroke:black"/>
<polygon points="704,315 699,315 701,320" style="fill:#6b6b6b;stroke:black"/>
<polygon points="705,272 700,270 695,271 693,276 695,281 700,282 705,280 706,275" style="fill:#6b6b6b;stroke:black"/>
<polygon points="701,237 703,241 703,246 699,248 695,244 695,237 690,237 688,240 688,245 685,248 683,243 683,238 682,237 682,247 677,246 677,237 676,238 676,248 677,249 687,249 689,245 689,240" style="fill:#6b6b6b;stroke:black"/>
<polygon points="704,183 699,183 701,188" style="fill:#6b6b6b;stroke:black"/>
<polygon points="705,140 700,138 695,139 693,144 695,149 700,150 705,148 706,143" style="fill:#6b6b6b;stroke:black"/>
<polygon points="696,78 696,74 701,73 706,74 701,72 696,72 693,76 693,81 697,84 702,84 705,80 703,78" style="fill:#6b6b6b;stroke:black"/>
<polygon points="701,39 696,40 696,50 695,51 696,56 697,52 702,51" style="fill:#6b6b6b;stroke:black"/>
<polygon points="680,369 676,372 676,377 679,381 684,381 687,383 684,386 688,385 688,370 687,369" style="fill:#6b6b6b;stroke:black"/>
<polygon points="689,274 685,270 677,270 678,275 678,285 679,286 684,286 689,283 690,278" style="fill:#6b6b6b;stroke:black"/>
<polygon points="689,142 685,138 677,138 678,143 678,153 679,154 684,154 689,151 690,146" style="fill:#6b6b6b;stroke:black"/>
<polygon points="688,305 683,303 678,304 676,309 678,314 683,315 688,313 689,308" style="fill:#6b6b6b;stroke:black"/>
<polygon points="688,173 683,171 678,172 676,177 678,182 683,183 688,181 689,176" style="fill:#6b6b6b;stroke:black"/>
<polygon points="685,72 681,74 681,79 685,83" style="fill:#6b6b6b;stroke:black"/>
<polygon points="661,342 661,338 666,337 671,338 666,336 661,336 658,340 658,345 662,348 667,348 670,344 668,342" style="fill:#6b6b6b;stroke:black"/>
<polygon points="661,237 659,242 659,249 660,245 660,240 665,238 668,242 668,247 666,249 669,247 669,242 670,237" style="fill:#6b6b6b;stroke:black"/>
<polygon points="661,78 661,74 666,73 671,74 666,72 661,72 658,76 658,81 662,84 667,84 670,80 668,78" style="fill:#6b6b6b;stroke:black"/>
<polygon points="661,45 661,41 666,40 671,41 666,39 661,39 658,43 658,48 662,51 667,51 670,47 668,45" style="fill:#6b6b6b;stroke:black"/>
<polygon points="667,6 663,8 663,13 667,17" style="fill:#6b6b6b;stroke:black"/>
<polygon points="662,171 659,173 661,172 666,172 668,176 663,177 659,180 663,183 668,183 668,180 664,183 660,180 665,178 669,176 668,171" style="fill:#6b6b6b;stroke:black"/>
<polygon points="653,371 653,376 651,380 648,376 648,369 647,373 647,378 643,379 642,374 643,369 640,369 641,374 641,381 651,381 654,378 654,373 656,369" style="fill:#6b6b6b;stroke:black"/>
<polygon points="652,47 650,42 646,39 642,49 640,51 645,51 644,47 646,42 649,43 651,48 649,51 654,51" style="fill:#6b6b6b;stroke:black"/>
<polygon points="649,336 644,337 644,347 643,348 644,353 645,349 650,348" style="fill:#6b6b6b;stroke:black"/>
<polygon points="649,303 644,304 644,314 643,315 644,320 645,316 650,315" style="fill:#6b6b6b;stroke:black"/>
<polygon points="652,84 647,84 649,89" style="fill:#6b6b6b;stroke:black"/>
<polygon points="644,12 644,8 649,7 654,8 649,6 644,6 641,10 641,15 645,18 650,18 653,14 651,12" style="fill:#6b6b6b;stroke:black"/>
<polygon points="647,270 645,273 649,272" style="fill:#6b6b6b;stroke:black"/>
<polygon points="647,138 645,141 649,140" style="fill:#6b6b6b;stroke:black"/>
<polygon points="635,272 635,277 633,281 630,277 630,270 629,274 629,279 625,280 624,275 625,270 622,270 623,275 623,282 633,282 636,279 636,274 638,270" style="fill:#6b6b6b;stroke:black"/>
<polygon points="627,171 623,174 623,179 626,183 631,183 634,185 631,188 635,187 635,172 634,171" style="fill:#6b6b6b;stroke:black"/>
<polygon points="626,369 623,372 626,375 631,375 632,379 627,380 626,381 631,381 634,377 634,372 635,369" style="fill:#6b6b6b;stroke:black"/>
<polygon points="626,336 623,339 626,342 631,342 632,346 627,347 626,348 631,348 634,344 634,339 635,336" style="fill:#6b6b6b;stroke:black"/>
<polygon points="626,303 624,308 624,315 625,311 625,306 630,304 633,308 633,313 631,315 634,313 634,308 635,303" style="fill:#6b6b6b;stroke:black"/>
<polygon points="635,239 630,237 625,238 623,243 625,248 630,249 635,247 636,242" style="fill:#6b6b6b;stroke:black"/>
<polygon points="626,78 626,74 631,73 636,74 631,72 626,72 623,76 623,81 627,84 632,84 635,80 633,78" style="fill:#6b6b6b;stroke:black"/>
<polygon points="626,39 623,42 626,45 631,45 632,49 627,50 626,51 631,51 634,47 634,42 635,39" style="fill:#6b6b6b;stroke:black"/>
<polygon points="631,6 626,7 626,17 625,18 626,23 627,19 632,18" style="fill:#6b6b6b;stroke:black"/>
<polygon points="627,138 624,140 626,139 631,139 633,143 628,144 624,147 628,150 633,150 633,147 629,150 625,147 630,145 634,143 633,138" style="fill:#6b6b6b;stroke:black"/>
<polygon points="607,138 610,140 612,143 615,138" style="fill:#6b6b6b;stroke:black"/>
<polygon points="615,369 611,371 611,376 615,380" style="fill:#6b6b6b;stroke:black"/>
<polygon points="615,336 610,336 606,340 607,345 611,348 616,348 618,345 613,348 608,345 607,340 612,336 617,338 617,337" style="fill:#6b6b6b;stroke:black"/>
<polygon points="619,306 614,303 609,304 608,299 609,298 604,298 607,301 607,311 605,315" style="fill:#6b6b6b;stroke:black"/>
<polygon points="609,270 606,273 609,276 614,276 615,280 610,281 609,282 614,282 617,278 617,273 618,270" style="fill:#6b6b6b;stroke:black"/>
<polygon points="615,237 610,237 606,241 607,246 611,249 616,249 618,246 613,249 608,246 607,241 612,237 617,239 617,238" style="fill:#6b6b6b;stroke:black"/>
<polygon points="615,72 611,74 611,79 615,83" style="fill:#6b6b6b;stroke:black"/>
<polygon points="614,39 616,43 616,48 612,50 608,46 608,39 607,40 607,55 608,56 608,51 613,51 617,48 617,43 619,39" style="fill:#6b6b6b;stroke:black"/>
<polygon points="617,18 612,18 614,23" style="fill:#6b6b6b;stroke:black"/>
<polygon points="599,378 599,368 596,364 591,364" style="fill:#6b6b6b;stroke:black"/>
<polygon points="596,303 591,304 591,314 590,315 591,320 592,316 597,315" style="fill:#6b6b6b;stroke:black"/>
<polygon points="597,270 593,272 593,277 597,281" style="fill:#6b6b6b;stroke:black"/>
<polygon points="591,144 591,140 596,139 601,140 596,138 591,138 588,142 588,147 592,150 597,150 600,146 598,144" style="fill:#6b6b6b;stroke:black"/>
<polygon points="601,75 596,72 591,73 590,68 591,67 586,67 589,70 589,80 587,84" style="fill:#6b6b6b;stroke:black"/>
<polygon points="591,6 588,9 591,12 596,12 597,16 592,17 591,18 596,18 599,14 599,9 600,6" style="fill:#6b6b6b;stroke:black"/>
<polygon points="594,204 592,207 596,206" style="fill:#6b6b6b;stroke:black"/>
<polygon points="582,279 582,269 579,265 574,265" style="fill:#6b6b6b;stroke:black"/>
<polygon points="582,244 580,239 577,234 577,232 572,232" style="fill:#6b6b6b;stroke:black"/>
<polygon points="583,371 578,369 573,370 571,375 573,380 578,381 583,379 584,374" style="fill:#6b6b6b;stroke:black"/>
<polygon points="574,303 572,308 572,315 573,311 573,306 578,304 581,308 581,313 579,315 582,313 582,308 583,303" style="fill:#6b6b6b;stroke:black"/>
<polygon points="579,204 574,205 574,215 573,216 574,221 575,217 580,216" style="fill:#6b6b6b;stroke:black"/>
<polygon points="574,171 572,176 572,183 573,179 573,174 578,172 581,176 581,181 579,183 582,181 582,176 583,171" style="fill:#6b6b6b;stroke:black"/>
<polygon points="574,144 574,140 579,139 584,140 579,138 574,138 571,142 571,147 575,150 580,150 583,146 581,144" style="fill:#6b6b6b;stroke:black"/>
<polygon points="574,39 572,44 572,51 573,47 573,42 578,40 581,44 581,49 579,51 582,49 582,44 583,39" style="fill:#6b6b6b;stroke:black"/>
<polygon points="565,145 564,140 561,140 558,141 555,138 553,148 553,150 554,149 555,144 557,143 560,146 563,143 564,148 564,150 565,148" style="fill:#6b6b6b;stroke:black"/>
<polygon points="562,369 558,371 558,376 562,380" style="fill:#6b6b6b;stroke:black"/>
<polygon points="566,339 561,336 556,337 555,332 556,331 551,331 554,334 554,344 552,348" style="fill:#6b6b6b;stroke:black"/>
<polygon points="565,305 560,303 555,304 553,309 555,314 560,315 565,313 566,308" style="fill:#6b6b6b;stroke:black"/>
<polygon points="565,272 560,270 555,271 553,276 555,281 560,282 565,280 566,275" style="fill:#6b6b6b;stroke:black"/>
<polygon points="556,204 554,209 554,216 555,212 555,207 560,205 563,209 563,214 561,216 564,214 564,209 565,204" style="fill:#6b6b6b;stroke:black"/>
<polygon points="566,174 561,171 556,172 551,171 554,174 554,184 552,188" style="fill:#6b6b6b;stroke:black"/>
<polygon points="561,72 563,76 563,81 559,83 555,79 555,72 554,73 554,83 555,84 560,84 564,82 564,77 565,72" style="fill:#6b6b6b;stroke:black"/>
<polygon points="565,41 560,39 555,40 553,45 555,50 560,51 565,49 566,44" style="fill:#6b6b6b;stroke:black"/>
<polygon points="561,6 556,7 556,17 555,18 556,23 557,19 562,18" style="fill:#6b6b6b;stroke:black"/>
<polygon points="548,338 548,343 546,347 543,343 543,336 542,340 542,345 538,346 537,341 538,336 535,336 536,341 536,348 546,348 549,345 549,340 551,336" style="fill:#6b6b6b;stroke:black"/>
<polygon points="547,46 545,41 542,36 542,34 537,34" style="fill:#6b6b6b;stroke:black"/>
<polygon points="549,372 544,369 539,370 538,365 539,364 534,364 537,367 537,377 535,381" style="fill:#6b6b6b;stroke:black"/>
<polygon points="545,270 541,272 541,277 545,281" style="fill:#6b6b6b;stroke:black"/>
<polygon points="544,237 539,238 539,248 538,249 539,254 540,250 545,249" style="fill:#6b6b6b;stroke:black"/>
<polygon points="549,207 544,204 539,205 538,200 539,199 534,199 537,202 537,212 535,216" style="fill:#6b6b6b;stroke:black"/>
<polygon points="539,6 537,11 537,18 538,14 538,9 543,7 546,11 546,16 544,18 547,16 547,11 548,6" style="fill:#6b6b6b;stroke:black"/>
<polygon points="522,171 518,174 518,179 521,183 526,183 529,185 526,188 530,187 530,172 529,171" style="fill:#6b6b6b;stroke:black"/>
<polygon points="530,338 525,336 520,337 518,342 520,347 525,348 530,346 531,341" style="fill:#6b6b6b;stroke:black"/>
<polygon points="521,309 521,305 526,304 531,305 526,303 521,303 518,307 518,312 522,315 527,315 530,311 528,309" style="fill:#6b6b6b;stroke:black"/>
<polygon points="531,273 526,270 521,271 520,266 521,265 516,265 519,268 519,278 517,282" style="fill:#6b6b6b;stroke:black"/>
<polygon points="526,237 528,241 528,246 524,248 520,244 520,237 519,238 519,248 520,249 525,249 529,247 529,242 530,237" style="fill:#6b6b6b;stroke:black"/>
<polygon points="526,204 528,208 528,213 524,215 520,211 520,204 519,205 519,215 520,216 525,216 529,214 529,209 530,204" style="fill:#6b6b6b;stroke:black"/>
<polygon points="526,138 528,142 528,147 524,149 520,145 520,138 519,139 519,149 520,150 525,150 529,148 529,143 530,138" style="fill:#6b6b6b;stroke:black"/>
<polygon points="530,8 525,6 520,7 518,12 520,17 525,18 530,16 531,11" style="fill:#6b6b6b;stroke:black"/>
<polygon points="509,369 511,373 511,378 507,380 503,376 503,369 502,370 502,385 503,386 503,381 508,381 512,378 512,373 514,369" style="fill:#6b6b6b;stroke:black"/>
<polygon points="510,336 505,336 501,340 502,345 506,348 511,348 513,345 508,348 503,345 502,340 507,336 512,338 512,337" style="fill:#6b6b6b;stroke:black"/>
<polygon points="509,303 511,307 511,312 507,314 503,310 503,303 502,304 502,319 503,320 503,315 508,315 512,312 512,307 514,303" style="fill:#6b6b6b;stroke:black"/>
<polygon points="504,243 504,239 509,238 514,239 509,237 504,237 501,241 501,246 505,249 510,249 513,245 511,243" style="fill:#6b6b6b;stroke:black"/>
<polygon points="509,171 511,175 511,180 507,182 503,178 503,171 502,172 502,182 503,183 508,183 512,181 512,176 513,171" style="fill:#6b6b6b;stroke:black"/>
<polygon points="512,51 507,51 509,56" style="fill:#6b6b6b;stroke:black"/>
<polygon points="505,72 502,74 504,73 509,73 511,77 506,78 502,81 506,84 511,84 511,81 507,84 503,81 508,79 512,77 511,72" style="fill:#6b6b6b;stroke:black"/>
<polygon points="507,105 505,108 509,107" style="fill:#6b6b6b;stroke:black"/>
<polygon points="495,107 495,112 493,116 490,112 490,105 489,109 489,114 485,115 484,110 485,105 482,105 483,110 483,117 493,117 496,114 496,109 498,105" style="fill:#6b6b6b;stroke:black"/>
<polygon points="495,8 495,13 493,17 490,13 490,6 489,10 489,15 485,16 484,11 485,6 482,6 483,11 483,18 493,18 496,15 496,10 498,6" style="fill:#6b6b6b;stroke:black"/>
<polygon points="494,246 494,236 491,232 486,232" style="fill:#6b6b6b;stroke:black"/>
<polygon points="492,369 487,369 483,373 484,378 488,381 493,381 495,378 490,381 485,378 484,373 489,369 494,371 494,370" style="fill:#6b6b6b;stroke:black"/>
<polygon points="491,303 486,304 486,314 485,315 486,320 487,316 492,315" style="fill:#6b6b6b;stroke:black"/>
<polygon points="486,171 483,174 486,177 491,177 492,181 487,182 486,183 491,183 494,179 494,174 495,171" style="fill:#6b6b6b;stroke:black"/>
<polygon points="491,138 493,142 493,147 489,149 485,145 485,138 484,139 484,154 485,155 485,150 490,150 494,147 494,142 496,138" style="fill:#6b6b6b;stroke:black"/>
<polygon points="488,269 485,267 486,272 490,274 488,270" style="fill:#6b6b6b;stroke:black"/>
<polygon points="469,369 466,372 469,375 474,375 475,379 470,380 469,381 474,381 477,377 477,372 478,369" style="fill:#6b6b6b;stroke:black"/>
<polygon points="474,336 476,340 476,345 472,347 468,343 468,336 467,337 467,347 468,348 473,348 477,346 477,341 478,336" style="fill:#6b6b6b;stroke:black"/>
<polygon points="474,270 476,274 476,279 472,281 468,277 468,270 467,271 467,281 468,282 473,282 477,280 477,275 478,270" style="fill:#6b6b6b;stroke:black"/>
<polygon points="474,237 476,241 476,246 472,248 468,244 468,237 467,238 467,248 468,249 473,249 477,247 477,242 478,237" style="fill:#6b6b6b;stroke:black"/>
<polygon points="469,210 469,206 474,205 479,206 474,204 469,204 466,208 466,213 470,216 475,216 478,212 476,210" style="fill:#6b6b6b;stroke:black"/>
<polygon points="474,138 469,139 469,149 468,150 469,155 470,151 475,150" style="fill:#6b6b6b;stroke:black"/>
<polygon points="469,111 469,107 474,106 479,107 474,105 469,105 466,109 466,114 470,117 475,117 478,113 476,111" style="fill:#6b6b6b;stroke:black"/>
<polygon points="478,74 473,72 468,73 466,78 468,83 473,84 478,82 479,77" style="fill:#6b6b6b;stroke:black"/>
<polygon points="469,12 469,8 474,7 479,8 474,6 469,6 466,10 466,15 470,18 475,18 478,14 476,12" style="fill:#6b6b6b;stroke:black"/>
<polygon points="460,277 459,272 456,272 453,273 450,270 448,280 448,282 449,281 450,276 452,275 455,278 458,275 459,280 459,282 460,280" style="fill:#6b6b6b;stroke:black"/>
<polygon points="459,212 457,207 453,204 449,214 447,216 452,216 451,212 453,207 456,208 458,213 456,216 461,216" style="fill:#6b6b6b;stroke:black"/>
<polygon points="451,375 451,371 456,370 461,371 456,369 451,369 448,373 448,378 452,381 457,381 460,377 458,375" style="fill:#6b6b6b;stroke:black"/>
<polygon points="451,336 448,339 451,342 456,342 457,346 452,347 451,348 456,348 459,344 459,339 460,336" style="fill:#6b6b6b;stroke:black"/>
<polygon points="456,303 451,304 451,314 450,315 451,320 452,316 457,315" style="fill:#6b6b6b;stroke:black"/>
<polygon points="456,171 458,175 458,180 454,182 450,178 450,171 449,172 449,182 450,183 455,183 459,181 459,176 460,171" style="fill:#6b6b6b;stroke:black"/>
<polygon points="456,105 458,109 458,114 454,116 450,112 450,105 449,106 449,121 450,122 450,117 455,117 459,114 459,109 461,105" style="fill:#6b6b6b;stroke:black"/>
<polygon points="460,74 455,72 450,73 448,78 450,83 455,84 460,82 461,77" style="fill:#6b6b6b;stroke:black"/>
<polygon points="456,39 458,43 458,48 454,50 450,46 450,39 449,40 449,50 450,51 455,51 459,49 459,44 460,39" style="fill:#6b6b6b;stroke:black"/>
<polygon points="456,6 458,10 458,15 454,17 450,13 450,6 449,7 449,22 450,23 450,18 455,18 459,15 459,10 461,6" style="fill:#6b6b6b;stroke:black"/>
<polygon points="442,180 442,170 439,166 434,166" style="fill:#6b6b6b;stroke:black"/>
<polygon points="443,145 442,140 439,140 436,141 433,138 431,148 431,150 432,149 433,144 435,143 438,146 441,143 442,148 442,150 443,148" style="fill:#6b6b6b;stroke:black"/>
<polygon points="439,336 441,340 441,345 437,347 433,343 433,336 432,337 432,352 433,353 433,348 438,348 442,345 442,340 444,336" style="fill:#6b6b6b;stroke:black"/>
<polygon points="440,303 435,303 431,307 432,312 436,315 441,315 443,312 438,315 433,312 432,307 437,303 442,305 442,304" style="fill:#6b6b6b;stroke:black"/>
<polygon points="443,272 438,270 433,271 431,276 433,281 438,282 443,280 444,275" style="fill:#6b6b6b;stroke:black"/>
<polygon points="440,237 436,239 436,244 440,248" style="fill:#6b6b6b;stroke:black"/>
<polygon points="439,105 434,106 434,116 433,117 434,122 435,118 440,117" style="fill:#6b6b6b;stroke:black"/>
<polygon points="439,72 434,73 434,83 433,84 434,89 435,85 440,84" style="fill:#6b6b6b;stroke:black"/>
<polygon points="434,45 434,41 439,40 444,41 439,39 434,39 431,43 431,48 435,51 440,51 443,47 441,45" style="fill:#6b6b6b;stroke:black"/>
<polygon points="439,6 434,7 434,17 433,18 434,23 435,19 440,18" style="fill:#6b6b6b;stroke:black"/>
<polygon points="424,47 422,42 418,39 414,49 412,51 417,51 416,47 418,42 421,43 423,48 421,51 426,51" style="fill:#6b6b6b;stroke:black"/>
<polygon points="416,375 416,371 421,370 426,371 421,369 416,369 413,373 413,378 417,381 422,381 425,377 423,375" style="fill:#6b6b6b;stroke:black"/>
<polygon points="421,336 416,337 416,347 415,348 416,353 417,349 422,348" style="fill:#6b6b6b;stroke:black"/>
<polygon points="416,309 416,305 421,304 426,305 421,303 416,303 413,307 413,312 417,315 422,315 425,311 423,309" style="fill:#6b6b6b;stroke:black"/>
<polygon points="421,270 423,274 423,279 419,281 415,277 415,270 414,271 414,281 415,282 420,282 424,280 424,275 425,270" style="fill:#6b6b6b;stroke:black"/>
<polygon points="421,237 416,238 416,248 415,249 416,254 417,250 422,249" style="fill:#6b6b6b;stroke:black"/>
<polygon points="421,204 416,205 416,215 415,216 416,221 417,217 422,216" style="fill:#6b6b6b;stroke:black"/>
<polygon points="397,369 400,371 402,374 405,369" style="fill:#6b6b6b;stroke:black"/>
<polygon points="397,270 400,272 402,275 405,270" style="fill:#6b6b6b;stroke:black"/>
<polygon points="407,145 405,140 402,135 402,133 397,133" style="fill:#6b6b6b;stroke:black"/>
<polygon points="400,105 396,108 396,113 399,117 404,117 407,119 404,122 408,121 408,106 407,105" style="fill:#6b6b6b;stroke:black"/>
<polygon points="409,306 404,303 399,304 398,299 399,298 394,298 397,301 397,311 395,315" style="fill:#6b6b6b;stroke:black"/>
<polygon points="405,204 400,204 396,208 397,213 401,216 406,216 408,213 403,216 398,213 397,208 402,204 407,206 407,205" style="fill:#6b6b6b;stroke:black"/>
<polygon points="399,78 399,74 404,73 409,74 404,72 399,72 396,76 396,81 400,84 405,84 408,80 406,78" style="fill:#6b6b6b;stroke:black"/>
<polygon points="399,45 399,41 404,40 409,41 404,39 399,39 396,43 396,48 400,51 405,51 408,47 406,45" style="fill:#6b6b6b;stroke:black"/>
<polygon points="407,18 402,18 404,23" style="fill:#6b6b6b;stroke:black"/>
<polygon points="400,237 397,239 399,238 404,238 406,242 401,243 397,246 401,249 406,249 406,246 402,249 398,246 403,244 407,242 406,237" style="fill:#6b6b6b;stroke:black"/>
<polygon points="400,171 397,173 399,172 404,172 406,176 401,177 397,180 401,183 406,183 406,180 402,183 398,180 403,178 407,176 406,171" style="fill:#6b6b6b;stroke:black"/>
<polygon points="381,369 378,372 381,375 386,375 387,379 382,380 381,381 386,381 389,377 389,372 390,369" style="fill:#6b6b6b;stroke:black"/>
<polygon points="387,336 383,338 383,343 387,347" style="fill:#6b6b6b;stroke:black"/>
<polygon points="386,310 389,305 388,303 387,305 382,306 381,303 378,304 383,309 379,314 382,315 385,311 386,315 391,315" style="fill:#6b6b6b;stroke:black"/>
<polygon points="386,270 388,274 388,279 384,281 380,277 380,270 379,271 379,281 380,282 385,282 389,280 389,275 390,270" style="fill:#6b6b6b;stroke:black"/>
<polygon points="381,204 378,207 381,210 386,210 387,214 382,215 381,216 386,216 389,212 389,207 390,204" style="fill:#6b6b6b;stroke:black"/>
<polygon points="381,177 381,173 386,172 391,173 386,171 381,171 378,175 378,180 382,183 387,183 390,179 388,177" style="fill:#6b6b6b;stroke:black"/>
<polygon points="390,8 385,6 380,7 378,12 380,17 385,18 390,16 391,11" style="fill:#6b6b6b;stroke:black"/>
<polygon points="382,72 379,74 381,73 386,73 388,77 383,78 379,81 383,84 388,84 388,81 384,84 380,81 385,79 389,77 388,72" style="fill:#6b6b6b;stroke:black"/>
<polygon points="365,237 361,240 361,245 364,249 369,249 372,251 369,254 373,253 373,238 372,237" style="fill:#6b6b6b;stroke:black"/>
<polygon points="374,175 370,171 362,171 363,176 363,186 364,187 369,187 374,184 375,179" style="fill:#6b6b6b;stroke:black"/>
<polygon points="373,84 373,79 372,74 367,72 362,74 362,84 360,88 365,88" style="fill:#6b6b6b;stroke:black"/>
<polygon points="364,342 364,338 369,337 374,338 369,336 364,336 361,340 361,345 365,348 370,348 373,344 371,342" style="fill:#6b6b6b;stroke:black"/>
<polygon points="373,303 363,303 362,304 362,314 361,319" style="fill:#6b6b6b;stroke:black"/>
<polygon points="364,270 362,275 362,282 363,278 363,273 368,271 371,275 371,280 369,282 372,280 372,275 373,270" style="fill:#6b6b6b;stroke:black"/>
<polygon points="370,204 366,206 366,211 370,215" style="fill:#6b6b6b;stroke:black"/>
<polygon points="366,38 363,36 364,41 368,43 366,39" style="fill:#6b6b6b;stroke:black"/>
<polygon points="344,39 347,41 349,44 352,39" style="fill:#6b6b6b;stroke:black"/>
<polygon points="351,336 353,340 353,345 349,347 345,343 345,336 344,337 344,352 345,353 345,348 350,348 354,345 354,340 356,336" style="fill:#6b6b6b;stroke:black"/>
<polygon points="346,210 346,206 351,205 356,206 351,204 346,204 343,208 343,213 347,216 352,216 355,212 353,210" style="fill:#6b6b6b;stroke:black"/>
<polygon points="346,138 343,141 346,144 351,144 352,148 347,149 346,150 351,150 354,146 354,141 355,138" style="fill:#6b6b6b;stroke:black"/>
<polygon points="346,105 344,110 344,117 345,113 345,108 350,106 353,110 353,115 351,117 354,115 354,110 355,105" style="fill:#6b6b6b;stroke:black"/>
<polygon points="346,12 346,8 351,7 356,8 351,6 346,6 343,10 343,15 347,18 352,18 355,14 353,12" style="fill:#6b6b6b;stroke:black"/>
<polygon points="338,8 338,13 336,17 333,13 333,6 332,10 332,15 328,16 327,11 328,6 325,6 326,11 326,18 336,18 339,15 339,10 341,6" style="fill:#6b6b6b;stroke:black"/>
<polygon points="334,336 329,337 329,347 328,348 329,353 330,349 335,348" style="fill:#6b6b6b;stroke:black"/>
<polygon points="334,270 329,271 329,281 328,282 329,287 330,283 335,282" style="fill:#6b6b6b;stroke:black"/>
<polygon points="338,239 333,237 328,238 326,243 328,248 333,249 338,247 339,242" style="fill:#6b6b6b;stroke:black"/>
<polygon points="334,204 329,205 329,215 328,216 329,221 330,217 335,216" style="fill:#6b6b6b;stroke:black"/>
<polygon points="329,144 329,140 334,139 339,140 334,138 329,138 326,142 326,147 330,150 335,150 338,146 336,144" style="fill:#6b6b6b;stroke:black"/>
<polygon points="339,108 334,105 329,106 324,105 327,108 327,118 325,122" style="fill:#6b6b6b;stroke:black"/>
<polygon points="330,39 327,41 329,40 334,40 336,44 331,45 327,48 331,51 336,51 336,48 332,51 328,48 333,46 337,44 336,39" style="fill:#6b6b6b;stroke:black"/>
<polygon points="319,245 317,240 313,237 309,247 307,249 312,249 311,245 313,240 316,241 318,246 316,249 321,249" style="fill:#6b6b6b;stroke:black"/>
<polygon points="312,138 308,141 308,146 311,150 316,150 319,152 316,155 320,154 320,139 319,138" style="fill:#6b6b6b;stroke:black"/>
<polygon points="311,336 308,339 311,342 316,342 317,346 312,347 311,348 316,348 319,344 319,339 320,336" style="fill:#6b6b6b;stroke:black"/>
<polygon points="311,276 311,272 316,271 321,272 316,270 311,270 308,274 308,279 312,282 317,282 320,278 318,276" style="fill:#6b6b6b;stroke:black"/>
<polygon points="316,204 318,208 318,213 314,215 310,211 310,204 309,205 309,215 310,216 315,216 319,214 319,209 320,204" style="fill:#6b6b6b;stroke:black"/>
<polygon points="311,111 311,107 316,106 321,107 316,105 311,105 308,109 308,114 312,117 317,117 320,113 318,111" style="fill:#6b6b6b;stroke:black"/>
<polygon points="311,39 308,42 311,45 316,45 317,49 312,50 311,51 316,51 319,47 319,42 320,39" style="fill:#6b6b6b;stroke:black"/>
<polygon points="320,8 315,6 310,7 308,12 310,17 315,18 320,16 321,11" style="fill:#6b6b6b;stroke:black"/>
<polygon points="301,277 299,272 296,267 296,265 291,265" style="fill:#6b6b6b;stroke:black"/>
<polygon points="299,336 295,338 295,343 299,347" style="fill:#6b6b6b;stroke:black"/>
<polygon points="299,105 295,107 295,112 299,116" style="fill:#6b6b6b;stroke:black"/>
<polygon points="298,39 293,40 293,50 292,51 293,56 294,52 299,51" style="fill:#6b6b6b;stroke:black"/>
<polygon points="294,6 291,8 293,7 298,7 300,11 295,12 291,15 295,18 300,18 300,15 296,18 292,15 297,13 301,11 300,6" style="fill:#6b6b6b;stroke:black"/>
<polyline points="1080,593 684,386 656,369 611,348 478,270 440,248 421,237 370,215 356,206 80,47" style="stroke:#000080;stroke-width:3;fill:none"/>
<polyline points="1080,593 684,386 656,369 611,348 478,270 440,248 421,237 370,215 356,206 80,47" style="stroke:#000080;stroke-width:3;fill:none"/>
<polyline points="1080,593 684,386 656,369 611,348 478,270 440,248 421,237 370,215 356,206 80,47" style="stroke:#000080;stroke-width:3;fill:none"/>
<polyline points="1080,593 684,386 656,369 611,348 478,270 440,248 421,237 370,215 356,206 80,47" style="stroke:#000080;stroke-width:3;fill:none"/>
<polyline points="1080,593 684,386 656,369 611,348 478,270 440,248 421,237 370,215 356,206 80,47" style="stroke:#000080;stroke-width:3;fill:none"/>
<polyline points="1080,593 684,386 656,369 611,348 478,270 440,248 421,237 370,215 356,206 80,47" style="stroke:#000080;stroke-width:3;fill:none"/>
<polyline points="1080,593 684,386 656,369 611,348 478,270 440,248 421,237 370,215 356,206 80,47" style="stroke:#000080;stroke-width:3;fill:none"/>
<polyline points="1080,593 684,386 656,369 611,348 478,270 440,248 421,237 370,215 356,206 80,47" style="stroke:#000080;stroke-width:3;fill:none"/>
<circle cx="1080" cy="593" r="10" style="stroke:black;fill:red"/>
<rect x="2" y="-10" width="78" height="613" style="stroke:black;fill:#B3B3B3;stroke-width:4"/>
<line x1="40" y1="0" x2="40" y2="593" style="stroke:black;stroke-dasharray:25,25;stroke-width:3"/>
</svg>