<?xml version="1.0" encoding="UTF-8"?>
<!-- Generated by SVGo -->
<svg width="714" height="501" xmlns="http://www.w3.org/2000/svg" xmlns:xlink="http://www.w3.org/1999/xlink">
<rect x="0" y="0" width="714" height="501" style="fill:#CCFFCC"/>
<line x1="713" y1="312" x2="585" y2="288" style="stroke:#55aadd;stroke-width:3"/>
<line x1="713" y1="312" x2="631" y2="172" style="stroke:#55aadd;stroke-width:3"/>
<line x1="713" y1="312" x2="674" y2="405" style="stroke:#55aadd;stroke-width:3"/>
<line x1="713" y1="312" x2="605" y2="313" style="stroke:#55aadd;stroke-width:3"/>
<line x1="470" y1="241" x2="585" y2="288" style="stroke:#55aadd;stroke-width:3"/>
<line x1="470" y1="241" x2="493" y2="57" style="stroke:#55aadd;stroke-width:3"/>
<line x1="470" y1="241" x2="605" y2="313" style="stroke:#55aadd;stroke-width:3"/>
<line x1="470" y1="241" x2="467" y2="336" style="stroke:#55aadd;stroke-width:3"/>
<line x1="470" y1="241" x2="420" y2="351" style="stroke:#55aadd;stroke-width:3"/>
<line x1="470" y1="241" x2="411" y2="214" style="stroke:#55aadd;stroke-width:3"/>
<line x1="470" y1="241" x2="250" y2="99" style="stroke:#55aadd;stroke-width:3"/>
<line x1="585" y1="288" x2="631" y2="172" style="stroke:#55aadd;stroke-width:3"/>
<line x1="585" y1="288" x2="605" y2="313" style="stroke:#55aadd;stroke-width:3"/>
<line x1="585" y1="288" x2="467" y2="336" style="stroke:#55aadd;stroke-width:3"/>
<line x1="585" y1="288" x2="420" y2="351" style="stroke:#55aadd;stroke-width:3"/>
<line x1="631" y1="172" x2="493" y2="57" style="stroke:#55aadd;stroke-width:3"/>
<line x1="631" y1="172" x2="674" y2="405" style="stroke:#55aadd;stroke-width:3"/>
<line x1="631" y1="172" x2="605" y2="313" style="stroke:#55aadd;stroke-width:3"/>
<line x1="493" y1="57" x2="420" y2="351" style="stroke:#55aadd;stroke-width:3"/>
<line x1="493" y1="57" x2="411" y2="214" style="stroke:#55aadd;stroke-width:3"/>
<line x1="493" y1="57" x2="250" y2="99" style="stroke:#55aadd;stroke-width:3"/>
<line x1="490" y1="451" x2="513" y2="451" style="stroke:#55aadd;stroke-width:3"/>
<line x1="490" y1="451" x2="467" y2="336" style="stroke:#55aadd;stroke-width:3"/>
<line x1="490" y1="451" x2="250" y2="421" style="stroke:#55aadd;stroke-width:3"/>
<line x1="490" y1="451" x2="273" y2="421" style="stroke:#55aadd;stroke-width:3"/>
<line x1="490" y1="451" x2="420" y2="351" style="stroke:#55aadd;stroke-width:3"/>
<line x1="490" y1="451" x2="411" y2="214" style="stroke:#55aadd;stroke-width:3"/>
<line x1="513" y1="451" x2="674" y2="405" style="stroke:#55aadd;stroke-width:3"/>
<line x1="674" y1="405" x2="605" y2="313" style="stroke:#55aadd;stroke-width:3"/>
<line x1="605" y1="313" x2="467" y2="336" style="stroke:#55aadd;stroke-width:3"/>
<line x1="605" y1="313" x2="411" y2="214" style="stroke:#55aadd;stroke-width:3"/>
<line x1="467" y1="336" x2="273" y2="421" style="stroke:#55aadd;stroke-width:3"/>
<line x1="467" y1="336" x2="420" y2="351" style="stroke:#55aadd;stroke-width:3"/>
<line x1="467" y1="336" x2="411" y2="214" style="stroke:#55aadd;stroke-width:3"/>
<line x1="250" y1="421" x2="273" y2="421" style="stroke:#55aadd;stroke-width:3"/>
<line x1="250" y1="421" x2="250" y2="99" style="stroke:#55aadd;stroke-width:3"/>
<line x1="273" y1="421" x2="420" y2="351" style="stroke:#55aadd;stroke-width:3"/>
<line x1="420" y1="351" x2="411" y2="214" style="stroke:#55aadd;stroke-width:3"/>
<line x1="411" y1="214" x2="250" y2="99" style="stroke:#55aadd;stroke-width:3"/>
<polygon points="470,241 585,288 631,172 493,57" style="fill:#6b6b6b;stroke:black"/>
<polygon points="490,451 513,451 674,405 605,313 467,336" style="fill:#6b6b6b;stroke:black"/>
<polygon points="250,421 273,421 420,351 411,214 250,99" style="fill:#6b6b6b;stroke:black"/>
<circle cx="713" cy="312" r="10" style="stroke:black;fill:red"/>
<rect x="2" y="-10" width="78" height="521" style="stroke:black;fill:#B3B3B3;stroke-width:4"/>
<line x1="40" y1="0" x2="40" y2="501" style="stroke:black;stroke-dasharray:25,25;stroke-width:3"/>
</svg>