<?xml version="1.0" encoding="UTF-8"?>
<!-- Generated by SVGo -->
<svg width="714" height="501" xmlns="http://www.w3.org/2000/svg" xmlns:xlink="http://www.w3.org/1999/xlink">
<rect x="0" y="0" width="714" height="501" style="fill:#CCFFCC"/>
<polygon points="470,241 585,288 631,172 493,57" style="fill:#6b6b6b;stroke:black"/>
<polygon points="490,451 513,451 674,405 605,313 467,336" style="fill:#6b6b6b;stroke:black"/>
<polygon points="250,421 273,421 420,351 411,214 250,99" style="fill:#6b6b6b;stroke:black"/>
<polyline points="713,312 585,288 470,241 250,99 80,1" style="stroke:#000080;stroke-width:3;fill:none"/>
<polyline points="713,312 585,288 470,241 250,99 80,1" style="stroke:#000080;stroke-width:3;fill:none"/>
<polyline points="713,312 585,288 470,241 250,99 80,1" style="stroke:#000080;stroke-width:3;fill:none"/>
<circle cx="713" cy="312" r="10" style="stroke:black;fill:red"/>
<rect x="2" y="-10" width="78" height="521" style="stroke:black;fill:#B3B3B3;stroke-width:4"/>
<line x1="40" y1="0" x2="40" y2="501" style="stroke:black;stroke-dasharray:25,25;stroke-width:3"/>
</svg>