<?xml version="1.0" encoding="UTF-8"?>
<!-- Generated by SVGo -->
<svg width="1101" height="993" xmlns="http://www.w3.org/2000/svg" xmlns:xlink="http://www.w3.org/1999/xlink">
<rect x="0" y="0" width="1101" height="993" style="fill:#CCFFCC"/>
<polygon points="201,954 370,966 364,907 236,883 201,905" style="fill:#6b6b6b;stroke:black"/>
<polygon points="213,787 282,849 334,823 358,769 281,799 236,735" style="fill:#6b6b6b;stroke:black"/>
<polygon points="288,760 356,740 445,713 242,595 327,692 240,703" style="fill:#6b6b6b;stroke:black"/>
<polygon points="250,572 466,695 464,521" style="fill:#6b6b6b;stroke:black"/>
<polygon points="488,696 508,696 645,794 493,518" style="fill:#6b6b6b;stroke:black"/>
<polygon points="380,873 520,833 462,766 400,792" style="fill:#6b6b6b;stroke:black"/>
<polygon points="403,959 520,973 388,908" style="fill:#6b6b6b;stroke:black"/>
<polygon points="580,973 580,853 456,890" style="fill:#6b6b6b;stroke:black"/>
<polygon points="620,973 680,953 680,893 820,893 780,653 740,653 740,853 620,853" style="fill:#6b6b6b;stroke:black"/>
<polygon points="660,753 713,591 976,518 588,527" style="fill:#6b6b6b;stroke:black"/>
<polygon points="860,853 1100,853 1100,513 1040,513 1040,793 880,793 853,692 980,693 980,653 820,653" style="fill:#6b6b6b;stroke:black"/>
<polyline points="936,723 936,723 936,723 936,723 936,723 936,723 936,723 936,723 936,723 936,723 936,723 936,723 936,723 936,723 936,723 936,723 936,723 936,723 936,723 936,723 936,723 936,723 936,723 936,723 936,723 936,723 936,723 936,723 936,723 936,723 936,723 936,723 936,723 936,723 936,723 936,723 936,723 936,723 936,723 936,723 936,723 936,723 936,723 936,723 936,723 980,693 980,653 976,518 80,1" style="stroke:#000080;stroke-width:3;fill:none"/>
<polyline points="936,723 936,723 936,723 936,723 936,723 936,723 936,723 936,723 936,723 936,723 936,723 936,723 936,723 936,723 936,723 936,723 936,723 936,723 936,723 936,723 936,723 936,723 936,723 936,723 936,723 936,723 936,723 936,723 936,723 936,723 936,723 936,723 936,723 936,723 936,723 936,723 936,723 936,723 936,723 936,723 936,723 936,723 936,723 936,723 936,723 980,693 980,653 976,518 80,1" style="stroke:#000080;stroke-width:3;fill:none"/>
<polyline points="936,723 936,723 936,723 936,723 936,723 936,723 936,723 936,723 936,723 936,723 936,723 936,723 936,723 936,723 936,723 936,723 936,723 936,723 936,723 936,723 936,723 936,723 936,723 936,723 936,723 936,723 936,723 936,723 936,723 936,723 936,723 936,723 936,723 936,723 936,723 936,723 936,723 936,723 936,723 936,723 936,723 936,723 936,723 936,723 936,723 980,693 980,653 976,518 80,1" style="stroke:#000080;stroke-width:3;fill:none"/>
<polyline points="936,723 936,723 936,723 936,723 936,723 936,723 936,723 936,723 936,723 936,723 936,723 936,723 936,723 936,723 936,723 936,723 936,723 936,723 936,723 936,723 936,723 936,723 936,723 936,723 936,723 936,723 936,723 936,723 936,723 936,723 936,723 936,723 936,723 936,723 936,723 936,723 936,723 936,723 936,723 936,723 936,723 936,723 936,723 936,723 936,723 980,693 980,653 976,518 80,1" style="stroke:#000080;stroke-width:3;fill:none"/>
<polyline points="936,723 936,723 936,723 936,723 936,723 936,723 936,723 936,723 936,723 936,723 936,723 936,723 936,723 936,723 936,723 936,723 936,723 936,723 936,723 936,723 936,723 936,723 936,723 936,723 936,723 936,723 936,723 936,723 936,723 936,723 936,723 936,723 936,723 936,723 936,723 936,723 936,723 936,723 936,723 936,723 936,723 936,723 936,723 936,723 936,723 980,693 980,653 976,518 80,1" style="stroke:#000080;stroke-width:3;fill:none"/>
<polyline points="936,723 936,723 936,723 936,723 936,723 936,723 936,723 936,723 936,723 936,723 936,723 936,723 936,723 936,723 936,723 936,723 936,723 936,723 936,723 936,723 936,723 936,723 936,723 936,723 936,723 936,723 936,723 936,723 936,723 936,723 936,723 936,723 936,723 936,723 936,723 936,723 936,723 936,723 936,723 936,723 936,723 936,723 936,723 936,723 936,723 980,693 980,653 976,518 80,1" style="stroke:#000080;stroke-width:3;fill:none"/>
<polyline points="936,723 936,723 936,723 936,723 936,723 936,723 936,723 936,723 936,723 936,723 936,723 936,723 936,723 936,723 936,723 936,723 936,723 936,723 936,723 936,723 936,723 936,723 936,723 936,723 936,723 936,723 936,723 936,723 936,723 936,723 936,723 936,723 936,723 936,723 936,723 936,723 936,723 936,723 936,723 936,723 936,723 936,723 936,723 936,723 936,723 980,693 980,653 976,518 80,1" style="stroke:#000080;stroke-width:3;fill:none"/>
<polyline points="936,723 936,723 936,723 936,723 936,723 936,723 936,723 936,723 936,723 936,723 936,723 936,723 936,723 936,723 936,723 936,723 936,723 936,723 936,723 936,723 936,723 936,723 936,723 936,723 936,723 936,723 936,723 936,723 936,723 936,723 936,723 936,723 936,723 936,723 936,723 936,723 936,723 936,723 936,723 936,723 936,723 936,723 936,723 936,723 936,723 980,693 980,653 976,518 80,1" style="stroke:#000080;stroke-width:3;fill:none"/>
<polyline points="936,723 936,723 936,723 936,723 936,723 936,723 936,723 936,723 936,723 936,723 936,723 936,723 936,723 936,723 936,723 936,723 936,723 936,723 936,723 936,723 936,723 936,723 936,723 936,723 936,723 936,723 936,723 936,723 936,723 936,723 936,723 936,723 936,723 936,723 936,723 936,723 936,723 936,723 936,723 936,723 936,723 936,723 936,723 936,723 936,723 980,693 980,653 976,518 80,1" style="stroke:#000080;stroke-width:3;fill:none"/>
<polyline points="936,723 936,723 936,723 936,723 936,723 936,723 936,723 936,723 936,723 936,723 936,723 936,723 936,723 936,723 936,723 936,723 936,723 936,723 936,723 936,723 936,723 936,723 936,723 936,723 936,723 936,723 936,723 936,723 936,723 936,723 936,723 936,723 936,723 936,723 936,723 936,723 936,723 936,723 936,723 936,723 936,723 936,723 936,723 936,723 936,723 980,693 980,653 976,518 80,1" style="stroke:#000080;stroke-width:3;fill:none"/>
<polyline points="936,723 936,723 936,723 936,723 936,723 936,723 936,723 936,723 936,723 936,723 936,723 936,723 936,723 936,723 936,723 936,723 936,723 936,723 936,723 936,723 936,723 936,723 936,723 936,723 936,723 936,723 936,723 936,723 936,723 936,723 936,723 936,723 936,723 936,723 936,723 936,723 936,723 936,723 936,723 936,723 936,723 936,723 936,723 936,723 936,723 980,693 980,653 976,518 80,1" style="stroke:#000080;stroke-width:3;fill:none"/>
<polyline points="936,723 936,723 936,723 936,723 936,723 936,723 936,723 936,723 936,723 936,723 936,723 936,723 936,723 936,723 936,723 936,723 936,723 936,723 936,723 936,723 936,723 936,723 936,723 936,723 936,723 936,723 936,723 936,723 936,723 936,723 936,723 936,723 936,723 936,723 936,723 936,723 936,723 936,723 936,723 936,723 936,723 936,723 936,723 936,723 936,723 980,693 980,653 976,518 80,1" style="stroke:#000080;stroke-width:3;fill:none"/>
<polyline points="936,723 936,723 936,723 936,723 936,723 936,723 936,723 936,723 936,723 936,723 936,723 936,723 936,723 936,723 936,723 936,723 936,723 936,723 936,723 936,723 936,723 936,723 936,723 936,723 936,723 936,723 936,723 936,723 936,723 936,723 936,723 936,723 936,723 936,723 936,723 936,723 936,723 936,723 936,723 936,723 936,723 936,723 936,723 936,723 936,723 980,693 980,653 976,518 80,1" style="stroke:#000080;stroke-width:3;fill:none"/>
<polyline points="936,723 936,723 936,723 936,723 936,723 936,723 936,723 936,723 936,723 936,723 936,723 936,723 936,723 936,723 936,723 936,723 936,723 936,723 936,723 936,723 936,723 936,723 936,723 936,723 936,723 936,723 936,723 936,723 936,723 936,723 936,723 936,723 936,723 936,723 936,723 936,723 936,723 936,723 936,723 936,723 936,723 936,723 936,723 936,723 936,723 980,693 980,653 976,518 80,1" style="stroke:#000080;stroke-width:3;fill:none"/>
<polyline points="936,723 936,723 936,723 936,723 936,723 936,723 936,723 936,723 936,723 936,723 936,723 936,723 936,723 936,723 936,723 936,723 936,723 936,723 936,723 936,723 936,723 936,723 936,723 936,723 936,723 936,723 936,723 936,723 936,723 936,723 936,723 936,723 936,723 936,723 936,723 936,723 936,723 936,723 936,723 936,723 936,723 936,723 936,723 936,723 936,723 980,693 980,653 976,518 80,1" style="stroke:#000080;stroke-width:3;fill:none"/>
<polyline points="936,723 936,723 936,723 936,723 936,723 936,723 936,723 936,723 936,723 936,723 936,723 936,723 936,723 936,723 936,723 936,723 936,723 936,723 936,723 936,723 936,723 936,723 936,723 936,723 936,723 936,723 936,723 936,723 936,723 936,723 936,723 936,723 936,723 936,723 936,723 936,723 936,723 936,723 936,723 936,723 936,723 936,723 936,723 936,723 936,723 980,693 980,653 976,518 80,1" style="stroke:#000080;stroke-width:3;fill:none"/>
<polyline points="936,723 936,723 936,723 936,723 936,723 936,723 936,723 936,723 936,723 936,723 936,723 936,723 936,723 936,723 936,723 936,723 936,723 936,723 936,723 936,723 936,723 936,723 936,723 936,723 936,723 936,723 936,723 936,723 936,723 936,723 936,723 936,723 936,723 936,723 936,723 936,723 936,723 936,723 936,723 936,723 936,723 936,723 936,723 936,723 936,723 980,693 980,653 976,518 80,1" style="stroke:#000080;stroke-width:3;fill:none"/>
<polyline points="936,723 936,723 936,723 936,723 936,723 936,723 936,723 936,723 936,723 936,723 936,723 936,723 936,723 936,723 936,723 936,723 936,723 936,723 936,723 936,723 936,723 936,723 936,723 936,723 936,723 936,723 936,723 936,723 936,723 936,723 936,723 936,723 936,723 936,723 936,723 936,723 936,723 936,723 936,723 936,723 936,723 936,723 936,723 936,723 936,723 980,693 980,653 976,518 80,1" style="stroke:#000080;stroke-width:3;fill:none"/>
<polyline points="936,723 936,723 936,723 936,723 936,723 936,723 936,723 936,723 936,723 936,723 936,723 936,723 936,723 936,723 936,723 936,723 936,723 936,723 936,723 936,723 936,723 936,723 936,723 936,723 936,723 936,723 936,723 936,723 936,723 936,723 936,723 936,723 936,723 936,723 936,723 936,723 936,723 936,723 936,723 936,723 936,723 936,723 936,723 936,723 936,723 980,693 980,653 976,518 80,1" style="stroke:#000080;stroke-width:3;fill:none"/>
<polyline points="936,723 936,723 936,723 936,723 936,723 936,723 936,723 936,723 936,723 936,723 936,723 936,723 936,723 936,723 936,723 936,723 936,723 936,723 936,723 936,723 936,723 936,723 936,723 936,723 936,723 936,723 936,723 936,723 936,723 936,723 936,723 936,723 936,723 936,723 936,723 936,723 936,723 936,723 936,723 936,723 936,723 936,723 936,723 936,723 936,723 980,693 980,653 976,518 80,1" style="stroke:#000080;stroke-width:3;fill:none"/>
<polyline points="936,723 936,723 936,723 936,723 936,723 936,723 936,723 936,723 936,723 936,723 936,723 936,723 936,723 936,723 936,723 936,723 936,723 936,723 936,723 936,723 936,723 936,723 936,723 936,723 936,723 936,723 936,723 936,723 936,723 936,723 936,723 936,723 936,723 936,723 936,723 936,723 936,723 936,723 936,723 936,723 936,723 936,723 936,723 936,723 936,723 980,693 980,653 976,518 80,1" style="stroke:#000080;stroke-width:3;fill:none"/>
<polyline points="936,723 936,723 936,723 936,723 936,723 936,723 936,723 936,723 936,723 936,723 936,723 936,723 936,723 936,723 936,723 936,723 936,723 936,723 936,723 936,723 936,723 936,723 936,723 936,723 936,723 936,723 936,723 936,723 936,723 936,723 936,723 936,723 936,723 936,723 936,723 936,723 936,723 936,723 936,723 936,723 936,723 936,723 936,723 936,723 936,723 980,693 980,653 976,518 80,1" style="stroke:#000080;stroke-width:3;fill:none"/>
<polyline points="936,723 936,723 936,723 936,723 936,723 936,723 936,723 936,723 936,723 936,723 936,723 936,723 936,723 936,723 936,723 936,723 936,723 936,723 936,723 936,723 936,723 936,723 936,723 936,723 936,723 936,723 936,723 936,723 936,723 936,723 936,723 936,723 936,723 936,723 936,723 936,723 936,723 936,723 936,723 936,723 936,723 936,723 936,723 936,723 936,723 980,693 980,653 976,518 80,1" style="stroke:#000080;stroke-width:3;fill:none"/>
<polyline points="936,723 936,723 936,723 936,723 936,723 936,723 936,723 936,723 936,723 936,723 936,723 936,723 936,723 936,723 936,723 936,723 936,723 936,723 936,723 936,723 936,723 936,723 936,723 936,723 936,723 936,723 936,723 936,723 936,723 936,723 936,723 936,723 936,723 936,723 936,723 936,723 936,723 936,723 936,723 936,723 936,723 936,723 936,723 936,723 936,723 980,693 980,653 976,518 80,1" style="stroke:#000080;stroke-width:3;fill:none"/>
<polyline points="936,723 936,723 936,723 936,723 936,723 936,723 936,723 936,723 936,723 936,723 936,723 936,723 936,723 936,723 936,723 936,723 936,723 936,723 936,723 936,723 936,723 936,723 936,723 936,723 936,723 936,723 936,723 936,723 936,723 936,723 936,723 936,723 936,723 936,723 936,723 936,723 936,723 936,723 936,723 936,723 936,723 936,723 936,723 936,723 936,723 980,693 980,653 976,518 80,1" style="stroke:#000080;stroke-width:3;fill:none"/>
<polyline points="936,723 936,723 936,723 936,723 936,723 936,723 936,723 936,723 936,723 936,723 936,723 936,723 936,723 936,723 936,723 936,723 936,723 936,723 936,723 936,723 936,723 936,723 936,723 936,723 936,723 936,723 936,723 936,723 936,723 936,723 936,723 936,723 936,723 936,723 936,723 936,723 936,723 936,723 936,723 936,723 936,723 936,723 936,723 936,723 936,723 980,693 980,653 976,518 80,1" style="stroke:#000080;stroke-width:3;fill:none"/>
<polyline points="936,723 936,723 936,723 936,723 936,723 936,723 936,723 936,723 936,723 936,723 936,723 936,723 936,723 936,723 936,723 936,723 936,723 936,723 936,723 936,723 936,723 936,723 936,723 936,723 936,723 936,723 936,723 936,723 936,723 936,723 936,723 936,723 936,723 936,723 936,723 936,723 936,723 936,723 936,723 936,723 936,723 936,723 936,723 936,723 936,723 980,693 980,653 976,518 80,1" style="stroke:#000080;stroke-width:3;fill:none"/>
<polyline points="936,723 936,723 936,723 936,723 936,723 936,723 936,723 936,723 936,723 936,723 936,723 936,723 936,723 936,723 936,723 936,723 936,723 936,723 936,723 936,723 936,723 936,723 936,723 936,723 936,723 936,723 936,723 936,723 936,723 936,723 936,723 936,723 936,723 936,723 936,723 936,723 936,723 936,723 936,723 936,723 936,723 936,723 936,723 936,723 936,723 980,693 980,653 976,518 80,1" style="stroke:#000080;stroke-width:3;fill:none"/>
<polyline points="936,723 936,723 936,723 936,723 936,723 936,723 936,723 936,723 936,723 936,723 936,723 936,723 936,723 936,723 936,723 936,723 936,723 936,723 936,723 936,723 936,723 936,723 936,723 936,723 936,723 936,723 936,723 936,723 936,723 936,723 936,723 936,723 936,723 936,723 936,723 936,723 936,723 936,723 936,723 936,723 936,723 936,723 936,723 936,723 936,723 980,693 980,653 976,518 80,1" style="stroke:#000080;stroke-width:3;fill:none"/>
<polyline points="936,723 936,723 936,723 936,723 936,723 936,723 936,723 936,723 936,723 936,723 936,723 936,723 936,723 936,723 936,723 936,723 936,723 936,723 936,723 936,723 936,723 936,723 936,723 936,723 936,723 936,723 936,723 936,723 936,723 936,723 936,723 936,723 936,723 936,723 936,723 936,723 936,723 936,723 936,723 936,723 936,723 936,723 936,723 936,723 936,723 980,693 980,653 976,518 80,1" style="stroke:#000080;stroke-width:3;fill:none"/>
<polyline points="936,723 936,723 936,723 936,723 936,723 936,723 936,723 936,723 936,723 936,723 936,723 936,723 936,723 936,723 936,723 936,723 936,723 936,723 936,723 936,723 936,723 936,723 936,723 936,723 936,723 936,723 936,723 936,723 936,723 936,723 936,723 936,723 936,723 936,723 936,723 936,723 936,723 936,723 936,723 936,723 936,723 936,723 936,723 936,723 936,723 980,693 980,653 976,518 80,1" style="stroke:#000080;stroke-width:3;fill:none"/>
<polyline points="936,723 936,723 936,723 936,723 936,723 936,723 936,723 936,723 936,723 936,723 936,723 936,723 936,723 936,723 936,723 936,723 936,723 936,723 936,723 936,723 936,723 936,723 936,723 936,723 936,723 936,723 936,723 936,723 936,723 936,723 936,723 936,723 936,723 936,723 936,723 936,723 936,723 936,723 936,723 936,723 936,723 936,723 936,723 936,723 936,723 980,693 980,653 976,518 80,1" style="stroke:#000080;stroke-width:3;fill:none"/>
<polyline points="936,723 936,723 936,723 936,723 936,723 936,723 936,723 936,723 936,723 936,723 936,723 936,723 936,723 936,723 936,723 936,723 936,723 936,723 936,723 936,723 936,723 936,723 936,723 936,723 936,723 936,723 936,723 936,723 936,723 936,723 936,723 936,723 936,723 936,723 936,723 936,723 936,723 936,723 936,723 936,723 936,723 936,723 936,723 936,723 936,723 980,693 980,653 976,518 80,1" style="stroke:#000080;stroke-width:3;fill:none"/>
<polyline points="936,723 936,723 936,723 936,723 936,723 936,723 936,723 936,723 936,723 936,723 936,723 936,723 936,723 936,723 936,723 936,723 936,723 936,723 936,723 936,723 936,723 936,723 936,723 936,723 936,723 936,723 936,723 936,723 936,723 936,723 936,723 936,723 936,723 936,723 936,723 936,723 936,723 936,723 936,723 936,723 936,723 936,723 936,723 936,723 936,723 980,693 980,653 976,518 80,1" style="stroke:#000080;stroke-width:3;fill:none"/>
<polyline points="936,723 936,723 936,723 936,723 936,723 936,723 936,723 936,723 936,723 936,723 936,723 936,723 936,723 936,723 936,723 936,723 936,723 936,723 936,723 936,723 936,723 936,723 936,723 936,723 936,723 936,723 936,723 936,723 936,723 936,723 936,723 936,723 936,723 936,723 936,723 936,723 936,723 936,723 936,723 936,723 936,723 936,723 936,723 936,723 936,723 980,693 980,653 976,518 80,1" style="stroke:#000080;stroke-width:3;fill:none"/>
<polyline points="936,723 936,723 936,723 936,723 936,723 936,723 936,723 936,723 936,723 936,723 936,723 936,723 936,723 936,723 936,723 936,723 936,723 936,723 936,723 936,723 936,723 936,723 936,723 936,723 936,723 936,723 936,723 936,723 936,723 936,723 936,723 936,723 936,723 936,723 936,723 936,723 936,723 936,723 936,723 936,723 936,723 936,723 936,723 936,723 936,723 980,693 980,653 976,518 80,1" style="stroke:#000080;stroke-width:3;fill:none"/>
<polyline points="936,723 936,723 936,723 936,723 936,723 936,723 936,723 936,723 936,723 936,723 936,723 936,723 936,723 936,723 936,723 936,723 936,723 936,723 936,723 936,723 936,723 936,723 936,723 936,723 936,723 936,723 936,723 936,723 936,723 936,723 936,723 936,723 936,723 936,723 936,723 936,723 936,723 936,723 936,723 936,723 936,723 936,723 936,723 936,723 936,723 980,693 980,653 976,518 80,1" style="stroke:#000080;stroke-width:3;fill:none"/>
<polyline points="936,723 936,723 936,723 936,723 936,723 936,723 936,723 936,723 936,723 936,723 936,723 936,723 936,723 936,723 936,723 936,723 936,723 936,723 936,723 936,723 936,723 936,723 936,723 936,723 936,723 936,723 936,723 936,723 936,723 936,723 936,723 936,723 936,723 936,723 936,723 936,723 936,723 936,723 936,723 936,723 936,723 936,723 936,723 936,723 936,723 980,693 980,653 976,518 80,1" style="stroke:#000080;stroke-width:3;fill:none"/>
<polyline points="936,723 936,723 936,723 936,723 936,723 936,723 936,723 936,723 936,723 936,723 936,723 936,723 936,723 936,723 936,723 936,723 936,723 936,723 936,723 936,723 936,723 936,723 936,723 936,723 936,723 936,723 936,723 936,723 936,723 936,723 936,723 936,723 936,723 936,723 936,723 936,723 936,723 936,723 936,723 936,723 936,723 936,723 936,723 936,723 936,723 980,693 980,653 976,518 80,1" style="stroke:#000080;stroke-width:3;fill:none"/>
<polyline points="936,723 936,723 936,723 936,723 936,723 936,723 936,723 936,723 936,723 936,723 936,723 936,723 936,723 936,723 936,723 936,723 936,723 936,723 936,723 936,723 936,723 936,723 936,723 936,723 936,723 936,723 936,723 936,723 936,723 936,723 936,723 936,723 936,723 936,723 936,723 936,723 936,723 936,723 936,723 936,723 936,723 936,723 936,723 936,723 936,723 980,693 980,653 976,518 80,1" style="stroke:#000080;stroke-width:3;fill:none"/>
<polyline points="936,723 936,723 936,723 936,723 936,723 936,723 936,723 936,723 936,723 936,723 936,723 936,723 936,723 936,723 936,723 936,723 936,723 936,723 936,723 936,723 936,723 936,723 936,723 936,723 936,723 936,723 936,723 936,723 936,723 936,723 936,723 936,723 936,723 936,723 936,723 936,723 936,723 936,723 936,723 936,723 936,723 936,723 936,723 936,723 936,723 980,693 980,653 976,518 80,1" style="stroke:#000080;stroke-width:3;fill:none"/>
<polyline points="936,723 936,723 936,723 936,723 936,723 936,723 936,723 936,723 936,723 936,723 936,723 936,723 936,723 936,723 936,723 936,723 936,723 936,723 936,723 936,723 936,723 936,723 936,723 936,723 936,723 936,723 936,723 936,723 936,723 936,723 936,723 936,723 936,723 936,723 936,723 936,723 936,723 936,723 936,723 936,723 936,723 936,723 936,723 936,723 936,723 980,693 980,653 976,518 80,1" style="stroke:#000080;stroke-width:3;fill:none"/>
<polyline points="936,723 936,723 936,723 936,723 936,723 936,723 936,723 936,723 936,723 936,723 936,723 936,723 936,723 936,723 936,723 936,723 936,723 936,723 936,723 936,723 936,723 936,723 936,723 936,723 936,723 936,723 936,723 936,723 936,723 936,723 936,723 936,723 936,723 936,723 936,723 936,723 936,723 936,723 936,723 936,723 936,723 936,723 936,723 936,723 936,723 980,693 980,653 976,518 80,1" style="stroke:#000080;stroke-width:3;fill:none"/>
<polyline points="936,723 936,723 936,723 936,723 936,723 936,723 936,723 936,723 936,723 936,723 936,723 936,723 936,723 936,723 936,723 936,723 936,723 936,723 936,723 936,723 936,723 936,723 936,723 936,723 936,723 936,723 936,723 936,723 936,723 936,723 936,723 936,723 936,723 936,723 936,723 936,723 936,723 936,723 936,723 936,723 936,723 936,723 936,723 936,723 936,723 980,693 980,653 976,518 80,1" style="stroke:#000080;stroke-width:3;fill:none"/>
<polyline points="936,723 936,723 936,723 936,723 936,723 936,723 936,723 936,723 936,723 936,723 936,723 936,723 936,723 936,723 936,723 936,723 936,723 936,723 936,723 936,723 936,723 936,723 936,723 936,723 936,723 936,723 936,723 936,723 936,723 936,723 936,723 936,723 936,723 936,723 936,723 936,723 936,723 936,723 936,723 936,723 936,723 936,723 936,723 936,723 936,723 980,693 980,653 976,518 80,1" style="stroke:#000080;stroke-width:3;fill:none"/>
<polyline points="936,723 936,723 936,723 936,723 936,723 936,723 936,723 936,723 936,723 936,723 936,723 936,723 936,723 936,723 936,723 936,723 936,723 936,723 936,723 936,723 936,723 936,723 936,723 936,723 936,723 936,723 936,723 936,723 936,723 936,723 936,723 936,723 936,723 936,723 936,723 936,723 936,723 936,723 936,723 936,723 936,723 936,723 936,723 936,723 936,723 980,693 980,653 976,518 80,1" style="stroke:#000080;stroke-width:3;fill:none"/>
<polyline points="936,723 936,723 936,723 936,723 936,723 936,723 936,723 936,723 936,723 936,723 936,723 936,723 936,723 936,723 936,723 936,723 936,723 936,723 936,723 936,723 936,723 936,723 936,723 936,723 936,723 936,723 936,723 936,723 936,723 936,723 936,723 936,723 936,723 936,723 936,723 936,723 936,723 936,723 936,723 936,723 936,723 936,723 936,723 936,723 936,723 980,693 980,653 976,518 80,1" style="stroke:#000080;stroke-width:3;fill:none"/>
<circle cx="936" cy="723" r="10" style="stroke:black;fill:red"/>
<rect x="2" y="-10" width="78" height="1013" style="stroke:black;fill:#B3B3B3;stroke-width:4"/>
<line x1="40" y1="0" x2="40" y2="993" style="stroke:black;stroke-dasharray:25,25;stroke-width:3"/>
</svg>