<?xml version="1.0" encoding="UTF-8"?>
<!-- Generated by SVGo -->
<svg width="842" height="465" xmlns="http://www.w3.org/2000/svg" xmlns:xlink="http://www.w3.org/1999/xlink">
<rect x="0" y="0" width="842" height="465" style="fill:#CCFFCC"/>
<line x1="559" y1="297" x2="599" y2="267" style="stroke:#55aadd;stroke-width:3"/>
<line x1="559" y1="297" x2="569" y2="327" style="stroke:#55aadd;stroke-width:3"/>
<line x1="559" y1="297" x2="599" y2="227" style="stroke:#55aadd;stroke-width:3"/>
<line x1="619" y1="367" x2="629" y2="367" style="stroke:#55aadd;stroke-width:3"/>
<line x1="619" y1="367" x2="569" y2="327" style="stroke:#55aadd;stroke-width:3"/>
<line x1="619" y1="367" x2="679" y2="397" style="stroke:#55aadd;stroke-width:3"/>
<line x1="629" y1="367" x2="679" y2="347" style="stroke:#55aadd;stroke-width:3"/>
<line x1="629" y1="367" x2="679" y2="397" style="stroke:#55aadd;stroke-width:3"/>
<line x1="679" y1="347" x2="649" y2="307" style="stroke:#55aadd;stroke-width:3"/>
<line x1="679" y1="347" x2="639" y2="287" style="stroke:#55aadd;stroke-width:3"/>
<line x1="679" y1="347" x2="649" y2="287" style="stroke:#55aadd;stroke-width:3"/>
<line x1="679" y1="347" x2="689" y2="217" style="stroke:#55aadd;stroke-width:3"/>
<line x1="679" y1="347" x2="599" y2="227" style="stroke:#55aadd;stroke-width:3"/>
<line x1="679" y1="347" x2="679" y2="397" style="stroke:#55aadd;stroke-width:3"/>
<line x1="679" y1="347" x2="765" y2="282" style="stroke:#55aadd;stroke-width:3"/>
<line x1="679" y1="347" x2="834" y2="234" style="stroke:#55aadd;stroke-width:3"/>
<line x1="649" y1="307" x2="599" y2="267" style="stroke:#55aadd;stroke-width:3"/>
<line x1="649" y1="307" x2="639" y2="287" style="stroke:#55aadd;stroke-width:3"/>
<line x1="649" y1="307" x2="649" y2="287" style="stroke:#55aadd;stroke-width:3"/>
<line x1="649" y1="307" x2="689" y2="217" style="stroke:#55aadd;stroke-width:3"/>
<line x1="649" y1="307" x2="599" y2="227" style="stroke:#55aadd;stroke-width:3"/>
<line x1="649" y1="307" x2="765" y2="282" style="stroke:#55aadd;stroke-width:3"/>
<line x1="599" y1="267" x2="569" y2="327" style="stroke:#55aadd;stroke-width:3"/>
<line x1="599" y1="267" x2="639" y2="287" style="stroke:#55aadd;stroke-width:3"/>
<line x1="599" y1="267" x2="599" y2="227" style="stroke:#55aadd;stroke-width:3"/>
<line x1="569" y1="327" x2="599" y2="227" style="stroke:#55aadd;stroke-width:3"/>
<line x1="639" y1="287" x2="649" y2="287" style="stroke:#55aadd;stroke-width:3"/>
<line x1="639" y1="287" x2="599" y2="227" style="stroke:#55aadd;stroke-width:3"/>
<line x1="649" y1="287" x2="689" y2="217" style="stroke:#55aadd;stroke-width:3"/>
<line x1="649" y1="287" x2="765" y2="282" style="stroke:#55aadd;stroke-width:3"/>
<line x1="689" y1="217" x2="599" y2="227" style="stroke:#55aadd;stroke-width:3"/>
<line x1="689" y1="217" x2="679" y2="397" style="stroke:#55aadd;stroke-width:3"/>
<line x1="689" y1="217" x2="679" y2="207" style="stroke:#55aadd;stroke-width:3"/>
<line x1="689" y1="217" x2="765" y2="282" style="stroke:#55aadd;stroke-width:3"/>
<line x1="599" y1="227" x2="679" y2="207" style="stroke:#55aadd;stroke-width:3"/>
<line x1="469" y1="387" x2="539" y2="397" style="stroke:#55aadd;stroke-width:3"/>
<line x1="469" y1="387" x2="579" y2="167" style="stroke:#55aadd;stroke-width:3"/>
<line x1="469" y1="387" x2="400" y2="367" style="stroke:#55aadd;stroke-width:3"/>
<line x1="469" y1="387" x2="410" y2="367" style="stroke:#55aadd;stroke-width:3"/>
<line x1="469" y1="387" x2="450" y2="347" style="stroke:#55aadd;stroke-width:3"/>
<line x1="469" y1="387" x2="440" y2="307" style="stroke:#55aadd;stroke-width:3"/>
<line x1="469" y1="387" x2="470" y2="277" style="stroke:#55aadd;stroke-width:3"/>
<line x1="469" y1="387" x2="510" y2="257" style="stroke:#55aadd;stroke-width:3"/>
<line x1="469" y1="387" x2="399" y2="447" style="stroke:#55aadd;stroke-width:3"/>
<line x1="469" y1="387" x2="445" y2="385" style="stroke:#55aadd;stroke-width:3"/>
<line x1="539" y1="397" x2="679" y2="397" style="stroke:#55aadd;stroke-width:3"/>
<line x1="539" y1="397" x2="399" y2="447" style="stroke:#55aadd;stroke-width:3"/>
<line x1="539" y1="397" x2="445" y2="385" style="stroke:#55aadd;stroke-width:3"/>
<line x1="679" y1="397" x2="399" y2="447" style="stroke:#55aadd;stroke-width:3"/>
<line x1="679" y1="397" x2="765" y2="282" style="stroke:#55aadd;stroke-width:3"/>
<line x1="679" y1="397" x2="834" y2="234" style="stroke:#55aadd;stroke-width:3"/>
<line x1="679" y1="207" x2="579" y2="167" style="stroke:#55aadd;stroke-width:3"/>
<line x1="679" y1="207" x2="765" y2="282" style="stroke:#55aadd;stroke-width:3"/>
<line x1="579" y1="167" x2="450" y2="347" style="stroke:#55aadd;stroke-width:3"/>
<line x1="579" y1="167" x2="510" y2="257" style="stroke:#55aadd;stroke-width:3"/>
<line x1="579" y1="167" x2="445" y2="385" style="stroke:#55aadd;stroke-width:3"/>
<line x1="579" y1="167" x2="506" y2="227" style="stroke:#55aadd;stroke-width:3"/>
<line x1="400" y1="367" x2="410" y2="367" style="stroke:#55aadd;stroke-width:3"/>
<line x1="400" y1="367" x2="360" y2="347" style="stroke:#55aadd;stroke-width:3"/>
<line x1="400" y1="367" x2="445" y2="385" style="stroke:#55aadd;stroke-width:3"/>
<line x1="400" y1="367" x2="318" y2="392" style="stroke:#55aadd;stroke-width:3"/>
<line x1="410" y1="367" x2="450" y2="347" style="stroke:#55aadd;stroke-width:3"/>
<line x1="410" y1="367" x2="445" y2="385" style="stroke:#55aadd;stroke-width:3"/>
<line x1="410" y1="367" x2="318" y2="392" style="stroke:#55aadd;stroke-width:3"/>
<line x1="450" y1="347" x2="440" y2="307" style="stroke:#55aadd;stroke-width:3"/>
<line x1="450" y1="347" x2="470" y2="277" style="stroke:#55aadd;stroke-width:3"/>
<line x1="450" y1="347" x2="510" y2="257" style="stroke:#55aadd;stroke-width:3"/>
<line x1="450" y1="347" x2="445" y2="385" style="stroke:#55aadd;stroke-width:3"/>
<line x1="440" y1="307" x2="410" y2="267" style="stroke:#55aadd;stroke-width:3"/>
<line x1="440" y1="307" x2="380" y2="307" style="stroke:#55aadd;stroke-width:3"/>
<line x1="440" y1="307" x2="470" y2="277" style="stroke:#55aadd;stroke-width:3"/>
<line x1="440" y1="307" x2="510" y2="257" style="stroke:#55aadd;stroke-width:3"/>
<line x1="440" y1="307" x2="420" y2="257" style="stroke:#55aadd;stroke-width:3"/>
<line x1="440" y1="307" x2="371" y2="169" style="stroke:#55aadd;stroke-width:3"/>
<line x1="410" y1="267" x2="380" y2="307" style="stroke:#55aadd;stroke-width:3"/>
<line x1="410" y1="267" x2="470" y2="277" style="stroke:#55aadd;stroke-width:3"/>
<line x1="410" y1="267" x2="440" y2="217" style="stroke:#55aadd;stroke-width:3"/>
<line x1="410" y1="267" x2="420" y2="257" style="stroke:#55aadd;stroke-width:3"/>
<line x1="410" y1="267" x2="432" y2="178" style="stroke:#55aadd;stroke-width:3"/>
<line x1="410" y1="267" x2="371" y2="169" style="stroke:#55aadd;stroke-width:3"/>
<line x1="380" y1="307" x2="360" y2="347" style="stroke:#55aadd;stroke-width:3"/>
<line x1="380" y1="307" x2="440" y2="217" style="stroke:#55aadd;stroke-width:3"/>
<line x1="380" y1="307" x2="432" y2="178" style="stroke:#55aadd;stroke-width:3"/>
<line x1="380" y1="307" x2="371" y2="169" style="stroke:#55aadd;stroke-width:3"/>
<line x1="380" y1="307" x2="318" y2="392" style="stroke:#55aadd;stroke-width:3"/>
<line x1="360" y1="347" x2="432" y2="178" style="stroke:#55aadd;stroke-width:3"/>
<line x1="360" y1="347" x2="371" y2="169" style="stroke:#55aadd;stroke-width:3"/>
<line x1="360" y1="347" x2="318" y2="392" style="stroke:#55aadd;stroke-width:3"/>
<line x1="470" y1="277" x2="510" y2="257" style="stroke:#55aadd;stroke-width:3"/>
<line x1="470" y1="277" x2="420" y2="257" style="stroke:#55aadd;stroke-width:3"/>
<line x1="470" y1="277" x2="445" y2="385" style="stroke:#55aadd;stroke-width:3"/>
<line x1="510" y1="257" x2="470" y2="177" style="stroke:#55aadd;stroke-width:3"/>
<line x1="510" y1="257" x2="445" y2="385" style="stroke:#55aadd;stroke-width:3"/>
<line x1="510" y1="257" x2="506" y2="227" style="stroke:#55aadd;stroke-width:3"/>
<line x1="470" y1="177" x2="440" y2="217" style="stroke:#55aadd;stroke-width:3"/>
<line x1="470" y1="177" x2="432" y2="178" style="stroke:#55aadd;stroke-width:3"/>
<line x1="470" y1="177" x2="525" y2="160" style="stroke:#55aadd;stroke-width:3"/>
<line x1="470" y1="177" x2="506" y2="227" style="stroke:#55aadd;stroke-width:3"/>
<line x1="440" y1="217" x2="420" y2="257" style="stroke:#55aadd;stroke-width:3"/>
<line x1="440" y1="217" x2="432" y2="178" style="stroke:#55aadd;stroke-width:3"/>
<line x1="440" y1="217" x2="371" y2="169" style="stroke:#55aadd;stroke-width:3"/>
<line x1="440" y1="217" x2="318" y2="392" style="stroke:#55aadd;stroke-width:3"/>
<line x1="420" y1="257" x2="432" y2="178" style="stroke:#55aadd;stroke-width:3"/>
<line x1="420" y1="257" x2="371" y2="169" style="stroke:#55aadd;stroke-width:3"/>
<line x1="432" y1="178" x2="525" y2="160" style="stroke:#55aadd;stroke-width:3"/>
<line x1="432" y1="178" x2="371" y2="169" style="stroke:#55aadd;stroke-width:3"/>
<line x1="432" y1="178" x2="318" y2="392" style="stroke:#55aadd;stroke-width:3"/>
<line x1="525" y1="160" x2="466" y2="99" style="stroke:#55aadd;stroke-width:3"/>
<line x1="525" y1="160" x2="531" y2="115" style="stroke:#55aadd;stroke-width:3"/>
<line x1="525" y1="160" x2="506" y2="227" style="stroke:#55aadd;stroke-width:3"/>
<line x1="466" y1="99" x2="371" y2="169" style="stroke:#55aadd;stroke-width:3"/>
<line x1="466" y1="99" x2="841" y2="119" style="stroke:#55aadd;stroke-width:3"/>
<line x1="466" y1="99" x2="693" y2="117" style="stroke:#55aadd;stroke-width:3"/>
<line x1="466" y1="99" x2="531" y2="115" style="stroke:#55aadd;stroke-width:3"/>
<line x1="371" y1="169" x2="318" y2="392" style="stroke:#55aadd;stroke-width:3"/>
<line x1="399" y1="447" x2="445" y2="385" style="stroke:#55aadd;stroke-width:3"/>
<line x1="399" y1="447" x2="337" y2="450" style="stroke:#55aadd;stroke-width:3"/>
<line x1="445" y1="385" x2="318" y2="392" style="stroke:#55aadd;stroke-width:3"/>
<line x1="318" y1="392" x2="337" y2="450" style="stroke:#55aadd;stroke-width:3"/>
<line x1="765" y1="282" x2="834" y2="234" style="stroke:#55aadd;stroke-width:3"/>
<line x1="834" y1="234" x2="841" y2="119" style="stroke:#55aadd;stroke-width:3"/>
<line x1="841" y1="119" x2="693" y2="117" style="stroke:#55aadd;stroke-width:3"/>
<line x1="693" y1="117" x2="531" y2="115" style="stroke:#55aadd;stroke-width:3"/>
<polygon points="619,367 629,367 679,347 649,307 599,267 569,327" style="fill:#6b6b6b;stroke:black"/>
<polygon points="639,287 649,287 689,217 599,227" style="fill:#6b6b6b;stroke:black"/>
<polygon points="469,387 539,397 679,397 559,377 539,287 589,217 679,207 579,167" style="fill:#6b6b6b;stroke:black"/>
<polygon points="400,367 410,367 450,347 440,307 410,267 380,307 360,347" style="fill:#6b6b6b;stroke:black"/>
<polygon points="460,257 470,277 510,257 460,237 470,177 440,217 420,257" style="fill:#6b6b6b;stroke:black"/>
<polygon points="432,178 525,160 466,99 371,169" style="fill:#6b6b6b;stroke:black"/>
<polygon points="399,447 373,412 445,385 318,392 337,450" style="fill:#6b6b6b;stroke:black"/>
<polygon points="765,282 834,234 841,119 693,117 531,115 542,163 506,227 596,135 717,217" style="fill:#6b6b6b;stroke:black"/>
<circle cx="559" cy="297" r="10" style="stroke:black;fill:red"/>
<rect x="2" y="-10" width="78" height="485" style="stroke:black;fill:#B3B3B3;stroke-width:4"/>
<line x1="40" y1="0" x2="40" y2="465" style="stroke:black;stroke-dasharray:25,25;stroke-width:3"/>
</svg>