<?xml version="1.0" encoding="UTF-8"?>
<!-- Generated by SVGo -->
<svg width="1101" height="1245" xmlns="http://www.w3.org/2000/svg" xmlns:xlink="http://www.w3.org/1999/xlink">
<rect x="0" y="0" width="1101" height="1245" style="fill:#CCFFCC"/>
<line x1="936" y1="975" x2="980" y2="945" style="stroke:#55aadd;stroke-width:2"/>
<line x1="201" y1="1206" x2="370" y2="1218" style="stroke:#55aadd;stroke-width:2"/>
<line x1="201" y1="1206" x2="201" y2="1157" style="stroke:#55aadd;stroke-width:2"/>
<line x1="370" y1="1218" x2="364" y2="1159" style="stroke:#55aadd;stroke-width:2"/>
<line x1="370" y1="1218" x2="358" y2="1021" style="stroke:#55aadd;stroke-width:2"/>
<line x1="370" y1="1218" x2="380" y2="1125" style="stroke:#55aadd;stroke-width:2"/>
<line x1="370" y1="1218" x2="403" y2="1211" style="stroke:#55aadd;stroke-width:2"/>
<line x1="370" y1="1218" x2="520" y2="1225" style="stroke:#55aadd;stroke-width:2"/>
<line x1="370" y1="1218" x2="388" y2="1160" style="stroke:#55aadd;stroke-width:2"/>
<line x1="364" y1="1159" x2="236" y2="1135" style="stroke:#55aadd;stroke-width:2"/>
<line x1="364" y1="1159" x2="201" y2="1157" style="stroke:#55aadd;stroke-width:2"/>
<line x1="364" y1="1159" x2="282" y2="1101" style="stroke:#55aadd;stroke-width:2"/>
<line x1="364" y1="1159" x2="334" y2="1075" style="stroke:#55aadd;stroke-width:2"/>
<line x1="364" y1="1159" x2="358" y2="1021" style="stroke:#55aadd;stroke-width:2"/>
<line x1="364" y1="1159" x2="645" y2="1046" style="stroke:#55aadd;stroke-width:2"/>
<line x1="364" y1="1159" x2="380" y2="1125" style="stroke:#55aadd;stroke-width:2"/>
<line x1="364" y1="1159" x2="520" y2="1085" style="stroke:#55aadd;stroke-width:2"/>
<line x1="364" y1="1159" x2="400" y2="1044" style="stroke:#55aadd;stroke-width:2"/>
<line x1="364" y1="1159" x2="403" y2="1211" style="stroke:#55aadd;stroke-width:2"/>
<line x1="364" y1="1159" x2="388" y2="1160" style="stroke:#55aadd;stroke-width:2"/>
<line x1="364" y1="1159" x2="580" y2="1105" style="stroke:#55aadd;stroke-width:2"/>
<line x1="364" y1="1159" x2="456" y2="1142" style="stroke:#55aadd;stroke-width:2"/>
<line x1="236" y1="1135" x2="201" y2="1157" style="stroke:#55aadd;stroke-width:2"/>
<line x1="236" y1="1135" x2="213" y2="1039" style="stroke:#55aadd;stroke-width:2"/>
<line x1="236" y1="1135" x2="282" y2="1101" style="stroke:#55aadd;stroke-width:2"/>
<line x1="236" y1="1135" x2="334" y2="1075" style="stroke:#55aadd;stroke-width:2"/>
<line x1="236" y1="1135" x2="380" y2="1125" style="stroke:#55aadd;stroke-width:2"/>
<line x1="236" y1="1135" x2="400" y2="1044" style="stroke:#55aadd;stroke-width:2"/>
<line x1="236" y1="1135" x2="388" y2="1160" style="stroke:#55aadd;stroke-width:2"/>
<line x1="236" y1="1135" x2="456" y2="1142" style="stroke:#55aadd;stroke-width:2"/>
<line x1="201" y1="1157" x2="213" y2="1039" style="stroke:#55aadd;stroke-width:2"/>
<line x1="201" y1="1157" x2="282" y2="1101" style="stroke:#55aadd;stroke-width:2"/>
<line x1="213" y1="1039" x2="282" y2="1101" style="stroke:#55aadd;stroke-width:2"/>
<line x1="213" y1="1039" x2="236" y2="987" style="stroke:#55aadd;stroke-width:2"/>
<line x1="213" y1="1039" x2="242" y2="847" style="stroke:#55aadd;stroke-width:2"/>
<line x1="213" y1="1039" x2="240" y2="955" style="stroke:#55aadd;stroke-width:2"/>
<line x1="282" y1="1101" x2="334" y2="1075" style="stroke:#55aadd;stroke-width:2"/>
<line x1="282" y1="1101" x2="380" y2="1125" style="stroke:#55aadd;stroke-width:2"/>
<line x1="282" y1="1101" x2="400" y2="1044" style="stroke:#55aadd;stroke-width:2"/>
<line x1="282" y1="1101" x2="520" y2="1225" style="stroke:#55aadd;stroke-width:2"/>
<line x1="282" y1="1101" x2="388" y2="1160" style="stroke:#55aadd;stroke-width:2"/>
<line x1="282" y1="1101" x2="580" y2="1225" style="stroke:#55aadd;stroke-width:2"/>
<line x1="334" y1="1075" x2="358" y2="1021" style="stroke:#55aadd;stroke-width:2"/>
<line x1="334" y1="1075" x2="445" y2="965" style="stroke:#55aadd;stroke-width:2"/>
<line x1="334" y1="1075" x2="466" y2="947" style="stroke:#55aadd;stroke-width:2"/>
<line x1="334" y1="1075" x2="488" y2="948" style="stroke:#55aadd;stroke-width:2"/>
<line x1="334" y1="1075" x2="380" y2="1125" style="stroke:#55aadd;stroke-width:2"/>
<line x1="334" y1="1075" x2="400" y2="1044" style="stroke:#55aadd;stroke-width:2"/>
<line x1="334" y1="1075" x2="403" y2="1211" style="stroke:#55aadd;stroke-width:2"/>
<line x1="334" y1="1075" x2="388" y2="1160" style="stroke:#55aadd;stroke-width:2"/>
<line x1="358" y1="1021" x2="288" y2="1012" style="stroke:#55aadd;stroke-width:2"/>
<line x1="358" y1="1021" x2="356" y2="992" style="stroke:#55aadd;stroke-width:2"/>
<line x1="358" y1="1021" x2="445" y2="965" style="stroke:#55aadd;stroke-width:2"/>
<line x1="358" y1="1021" x2="488" y2="948" style="stroke:#55aadd;stroke-width:2"/>
<line x1="358" y1="1021" x2="380" y2="1125" style="stroke:#55aadd;stroke-width:2"/>
<line x1="358" y1="1021" x2="462" y2="1018" style="stroke:#55aadd;stroke-width:2"/>
<line x1="358" y1="1021" x2="400" y2="1044" style="stroke:#55aadd;stroke-width:2"/>
<line x1="236" y1="987" x2="288" y2="1012" style="stroke:#55aadd;stroke-width:2"/>
<line x1="236" y1="987" x2="242" y2="847" style="stroke:#55aadd;stroke-width:2"/>
<line x1="236" y1="987" x2="240" y2="955" style="stroke:#55aadd;stroke-width:2"/>
<line x1="288" y1="1012" x2="356" y2="992" style="stroke:#55aadd;stroke-width:2"/>
<line x1="288" y1="1012" x2="240" y2="955" style="stroke:#55aadd;stroke-width:2"/>
<line x1="288" y1="1012" x2="462" y2="1018" style="stroke:#55aadd;stroke-width:2"/>
<line x1="356" y1="992" x2="445" y2="965" style="stroke:#55aadd;stroke-width:2"/>
<line x1="356" y1="992" x2="645" y2="1046" style="stroke:#55aadd;stroke-width:2"/>
<line x1="356" y1="992" x2="380" y2="1125" style="stroke:#55aadd;stroke-width:2"/>
<line x1="356" y1="992" x2="462" y2="1018" style="stroke:#55aadd;stroke-width:2"/>
<line x1="356" y1="992" x2="400" y2="1044" style="stroke:#55aadd;stroke-width:2"/>
<line x1="445" y1="965" x2="242" y2="847" style="stroke:#55aadd;stroke-width:2"/>
<line x1="445" y1="965" x2="250" y2="824" style="stroke:#55aadd;stroke-width:2"/>
<line x1="445" y1="965" x2="466" y2="947" style="stroke:#55aadd;stroke-width:2"/>
<line x1="445" y1="965" x2="488" y2="948" style="stroke:#55aadd;stroke-width:2"/>
<line x1="445" y1="965" x2="645" y2="1046" style="stroke:#55aadd;stroke-width:2"/>
<line x1="445" y1="965" x2="520" y2="1085" style="stroke:#55aadd;stroke-width:2"/>
<line x1="445" y1="965" x2="462" y2="1018" style="stroke:#55aadd;stroke-width:2"/>
<line x1="445" y1="965" x2="400" y2="1044" style="stroke:#55aadd;stroke-width:2"/>
<line x1="445" y1="965" x2="580" y2="1105" style="stroke:#55aadd;stroke-width:2"/>
<line x1="445" y1="965" x2="620" y2="1105" style="stroke:#55aadd;stroke-width:2"/>
<line x1="242" y1="847" x2="240" y2="955" style="stroke:#55aadd;stroke-width:2"/>
<line x1="242" y1="847" x2="250" y2="824" style="stroke:#55aadd;stroke-width:2"/>
<line x1="242" y1="847" x2="466" y2="947" style="stroke:#55aadd;stroke-width:2"/>
<line x1="242" y1="847" x2="645" y2="1046" style="stroke:#55aadd;stroke-width:2"/>
<line x1="250" y1="824" x2="466" y2="947" style="stroke:#55aadd;stroke-width:2"/>
<line x1="250" y1="824" x2="464" y2="773" style="stroke:#55aadd;stroke-width:2"/>
<line x1="466" y1="947" x2="464" y2="773" style="stroke:#55aadd;stroke-width:2"/>
<line x1="466" y1="947" x2="488" y2="948" style="stroke:#55aadd;stroke-width:2"/>
<line x1="466" y1="947" x2="645" y2="1046" style="stroke:#55aadd;stroke-width:2"/>
<line x1="466" y1="947" x2="493" y2="770" style="stroke:#55aadd;stroke-width:2"/>
<line x1="466" y1="947" x2="520" y2="1085" style="stroke:#55aadd;stroke-width:2"/>
<line x1="466" y1="947" x2="462" y2="1018" style="stroke:#55aadd;stroke-width:2"/>
<line x1="466" y1="947" x2="400" y2="1044" style="stroke:#55aadd;stroke-width:2"/>
<line x1="466" y1="947" x2="580" y2="1105" style="stroke:#55aadd;stroke-width:2"/>
<line x1="466" y1="947" x2="620" y2="1105" style="stroke:#55aadd;stroke-width:2"/>
<line x1="464" y1="773" x2="488" y2="948" style="stroke:#55aadd;stroke-width:2"/>
<line x1="464" y1="773" x2="493" y2="770" style="stroke:#55aadd;stroke-width:2"/>
<line x1="488" y1="948" x2="645" y2="1046" style="stroke:#55aadd;stroke-width:2"/>
<line x1="488" y1="948" x2="493" y2="770" style="stroke:#55aadd;stroke-width:2"/>
<line x1="488" y1="948" x2="520" y2="1085" style="stroke:#55aadd;stroke-width:2"/>
<line x1="488" y1="948" x2="462" y2="1018" style="stroke:#55aadd;stroke-width:2"/>
<line x1="488" y1="948" x2="400" y2="1044" style="stroke:#55aadd;stroke-width:2"/>
<line x1="488" y1="948" x2="580" y2="1105" style="stroke:#55aadd;stroke-width:2"/>
<line x1="488" y1="948" x2="620" y2="1105" style="stroke:#55aadd;stroke-width:2"/>
<line x1="645" y1="1046" x2="493" y2="770" style="stroke:#55aadd;stroke-width:2"/>
<line x1="645" y1="1046" x2="520" y2="1085" style="stroke:#55aadd;stroke-width:2"/>
<line x1="645" y1="1046" x2="462" y2="1018" style="stroke:#55aadd;stroke-width:2"/>
<line x1="645" y1="1046" x2="388" y2="1160" style="stroke:#55aadd;stroke-width:2"/>
<line x1="645" y1="1046" x2="580" y2="1105" style="stroke:#55aadd;stroke-width:2"/>
<line x1="645" y1="1046" x2="456" y2="1142" style="stroke:#55aadd;stroke-width:2"/>
<line x1="645" y1="1046" x2="740" y2="905" style="stroke:#55aadd;stroke-width:2"/>
<line x1="645" y1="1046" x2="620" y2="1105" style="stroke:#55aadd;stroke-width:2"/>
<line x1="645" y1="1046" x2="660" y2="1005" style="stroke:#55aadd;stroke-width:2"/>
<line x1="645" y1="1046" x2="588" y2="779" style="stroke:#55aadd;stroke-width:2"/>
<line x1="493" y1="770" x2="462" y2="1018" style="stroke:#55aadd;stroke-width:2"/>
<line x1="493" y1="770" x2="660" y2="1005" style="stroke:#55aadd;stroke-width:2"/>
<line x1="493" y1="770" x2="976" y2="770" style="stroke:#55aadd;stroke-width:2"/>
<line x1="493" y1="770" x2="588" y2="779" style="stroke:#55aadd;stroke-width:2"/>
<line x1="493" y1="770" x2="1040" y2="765" style="stroke:#55aadd;stroke-width:2"/>
<line x1="380" y1="1125" x2="520" y2="1085" style="stroke:#55aadd;stroke-width:2"/>
<line x1="380" y1="1125" x2="400" y2="1044" style="stroke:#55aadd;stroke-width:2"/>
<line x1="380" y1="1125" x2="520" y2="1225" style="stroke:#55aadd;stroke-width:2"/>
<line x1="380" y1="1125" x2="388" y2="1160" style="stroke:#55aadd;stroke-width:2"/>
<line x1="380" y1="1125" x2="580" y2="1225" style="stroke:#55aadd;stroke-width:2"/>
<line x1="380" y1="1125" x2="580" y2="1105" style="stroke:#55aadd;stroke-width:2"/>
<line x1="380" y1="1125" x2="456" y2="1142" style="stroke:#55aadd;stroke-width:2"/>
<line x1="520" y1="1085" x2="462" y2="1018" style="stroke:#55aadd;stroke-width:2"/>
<line x1="520" y1="1085" x2="388" y2="1160" style="stroke:#55aadd;stroke-width:2"/>
<line x1="520" y1="1085" x2="580" y2="1105" style="stroke:#55aadd;stroke-width:2"/>
<line x1="520" y1="1085" x2="456" y2="1142" style="stroke:#55aadd;stroke-width:2"/>
<line x1="520" y1="1085" x2="620" y2="1105" style="stroke:#55aadd;stroke-width:2"/>
<line x1="462" y1="1018" x2="400" y2="1044" style="stroke:#55aadd;stroke-width:2"/>
<line x1="462" y1="1018" x2="580" y2="1105" style="stroke:#55aadd;stroke-width:2"/>
<line x1="462" y1="1018" x2="620" y2="1105" style="stroke:#55aadd;stroke-width:2"/>
<line x1="403" y1="1211" x2="520" y2="1225" style="stroke:#55aadd;stroke-width:2"/>
<line x1="403" y1="1211" x2="388" y2="1160" style="stroke:#55aadd;stroke-width:2"/>
<line x1="520" y1="1225" x2="388" y2="1160" style="stroke:#55aadd;stroke-width:2"/>
<line x1="520" y1="1225" x2="580" y2="1225" style="stroke:#55aadd;stroke-width:2"/>
<line x1="520" y1="1225" x2="456" y2="1142" style="stroke:#55aadd;stroke-width:2"/>
<line x1="520" y1="1225" x2="620" y2="1225" style="stroke:#55aadd;stroke-width:2"/>
<line x1="388" y1="1160" x2="580" y2="1225" style="stroke:#55aadd;stroke-width:2"/>
<line x1="388" y1="1160" x2="580" y2="1105" style="stroke:#55aadd;stroke-width:2"/>
<line x1="388" y1="1160" x2="456" y2="1142" style="stroke:#55aadd;stroke-width:2"/>
<line x1="580" y1="1225" x2="580" y2="1105" style="stroke:#55aadd;stroke-width:2"/>
<line x1="580" y1="1225" x2="456" y2="1142" style="stroke:#55aadd;stroke-width:2"/>
<line x1="580" y1="1225" x2="620" y2="1225" style="stroke:#55aadd;stroke-width:2"/>
<line x1="580" y1="1225" x2="620" y2="1105" style="stroke:#55aadd;stroke-width:2"/>
<line x1="580" y1="1105" x2="456" y2="1142" style="stroke:#55aadd;stroke-width:2"/>
<line x1="580" y1="1105" x2="620" y2="1225" style="stroke:#55aadd;stroke-width:2"/>
<line x1="580" y1="1105" x2="620" y2="1105" style="stroke:#55aadd;stroke-width:2"/>
<line x1="620" y1="1225" x2="680" y2="1205" style="stroke:#55aadd;stroke-width:2"/>
<line x1="620" y1="1225" x2="620" y2="1105" style="stroke:#55aadd;stroke-width:2"/>
<line x1="620" y1="1225" x2="1100" y2="1105" style="stroke:#55aadd;stroke-width:2"/>
<line x1="680" y1="1205" x2="820" y2="1145" style="stroke:#55aadd;stroke-width:2"/>
<line x1="680" y1="1205" x2="1100" y2="1105" style="stroke:#55aadd;stroke-width:2"/>
<line x1="820" y1="1145" x2="780" y2="905" style="stroke:#55aadd;stroke-width:2"/>
<line x1="820" y1="1145" x2="860" y2="1105" style="stroke:#55aadd;stroke-width:2"/>
<line x1="820" y1="1145" x2="1100" y2="1105" style="stroke:#55aadd;stroke-width:2"/>
<line x1="820" y1="1145" x2="820" y2="905" style="stroke:#55aadd;stroke-width:2"/>
<line x1="780" y1="905" x2="740" y2="905" style="stroke:#55aadd;stroke-width:2"/>
<line x1="780" y1="905" x2="976" y2="770" style="stroke:#55aadd;stroke-width:2"/>
<line x1="780" y1="905" x2="860" y2="1105" style="stroke:#55aadd;stroke-width:2"/>
<line x1="780" y1="905" x2="1040" y2="765" style="stroke:#55aadd;stroke-width:2"/>
<line x1="780" y1="905" x2="980" y2="905" style="stroke:#55aadd;stroke-width:2"/>
<line x1="780" y1="905" x2="820" y2="905" style="stroke:#55aadd;stroke-width:2"/>
<line x1="740" y1="905" x2="620" y2="1105" style="stroke:#55aadd;stroke-width:2"/>
<line x1="740" y1="905" x2="660" y2="1005" style="stroke:#55aadd;stroke-width:2"/>
<line x1="740" y1="905" x2="976" y2="770" style="stroke:#55aadd;stroke-width:2"/>
<line x1="740" y1="905" x2="1040" y2="765" style="stroke:#55aadd;stroke-width:2"/>
<line x1="740" y1="905" x2="980" y2="905" style="stroke:#55aadd;stroke-width:2"/>
<line x1="740" y1="905" x2="820" y2="905" style="stroke:#55aadd;stroke-width:2"/>
<line x1="660" y1="1005" x2="588" y2="779" style="stroke:#55aadd;stroke-width:2"/>
<line x1="976" y1="770" x2="588" y2="779" style="stroke:#55aadd;stroke-width:2"/>
<line x1="976" y1="770" x2="1040" y2="765" style="stroke:#55aadd;stroke-width:2"/>
<line x1="976" y1="770" x2="980" y2="905" style="stroke:#55aadd;stroke-width:2"/>
<line x1="976" y1="770" x2="820" y2="905" style="stroke:#55aadd;stroke-width:2"/>
<line x1="588" y1="779" x2="1040" y2="765" style="stroke:#55aadd;stroke-width:2"/>
<line x1="860" y1="1105" x2="1100" y2="1105" style="stroke:#55aadd;stroke-width:2"/>
<line x1="860" y1="1105" x2="820" y2="905" style="stroke:#55aadd;stroke-width:2"/>
<line x1="1100" y1="1105" x2="1100" y2="765" style="stroke:#55aadd;stroke-width:2"/>
<line x1="1100" y1="765" x2="1040" y2="765" style="stroke:#55aadd;stroke-width:2"/>
<line x1="1040" y1="765" x2="980" y2="945" style="stroke:#55aadd;stroke-width:2"/>
<line x1="1040" y1="765" x2="980" y2="905" style="stroke:#55aadd;stroke-width:2"/>
<line x1="1040" y1="765" x2="820" y2="905" style="stroke:#55aadd;stroke-width:2"/>
<line x1="980" y1="945" x2="980" y2="905" style="stroke:#55aadd;stroke-width:2"/>
<line x1="980" y1="905" x2="820" y2="905" style="stroke:#55aadd;stroke-width:2"/>
<polygon points="201,1206 370,1218 364,1159 236,1135 201,1157" style="fill:#6b6b6b;stroke:black"/>
<polygon points="213,1039 282,1101 334,1075 358,1021 281,1051 236,987" style="fill:#6b6b6b;stroke:black"/>
<polygon points="288,1012 356,992 445,965 242,847 327,944 240,955" style="fill:#6b6b6b;stroke:black"/>
<polygon points="250,824 466,947 464,773" style="fill:#6b6b6b;stroke:black"/>
<polygon points="488,948 508,948 645,1046 493,770" style="fill:#6b6b6b;stroke:black"/>
<polygon points="380,1125 520,1085 462,1018 400,1044" style="fill:#6b6b6b;stroke:black"/>
<polygon points="403,1211 520,1225 388,1160" style="fill:#6b6b6b;stroke:black"/>
<polygon points="580,1225 580,1105 456,1142" style="fill:#6b6b6b;stroke:black"/>
<polygon points="620,1225 680,1205 680,1145 820,1145 780,905 740,905 740,1105 620,1105" style="fill:#6b6b6b;stroke:black"/>
<polygon points="660,1005 713,843 976,770 588,779" style="fill:#6b6b6b;stroke:black"/>
<polygon points="860,1105 1100,1105 1100,765 1040,765 1040,1045 880,1045 853,944 980,945 980,905 820,905" style="fill:#6b6b6b;stroke:black"/>
<polyline points="936,975 980,945 980,905 820,905 740,905 660,1005 80,1" style="stroke:#000080;stroke-width:3;fill:none"/>
<polyline points="936,975 980,945 980,905 820,905 740,905 660,1005 80,1" style="stroke:#000080;stroke-width:3;fill:none"/>
<polyline points="936,975 980,945 980,905 820,905 740,905 660,1005 80,1" style="stroke:#000080;stroke-width:3;fill:none"/>
<polyline points="936,975 980,945 980,905 820,905 740,905 660,1005 80,1" style="stroke:#000080;stroke-width:3;fill:none"/>
<polyline points="936,975 980,945 980,905 820,905 740,905 660,1005 80,1" style="stroke:#000080;stroke-width:3;fill:none"/>
<circle cx="936" cy="975" r="10" style="stroke:black;fill:red"/>
<rect x="2" y="-10" width="78" height="1265" style="stroke:black;fill:#B3B3B3;stroke-width:4"/>
<line x1="40" y1="0" x2="40" y2="1245" style="stroke:black;stroke-dasharray:25,25;stroke-width:3"/>
</svg>