<?xml version="1.0" encoding="UTF-8"?>
<!-- Generated by SVGo -->
<svg width="881" height="461" xmlns="http://www.w3.org/2000/svg" xmlns:xlink="http://www.w3.org/1999/xlink">
<rect x="0" y="0" width="881" height="461" style="fill:#CCFFCC"/>
<line x1="701" y1="299" x2="480" y2="276" style="stroke:#55aadd;stroke-width:3"/>
<line x1="701" y1="299" x2="730" y2="276" style="stroke:#55aadd;stroke-width:3"/>
<line x1="701" y1="299" x2="678" y2="442" style="stroke:#55aadd;stroke-width:3"/>
<line x1="701" y1="299" x2="684" y2="359" style="stroke:#55aadd;stroke-width:3"/>
<line x1="701" y1="299" x2="629" y2="296" style="stroke:#55aadd;stroke-width:3"/>
<line x1="701" y1="299" x2="490" y2="286" style="stroke:#55aadd;stroke-width:3"/>
<line x1="701" y1="299" x2="880" y2="181" style="stroke:#55aadd;stroke-width:3"/>
<line x1="480" y1="276" x2="730" y2="276" style="stroke:#55aadd;stroke-width:3"/>
<line x1="480" y1="276" x2="480" y2="206" style="stroke:#55aadd;stroke-width:3"/>
<line x1="480" y1="276" x2="629" y2="296" style="stroke:#55aadd;stroke-width:3"/>
<line x1="480" y1="276" x2="527" y2="320" style="stroke:#55aadd;stroke-width:3"/>
<line x1="480" y1="276" x2="460" y2="296" style="stroke:#55aadd;stroke-width:3"/>
<line x1="480" y1="276" x2="490" y2="286" style="stroke:#55aadd;stroke-width:3"/>
<line x1="480" y1="276" x2="460" y2="306" style="stroke:#55aadd;stroke-width:3"/>
<line x1="730" y1="276" x2="730" y2="206" style="stroke:#55aadd;stroke-width:3"/>
<line x1="730" y1="276" x2="678" y2="442" style="stroke:#55aadd;stroke-width:3"/>
<line x1="730" y1="276" x2="684" y2="359" style="stroke:#55aadd;stroke-width:3"/>
<line x1="730" y1="276" x2="629" y2="296" style="stroke:#55aadd;stroke-width:3"/>
<line x1="730" y1="276" x2="510" y2="316" style="stroke:#55aadd;stroke-width:3"/>
<line x1="730" y1="276" x2="490" y2="286" style="stroke:#55aadd;stroke-width:3"/>
<line x1="730" y1="276" x2="880" y2="181" style="stroke:#55aadd;stroke-width:3"/>
<line x1="730" y1="206" x2="480" y2="206" style="stroke:#55aadd;stroke-width:3"/>
<line x1="730" y1="206" x2="590" y2="176" style="stroke:#55aadd;stroke-width:3"/>
<line x1="730" y1="206" x2="620" y2="181" style="stroke:#55aadd;stroke-width:3"/>
<line x1="730" y1="206" x2="880" y2="181" style="stroke:#55aadd;stroke-width:3"/>
<line x1="480" y1="206" x2="460" y2="296" style="stroke:#55aadd;stroke-width:3"/>
<line x1="480" y1="206" x2="590" y2="176" style="stroke:#55aadd;stroke-width:3"/>
<line x1="480" y1="206" x2="460" y2="306" style="stroke:#55aadd;stroke-width:3"/>
<line x1="480" y1="206" x2="620" y2="181" style="stroke:#55aadd;stroke-width:3"/>
<line x1="480" y1="206" x2="880" y2="181" style="stroke:#55aadd;stroke-width:3"/>
<line x1="577" y1="451" x2="678" y2="442" style="stroke:#55aadd;stroke-width:3"/>
<line x1="577" y1="451" x2="527" y2="320" style="stroke:#55aadd;stroke-width:3"/>
<line x1="577" y1="451" x2="380" y2="406" style="stroke:#55aadd;stroke-width:3"/>
<line x1="577" y1="451" x2="440" y2="416" style="stroke:#55aadd;stroke-width:3"/>
<line x1="577" y1="451" x2="460" y2="326" style="stroke:#55aadd;stroke-width:3"/>
<line x1="577" y1="451" x2="280" y2="426" style="stroke:#55aadd;stroke-width:3"/>
<line x1="577" y1="451" x2="360" y2="426" style="stroke:#55aadd;stroke-width:3"/>
<line x1="577" y1="451" x2="170" y2="426" style="stroke:#55aadd;stroke-width:3"/>
<line x1="577" y1="451" x2="480" y2="336" style="stroke:#55aadd;stroke-width:3"/>
<line x1="577" y1="451" x2="510" y2="316" style="stroke:#55aadd;stroke-width:3"/>
<line x1="678" y1="442" x2="684" y2="359" style="stroke:#55aadd;stroke-width:3"/>
<line x1="678" y1="442" x2="880" y2="181" style="stroke:#55aadd;stroke-width:3"/>
<line x1="684" y1="359" x2="629" y2="296" style="stroke:#55aadd;stroke-width:3"/>
<line x1="684" y1="359" x2="880" y2="181" style="stroke:#55aadd;stroke-width:3"/>
<line x1="629" y1="296" x2="527" y2="320" style="stroke:#55aadd;stroke-width:3"/>
<line x1="629" y1="296" x2="510" y2="316" style="stroke:#55aadd;stroke-width:3"/>
<line x1="629" y1="296" x2="490" y2="286" style="stroke:#55aadd;stroke-width:3"/>
<line x1="527" y1="320" x2="440" y2="416" style="stroke:#55aadd;stroke-width:3"/>
<line x1="527" y1="320" x2="480" y2="336" style="stroke:#55aadd;stroke-width:3"/>
<line x1="527" y1="320" x2="510" y2="316" style="stroke:#55aadd;stroke-width:3"/>
<line x1="527" y1="320" x2="490" y2="286" style="stroke:#55aadd;stroke-width:3"/>
<line x1="400" y1="296" x2="460" y2="296" style="stroke:#55aadd;stroke-width:3"/>
<line x1="400" y1="296" x2="400" y2="156" style="stroke:#55aadd;stroke-width:3"/>
<line x1="400" y1="296" x2="380" y2="406" style="stroke:#55aadd;stroke-width:3"/>
<line x1="400" y1="296" x2="460" y2="326" style="stroke:#55aadd;stroke-width:3"/>
<line x1="400" y1="296" x2="400" y2="316" style="stroke:#55aadd;stroke-width:3"/>
<line x1="400" y1="296" x2="360" y2="426" style="stroke:#55aadd;stroke-width:3"/>
<line x1="400" y1="296" x2="360" y2="246" style="stroke:#55aadd;stroke-width:3"/>
<line x1="400" y1="296" x2="380" y2="196" style="stroke:#55aadd;stroke-width:3"/>
<line x1="400" y1="296" x2="380" y2="136" style="stroke:#55aadd;stroke-width:3"/>
<line x1="400" y1="296" x2="480" y2="336" style="stroke:#55aadd;stroke-width:3"/>
<line x1="400" y1="296" x2="460" y2="306" style="stroke:#55aadd;stroke-width:3"/>
<line x1="460" y1="296" x2="460" y2="326" style="stroke:#55aadd;stroke-width:3"/>
<line x1="460" y1="296" x2="400" y2="316" style="stroke:#55aadd;stroke-width:3"/>
<line x1="460" y1="296" x2="490" y2="286" style="stroke:#55aadd;stroke-width:3"/>
<line x1="460" y1="296" x2="460" y2="306" style="stroke:#55aadd;stroke-width:3"/>
<line x1="590" y1="176" x2="590" y2="156" style="stroke:#55aadd;stroke-width:3"/>
<line x1="590" y1="176" x2="620" y2="181" style="stroke:#55aadd;stroke-width:3"/>
<line x1="590" y1="176" x2="620" y2="61" style="stroke:#55aadd;stroke-width:3"/>
<line x1="590" y1="176" x2="600" y2="121" style="stroke:#55aadd;stroke-width:3"/>
<line x1="590" y1="156" x2="400" y2="156" style="stroke:#55aadd;stroke-width:3"/>
<line x1="590" y1="156" x2="380" y2="136" style="stroke:#55aadd;stroke-width:3"/>
<line x1="590" y1="156" x2="620" y2="181" style="stroke:#55aadd;stroke-width:3"/>
<line x1="590" y1="156" x2="620" y2="61" style="stroke:#55aadd;stroke-width:3"/>
<line x1="590" y1="156" x2="460" y2="121" style="stroke:#55aadd;stroke-width:3"/>
<line x1="590" y1="156" x2="600" y2="121" style="stroke:#55aadd;stroke-width:3"/>
<line x1="400" y1="156" x2="380" y2="406" style="stroke:#55aadd;stroke-width:3"/>
<line x1="400" y1="156" x2="400" y2="316" style="stroke:#55aadd;stroke-width:3"/>
<line x1="400" y1="156" x2="360" y2="426" style="stroke:#55aadd;stroke-width:3"/>
<line x1="400" y1="156" x2="360" y2="246" style="stroke:#55aadd;stroke-width:3"/>
<line x1="400" y1="156" x2="380" y2="196" style="stroke:#55aadd;stroke-width:3"/>
<line x1="400" y1="156" x2="380" y2="136" style="stroke:#55aadd;stroke-width:3"/>
<line x1="400" y1="156" x2="460" y2="121" style="stroke:#55aadd;stroke-width:3"/>
<line x1="400" y1="156" x2="600" y2="121" style="stroke:#55aadd;stroke-width:3"/>
<line x1="380" y1="406" x2="440" y2="416" style="stroke:#55aadd;stroke-width:3"/>
<line x1="380" y1="406" x2="400" y2="316" style="stroke:#55aadd;stroke-width:3"/>
<line x1="380" y1="406" x2="360" y2="426" style="stroke:#55aadd;stroke-width:3"/>
<line x1="380" y1="406" x2="360" y2="246" style="stroke:#55aadd;stroke-width:3"/>
<line x1="380" y1="406" x2="380" y2="196" style="stroke:#55aadd;stroke-width:3"/>
<line x1="380" y1="406" x2="380" y2="136" style="stroke:#55aadd;stroke-width:3"/>
<line x1="440" y1="416" x2="460" y2="326" style="stroke:#55aadd;stroke-width:3"/>
<line x1="440" y1="416" x2="360" y2="426" style="stroke:#55aadd;stroke-width:3"/>
<line x1="440" y1="416" x2="480" y2="336" style="stroke:#55aadd;stroke-width:3"/>
<line x1="440" y1="416" x2="510" y2="316" style="stroke:#55aadd;stroke-width:3"/>
<line x1="460" y1="326" x2="400" y2="316" style="stroke:#55aadd;stroke-width:3"/>
<line x1="460" y1="326" x2="480" y2="336" style="stroke:#55aadd;stroke-width:3"/>
<line x1="460" y1="326" x2="460" y2="306" style="stroke:#55aadd;stroke-width:3"/>
<line x1="400" y1="316" x2="360" y2="426" style="stroke:#55aadd;stroke-width:3"/>
<line x1="400" y1="316" x2="360" y2="246" style="stroke:#55aadd;stroke-width:3"/>
<line x1="400" y1="316" x2="380" y2="196" style="stroke:#55aadd;stroke-width:3"/>
<line x1="400" y1="316" x2="380" y2="136" style="stroke:#55aadd;stroke-width:3"/>
<line x1="400" y1="316" x2="490" y2="286" style="stroke:#55aadd;stroke-width:3"/>
<line x1="400" y1="316" x2="460" y2="306" style="stroke:#55aadd;stroke-width:3"/>
<line x1="280" y1="426" x2="360" y2="426" style="stroke:#55aadd;stroke-width:3"/>
<line x1="280" y1="426" x2="280" y2="246" style="stroke:#55aadd;stroke-width:3"/>
<line x1="280" y1="426" x2="250" y2="246" style="stroke:#55aadd;stroke-width:3"/>
<line x1="280" y1="426" x2="170" y2="426" style="stroke:#55aadd;stroke-width:3"/>
<line x1="280" y1="426" x2="250" y2="406" style="stroke:#55aadd;stroke-width:3"/>
<line x1="280" y1="426" x2="260" y2="306" style="stroke:#55aadd;stroke-width:3"/>
<line x1="360" y1="426" x2="360" y2="246" style="stroke:#55aadd;stroke-width:3"/>
<line x1="360" y1="426" x2="380" y2="196" style="stroke:#55aadd;stroke-width:3"/>
<line x1="360" y1="426" x2="170" y2="426" style="stroke:#55aadd;stroke-width:3"/>
<line x1="360" y1="246" x2="280" y2="246" style="stroke:#55aadd;stroke-width:3"/>
<line x1="360" y1="246" x2="250" y2="246" style="stroke:#55aadd;stroke-width:3"/>
<line x1="360" y1="246" x2="380" y2="196" style="stroke:#55aadd;stroke-width:3"/>
<line x1="280" y1="246" x2="250" y2="246" style="stroke:#55aadd;stroke-width:3"/>
<line x1="280" y1="246" x2="380" y2="196" style="stroke:#55aadd;stroke-width:3"/>
<line x1="280" y1="246" x2="250" y2="406" style="stroke:#55aadd;stroke-width:3"/>
<line x1="280" y1="246" x2="260" y2="306" style="stroke:#55aadd;stroke-width:3"/>
<line x1="280" y1="246" x2="200" y2="266" style="stroke:#55aadd;stroke-width:3"/>
<line x1="250" y1="246" x2="380" y2="196" style="stroke:#55aadd;stroke-width:3"/>
<line x1="250" y1="246" x2="230" y2="216" style="stroke:#55aadd;stroke-width:3"/>
<line x1="250" y1="246" x2="260" y2="306" style="stroke:#55aadd;stroke-width:3"/>
<line x1="250" y1="246" x2="200" y2="266" style="stroke:#55aadd;stroke-width:3"/>
<line x1="250" y1="246" x2="170" y2="236" style="stroke:#55aadd;stroke-width:3"/>
<line x1="250" y1="246" x2="220" y2="236" style="stroke:#55aadd;stroke-width:3"/>
<line x1="250" y1="246" x2="210" y2="196" style="stroke:#55aadd;stroke-width:3"/>
<line x1="380" y1="196" x2="380" y2="136" style="stroke:#55aadd;stroke-width:3"/>
<line x1="380" y1="196" x2="200" y2="266" style="stroke:#55aadd;stroke-width:3"/>
<line x1="380" y1="136" x2="260" y2="156" style="stroke:#55aadd;stroke-width:3"/>
<line x1="380" y1="136" x2="460" y2="121" style="stroke:#55aadd;stroke-width:3"/>
<line x1="380" y1="136" x2="600" y2="121" style="stroke:#55aadd;stroke-width:3"/>
<line x1="380" y1="136" x2="220" y2="161" style="stroke:#55aadd;stroke-width:3"/>
<line x1="260" y1="156" x2="230" y2="216" style="stroke:#55aadd;stroke-width:3"/>
<line x1="260" y1="156" x2="220" y2="236" style="stroke:#55aadd;stroke-width:3"/>
<line x1="260" y1="156" x2="210" y2="196" style="stroke:#55aadd;stroke-width:3"/>
<line x1="260" y1="156" x2="460" y2="121" style="stroke:#55aadd;stroke-width:3"/>
<line x1="260" y1="156" x2="220" y2="161" style="stroke:#55aadd;stroke-width:3"/>
<line x1="260" y1="156" x2="220" y2="181" style="stroke:#55aadd;stroke-width:3"/>
<line x1="230" y1="216" x2="260" y2="306" style="stroke:#55aadd;stroke-width:3"/>
<line x1="230" y1="216" x2="220" y2="236" style="stroke:#55aadd;stroke-width:3"/>
<line x1="230" y1="216" x2="210" y2="196" style="stroke:#55aadd;stroke-width:3"/>
<line x1="230" y1="216" x2="220" y2="161" style="stroke:#55aadd;stroke-width:3"/>
<line x1="230" y1="216" x2="220" y2="181" style="stroke:#55aadd;stroke-width:3"/>
<line x1="230" y1="216" x2="200" y2="101" style="stroke:#55aadd;stroke-width:3"/>
<line x1="170" y1="426" x2="250" y2="406" style="stroke:#55aadd;stroke-width:3"/>
<line x1="170" y1="426" x2="150" y2="326" style="stroke:#55aadd;stroke-width:3"/>
<line x1="250" y1="406" x2="260" y2="306" style="stroke:#55aadd;stroke-width:3"/>
<line x1="260" y1="306" x2="200" y2="266" style="stroke:#55aadd;stroke-width:3"/>
<line x1="260" y1="306" x2="170" y2="236" style="stroke:#55aadd;stroke-width:3"/>
<line x1="260" y1="306" x2="220" y2="236" style="stroke:#55aadd;stroke-width:3"/>
<line x1="260" y1="306" x2="210" y2="196" style="stroke:#55aadd;stroke-width:3"/>
<line x1="200" y1="266" x2="150" y2="326" style="stroke:#55aadd;stroke-width:3"/>
<line x1="200" y1="266" x2="170" y2="236" style="stroke:#55aadd;stroke-width:3"/>
<line x1="200" y1="266" x2="220" y2="236" style="stroke:#55aadd;stroke-width:3"/>
<line x1="150" y1="326" x2="170" y2="236" style="stroke:#55aadd;stroke-width:3"/>
<line x1="150" y1="326" x2="220" y2="236" style="stroke:#55aadd;stroke-width:3"/>
<line x1="150" y1="326" x2="170" y2="176" style="stroke:#55aadd;stroke-width:3"/>
<line x1="150" y1="326" x2="160" y2="161" style="stroke:#55aadd;stroke-width:3"/>
<line x1="480" y1="336" x2="510" y2="316" style="stroke:#55aadd;stroke-width:3"/>
<line x1="480" y1="336" x2="460" y2="306" style="stroke:#55aadd;stroke-width:3"/>
<line x1="510" y1="316" x2="490" y2="286" style="stroke:#55aadd;stroke-width:3"/>
<line x1="490" y1="286" x2="460" y2="306" style="stroke:#55aadd;stroke-width:3"/>
<line x1="170" y1="236" x2="220" y2="236" style="stroke:#55aadd;stroke-width:3"/>
<line x1="170" y1="236" x2="170" y2="176" style="stroke:#55aadd;stroke-width:3"/>
<line x1="170" y1="236" x2="160" y2="161" style="stroke:#55aadd;stroke-width:3"/>
<line x1="220" y1="236" x2="210" y2="196" style="stroke:#55aadd;stroke-width:3"/>
<line x1="220" y1="236" x2="220" y2="21" style="stroke:#55aadd;stroke-width:3"/>
<line x1="220" y1="236" x2="220" y2="161" style="stroke:#55aadd;stroke-width:3"/>
<line x1="220" y1="236" x2="220" y2="181" style="stroke:#55aadd;stroke-width:3"/>
<line x1="210" y1="196" x2="170" y2="176" style="stroke:#55aadd;stroke-width:3"/>
<line x1="210" y1="196" x2="160" y2="161" style="stroke:#55aadd;stroke-width:3"/>
<line x1="210" y1="196" x2="220" y2="181" style="stroke:#55aadd;stroke-width:3"/>
<line x1="170" y1="176" x2="160" y2="161" style="stroke:#55aadd;stroke-width:3"/>
<line x1="170" y1="176" x2="220" y2="181" style="stroke:#55aadd;stroke-width:3"/>
<line x1="620" y1="181" x2="880" y2="181" style="stroke:#55aadd;stroke-width:3"/>
<line x1="620" y1="181" x2="620" y2="61" style="stroke:#55aadd;stroke-width:3"/>
<line x1="620" y1="181" x2="600" y2="121" style="stroke:#55aadd;stroke-width:3"/>
<line x1="880" y1="181" x2="880" y2="61" style="stroke:#55aadd;stroke-width:3"/>
<line x1="880" y1="61" x2="620" y2="61" style="stroke:#55aadd;stroke-width:3"/>
<line x1="880" y1="61" x2="800" y2="1" style="stroke:#55aadd;stroke-width:3"/>
<line x1="620" y1="61" x2="600" y2="121" style="stroke:#55aadd;stroke-width:3"/>
<line x1="620" y1="61" x2="800" y2="1" style="stroke:#55aadd;stroke-width:3"/>
<line x1="460" y1="121" x2="600" y2="121" style="stroke:#55aadd;stroke-width:3"/>
<line x1="460" y1="121" x2="220" y2="161" style="stroke:#55aadd;stroke-width:3"/>
<line x1="800" y1="1" x2="500" y2="1" style="stroke:#55aadd;stroke-width:3"/>
<line x1="500" y1="1" x2="220" y2="21" style="stroke:#55aadd;stroke-width:3"/>
<line x1="220" y1="21" x2="220" y2="161" style="stroke:#55aadd;stroke-width:3"/>
<line x1="220" y1="21" x2="160" y2="161" style="stroke:#55aadd;stroke-width:3"/>
<line x1="220" y1="21" x2="220" y2="181" style="stroke:#55aadd;stroke-width:3"/>
<line x1="220" y1="21" x2="200" y2="101" style="stroke:#55aadd;stroke-width:3"/>
<line x1="220" y1="161" x2="220" y2="181" style="stroke:#55aadd;stroke-width:3"/>
<line x1="220" y1="161" x2="200" y2="101" style="stroke:#55aadd;stroke-width:3"/>
<line x1="160" y1="161" x2="220" y2="181" style="stroke:#55aadd;stroke-width:3"/>
<line x1="160" y1="161" x2="200" y2="101" style="stroke:#55aadd;stroke-width:3"/>
<line x1="220" y1="181" x2="200" y2="101" style="stroke:#55aadd;stroke-width:3"/>
<polygon points="480,276 730,276 730,206 480,206" style="fill:#6b6b6b;stroke:black"/>
<polygon points="577,451 678,442 684,359 629,296 527,320" style="fill:#6b6b6b;stroke:black"/>
<polygon points="400,296 460,296 460,176 590,176 590,156 400,156" style="fill:#6b6b6b;stroke:black"/>
<polygon points="380,406 440,416 460,326 400,316" style="fill:#6b6b6b;stroke:black"/>
<polygon points="280,426 360,426 360,246 280,246" style="fill:#6b6b6b;stroke:black"/>
<polygon points="250,246 380,196 380,136 260,156 230,216" style="fill:#6b6b6b;stroke:black"/>
<polygon points="170,426 210,366 250,406 260,306 200,266 150,326" style="fill:#6b6b6b;stroke:black"/>
<polygon points="480,336 510,316 490,286 460,306" style="fill:#6b6b6b;stroke:black"/>
<polygon points="170,236 220,236 210,196 170,176" style="fill:#6b6b6b;stroke:black"/>
<polygon points="620,181 880,181 880,61 620,61" style="fill:#6b6b6b;stroke:black"/>
<polygon points="460,121 600,121 540,81 620,21 800,1 500,1 220,21 220,161 360,81" style="fill:#6b6b6b;stroke:black"/>
<polygon points="160,161 161,161 220,181 200,101" style="fill:#6b6b6b;stroke:black"/>
<polyline points="701,299 701,299 701,299 701,299 701,299 701,299 701,299 701,299 701,299 701,299 701,299 701,299 701,299 701,299 701,299 701,299 701,299 701,299 701,299 701,299 701,299 701,299 701,299 701,299 701,299 701,299 701,299 701,299 701,299 701,299 701,299 701,299 701,299 701,299 701,299 701,299 701,299 701,299 701,299 701,299 701,299 701,299 701,299 701,299 701,299 701,299 701,299 701,299 490,286 460,296 400,296 360,246 250,246 210,196 80,121" style="stroke:#000080;stroke-width:3;fill:none"/>
<polyline points="701,299 701,299 701,299 701,299 701,299 701,299 701,299 701,299 701,299 701,299 701,299 701,299 701,299 701,299 701,299 701,299 701,299 701,299 701,299 701,299 701,299 701,299 701,299 701,299 701,299 701,299 701,299 701,299 701,299 701,299 701,299 701,299 701,299 701,299 701,299 701,299 701,299 701,299 701,299 701,299 701,299 701,299 701,299 701,299 701,299 701,299 701,299 701,299 490,286 460,296 400,296 360,246 250,246 210,196 80,121" style="stroke:#000080;stroke-width:3;fill:none"/>
<polyline points="701,299 701,299 701,299 701,299 701,299 701,299 701,299 701,299 701,299 701,299 701,299 701,299 701,299 701,299 701,299 701,299 701,299 701,299 701,299 701,299 701,299 701,299 701,299 701,299 701,299 701,299 701,299 701,299 701,299 701,299 701,299 701,299 701,299 701,299 701,299 701,299 701,299 701,299 701,299 701,299 701,299 701,299 701,299 701,299 701,299 701,299 701,299 701,299 490,286 460,296 400,296 360,246 250,246 210,196 80,121" style="stroke:#000080;stroke-width:3;fill:none"/>
<polyline points="701,299 701,299 701,299 701,299 701,299 701,299 701,299 701,299 701,299 701,299 701,299 701,299 701,299 701,299 701,299 701,299 701,299 701,299 701,299 701,299 701,299 701,299 701,299 701,299 701,299 701,299 701,299 701,299 701,299 701,299 701,299 701,299 701,299 701,299 701,299 701,299 701,299 701,299 701,299 701,299 701,299 701,299 701,299 701,299 701,299 701,299 701,299 701,299 490,286 460,296 400,296 360,246 250,246 210,196 80,121" style="stroke:#000080;stroke-width:3;fill:none"/>
<polyline points="701,299 701,299 701,299 701,299 701,299 701,299 701,299 701,299 701,299 701,299 701,299 701,299 701,299 701,299 701,299 701,299 701,299 701,299 701,299 701,299 701,299 701,299 701,299 701,299 701,299 701,299 701,299 701,299 701,299 701,299 701,299 701,299 701,299 701,299 701,299 701,299 701,299 701,299 701,299 701,299 701,299 701,299 701,299 701,299 701,299 701,299 701,299 701,299 490,286 460,296 400,296 360,246 250,246 210,196 80,121" style="stroke:#000080;stroke-width:3;fill:none"/>
<polyline points="701,299 701,299 701,299 701,299 701,299 701,299 701,299 701,299 701,299 701,299 701,299 701,299 701,299 701,299 701,299 701,299 701,299 701,299 701,299 701,299 701,299 701,299 701,299 701,299 701,299 701,299 701,299 701,299 701,299 701,299 701,299 701,299 701,299 701,299 701,299 701,299 701,299 701,299 701,299 701,299 701,299 701,299 701,299 701,299 701,299 701,299 701,299 701,299 490,286 460,296 400,296 360,246 250,246 210,196 80,121" style="stroke:#000080;stroke-width:3;fill:none"/>
<polyline points="701,299 701,299 701,299 701,299 701,299 701,299 701,299 701,299 701,299 701,299 701,299 701,299 701,299 701,299 701,299 701,299 701,299 701,299 701,299 701,299 701,299 701,299 701,299 701,299 701,299 701,299 701,299 701,299 701,299 701,299 701,299 701,299 701,299 701,299 701,299 701,299 701,299 701,299 701,299 701,299 701,299 701,299 701,299 701,299 701,299 701,299 701,299 701,299 490,286 460,296 400,296 360,246 250,246 210,196 80,121" style="stroke:#000080;stroke-width:3;fill:none"/>
<polyline points="701,299 701,299 701,299 701,299 701,299 701,299 701,299 701,299 701,299 701,299 701,299 701,299 701,299 701,299 701,299 701,299 701,299 701,299 701,299 701,299 701,299 701,299 701,299 701,299 701,299 701,299 701,299 701,299 701,299 701,299 701,299 701,299 701,299 701,299 701,299 701,299 701,299 701,299 701,299 701,299 701,299 701,299 701,299 701,299 701,299 701,299 701,299 701,299 490,286 460,296 400,296 360,246 250,246 210,196 80,121" style="stroke:#000080;stroke-width:3;fill:none"/>
<polyline points="701,299 701,299 701,299 701,299 701,299 701,299 701,299 701,299 701,299 701,299 701,299 701,299 701,299 701,299 701,299 701,299 701,299 701,299 701,299 701,299 701,299 701,299 701,299 701,299 701,299 701,299 701,299 701,299 701,299 701,299 701,299 701,299 701,299 701,299 701,299 701,299 701,299 701,299 701,299 701,299 701,299 701,299 701,299 701,299 701,299 701,299 701,299 701,299 490,286 460,296 400,296 360,246 250,246 210,196 80,121" style="stroke:#000080;stroke-width:3;fill:none"/>
<polyline points="701,299 701,299 701,299 701,299 701,299 701,299 701,299 701,299 701,299 701,299 701,299 701,299 701,299 701,299 701,299 701,299 701,299 701,299 701,299 701,299 701,299 701,299 701,299 701,299 701,299 701,299 701,299 701,299 701,299 701,299 701,299 701,299 701,299 701,299 701,299 701,299 701,299 701,299 701,299 701,299 701,299 701,299 701,299 701,299 701,299 701,299 701,299 701,299 490,286 460,296 400,296 360,246 250,246 210,196 80,121" style="stroke:#000080;stroke-width:3;fill:none"/>
<polyline points="701,299 701,299 701,299 701,299 701,299 701,299 701,299 701,299 701,299 701,299 701,299 701,299 701,299 701,299 701,299 701,299 701,299 701,299 701,299 701,299 701,299 701,299 701,299 701,299 701,299 701,299 701,299 701,299 701,299 701,299 701,299 701,299 701,299 701,299 701,299 701,299 701,299 701,299 701,299 701,299 701,299 701,299 701,299 701,299 701,299 701,299 701,299 701,299 490,286 460,296 400,296 360,246 250,246 210,196 80,121" style="stroke:#000080;stroke-width:3;fill:none"/>
<polyline points="701,299 701,299 701,299 701,299 701,299 701,299 701,299 701,299 701,299 701,299 701,299 701,299 701,299 701,299 701,299 701,299 701,299 701,299 701,299 701,299 701,299 701,299 701,299 701,299 701,299 701,299 701,299 701,299 701,299 701,299 701,299 701,299 701,299 701,299 701,299 701,299 701,299 701,299 701,299 701,299 701,299 701,299 701,299 701,299 701,299 701,299 701,299 701,299 490,286 460,296 400,296 360,246 250,246 210,196 80,121" style="stroke:#000080;stroke-width:3;fill:none"/>
<polyline points="701,299 701,299 701,299 701,299 701,299 701,299 701,299 701,299 701,299 701,299 701,299 701,299 701,299 701,299 701,299 701,299 701,299 701,299 701,299 701,299 701,299 701,299 701,299 701,299 701,299 701,299 701,299 701,299 701,299 701,299 701,299 701,299 701,299 701,299 701,299 701,299 701,299 701,299 701,299 701,299 701,299 701,299 701,299 701,299 701,299 701,299 701,299 701,299 490,286 460,296 400,296 360,246 250,246 210,196 80,121" style="stroke:#000080;stroke-width:3;fill:none"/>
<polyline points="701,299 701,299 701,299 701,299 701,299 701,299 701,299 701,299 701,299 701,299 701,299 701,299 701,299 701,299 701,299 701,299 701,299 701,299 701,299 701,299 701,299 701,299 701,299 701,299 701,299 701,299 701,299 701,299 701,299 701,299 701,299 701,299 701,299 701,299 701,299 701,299 701,299 701,299 701,299 701,299 701,299 701,299 701,299 701,299 701,299 701,299 701,299 701,299 490,286 460,296 400,296 360,246 250,246 210,196 80,121" style="stroke:#000080;stroke-width:3;fill:none"/>
<polyline points="701,299 701,299 701,299 701,299 701,299 701,299 701,299 701,299 701,299 701,299 701,299 701,299 701,299 701,299 701,299 701,299 701,299 701,299 701,299 701,299 701,299 701,299 701,299 701,299 701,299 701,299 701,299 701,299 701,299 701,299 701,299 701,299 701,299 701,299 701,299 701,299 701,299 701,299 701,299 701,299 701,299 701,299 701,299 701,299 701,299 701,299 701,299 701,299 490,286 460,296 400,296 360,246 250,246 210,196 80,121" style="stroke:#000080;stroke-width:3;fill:none"/>
<polyline points="701,299 701,299 701,299 701,299 701,299 701,299 701,299 701,299 701,299 701,299 701,299 701,299 701,299 701,299 701,299 701,299 701,299 701,299 701,299 701,299 701,299 701,299 701,299 701,299 701,299 701,299 701,299 701,299 701,299 701,299 701,299 701,299 701,299 701,299 701,299 701,299 701,299 701,299 701,299 701,299 701,299 701,299 701,299 701,299 701,299 701,299 701,299 701,299 490,286 460,296 400,296 360,246 250,246 210,196 80,121" style="stroke:#000080;stroke-width:3;fill:none"/>
<polyline points="701,299 701,299 701,299 701,299 701,299 701,299 701,299 701,299 701,299 701,299 701,299 701,299 701,299 701,299 701,299 701,299 701,299 701,299 701,299 701,299 701,299 701,299 701,299 701,299 701,299 701,299 701,299 701,299 701,299 701,299 701,299 701,299 701,299 701,299 701,299 701,299 701,299 701,299 701,299 701,299 701,299 701,299 701,299 701,299 701,299 701,299 701,299 701,299 490,286 460,296 400,296 360,246 250,246 210,196 80,121" style="stroke:#000080;stroke-width:3;fill:none"/>
<polyline points="701,299 701,299 701,299 701,299 701,299 701,299 701,299 701,299 701,299 701,299 701,299 701,299 701,299 701,299 701,299 701,299 701,299 701,299 701,299 701,299 701,299 701,299 701,299 701,299 701,299 701,299 701,299 701,299 701,299 701,299 701,299 701,299 701,299 701,299 701,299 701,299 701,299 701,299 701,299 701,299 701,299 701,299 701,299 701,299 701,299 701,299 701,299 701,299 490,286 460,296 400,296 360,246 250,246 210,196 80,121" style="stroke:#000080;stroke-width:3;fill:none"/>
<polyline points="701,299 701,299 701,299 701,299 701,299 701,299 701,299 701,299 701,299 701,299 701,299 701,299 701,299 701,299 701,299 701,299 701,299 701,299 701,299 701,299 701,299 701,299 701,299 701,299 701,299 701,299 701,299 701,299 701,299 701,299 701,299 701,299 701,299 701,299 701,299 701,299 701,299 701,299 701,299 701,299 701,299 701,299 701,299 701,299 701,299 701,299 701,299 701,299 490,286 460,296 400,296 360,246 250,246 210,196 80,121" style="stroke:#000080;stroke-width:3;fill:none"/>
<polyline points="701,299 701,299 701,299 701,299 701,299 701,299 701,299 701,299 701,299 701,299 701,299 701,299 701,299 701,299 701,299 701,299 701,299 701,299 701,299 701,299 701,299 701,299 701,299 701,299 701,299 701,299 701,299 701,299 701,299 701,299 701,299 701,299 701,299 701,299 701,299 701,299 701,299 701,299 701,299 701,299 701,299 701,299 701,299 701,299 701,299 701,299 701,299 701,299 490,286 460,296 400,296 360,246 250,246 210,196 80,121" style="stroke:#000080;stroke-width:3;fill:none"/>
<polyline points="701,299 701,299 701,299 701,299 701,299 701,299 701,299 701,299 701,299 701,299 701,299 701,299 701,299 701,299 701,299 701,299 701,299 701,299 701,299 701,299 701,299 701,299 701,299 701,299 701,299 701,299 701,299 701,299 701,299 701,299 701,299 701,299 701,299 701,299 701,299 701,299 701,299 701,299 701,299 701,299 701,299 701,299 701,299 701,299 701,299 701,299 701,299 701,299 490,286 460,296 400,296 360,246 250,246 210,196 80,121" style="stroke:#000080;stroke-width:3;fill:none"/>
<polyline points="701,299 701,299 701,299 701,299 701,299 701,299 701,299 701,299 701,299 701,299 701,299 701,299 701,299 701,299 701,299 701,299 701,299 701,299 701,299 701,299 701,299 701,299 701,299 701,299 701,299 701,299 701,299 701,299 701,299 701,299 701,299 701,299 701,299 701,299 701,299 701,299 701,299 701,299 701,299 701,299 701,299 701,299 701,299 701,299 701,299 701,299 701,299 701,299 490,286 460,296 400,296 360,246 250,246 210,196 80,121" style="stroke:#000080;stroke-width:3;fill:none"/>
<polyline points="701,299 701,299 701,299 701,299 701,299 701,299 701,299 701,299 701,299 701,299 701,299 701,299 701,299 701,299 701,299 701,299 701,299 701,299 701,299 701,299 701,299 701,299 701,299 701,299 701,299 701,299 701,299 701,299 701,299 701,299 701,299 701,299 701,299 701,299 701,299 701,299 701,299 701,299 701,299 701,299 701,299 701,299 701,299 701,299 701,299 701,299 701,299 701,299 490,286 460,296 400,296 360,246 250,246 210,196 80,121" style="stroke:#000080;stroke-width:3;fill:none"/>
<polyline points="701,299 701,299 701,299 701,299 701,299 701,299 701,299 701,299 701,299 701,299 701,299 701,299 701,299 701,299 701,299 701,299 701,299 701,299 701,299 701,299 701,299 701,299 701,299 701,299 701,299 701,299 701,299 701,299 701,299 701,299 701,299 701,299 701,299 701,299 701,299 701,299 701,299 701,299 701,299 701,299 701,299 701,299 701,299 701,299 701,299 701,299 701,299 701,299 490,286 460,296 400,296 360,246 250,246 210,196 80,121" style="stroke:#000080;stroke-width:3;fill:none"/>
<polyline points="701,299 701,299 701,299 701,299 701,299 701,299 701,299 701,299 701,299 701,299 701,299 701,299 701,299 701,299 701,299 701,299 701,299 701,299 701,299 701,299 701,299 701,299 701,299 701,299 701,299 701,299 701,299 701,299 701,299 701,299 701,299 701,299 701,299 701,299 701,299 701,299 701,299 701,299 701,299 701,299 701,299 701,299 701,299 701,299 701,299 701,299 701,299 701,299 490,286 460,296 400,296 360,246 250,246 210,196 80,121" style="stroke:#000080;stroke-width:3;fill:none"/>
<polyline points="701,299 701,299 701,299 701,299 701,299 701,299 701,299 701,299 701,299 701,299 701,299 701,299 701,299 701,299 701,299 701,299 701,299 701,299 701,299 701,299 701,299 701,299 701,299 701,299 701,299 701,299 701,299 701,299 701,299 701,299 701,299 701,299 701,299 701,299 701,299 701,299 701,299 701,299 701,299 701,299 701,299 701,299 701,299 701,299 701,299 701,299 701,299 701,299 490,286 460,296 400,296 360,246 250,246 210,196 80,121" style="stroke:#000080;stroke-width:3;fill:none"/>
<polyline points="701,299 701,299 701,299 701,299 701,299 701,299 701,299 701,299 701,299 701,299 701,299 701,299 701,299 701,299 701,299 701,299 701,299 701,299 701,299 701,299 701,299 701,299 701,299 701,299 701,299 701,299 701,299 701,299 701,299 701,299 701,299 701,299 701,299 701,299 701,299 701,299 701,299 701,299 701,299 701,299 701,299 701,299 701,299 701,299 701,299 701,299 701,299 701,299 490,286 460,296 400,296 360,246 250,246 210,196 80,121" style="stroke:#000080;stroke-width:3;fill:none"/>
<polyline points="701,299 701,299 701,299 701,299 701,299 701,299 701,299 701,299 701,299 701,299 701,299 701,299 701,299 701,299 701,299 701,299 701,299 701,299 701,299 701,299 701,299 701,299 701,299 701,299 701,299 701,299 701,299 701,299 701,299 701,299 701,299 701,299 701,299 701,299 701,299 701,299 701,299 701,299 701,299 701,299 701,299 701,299 701,299 701,299 701,299 701,299 701,299 701,299 490,286 460,296 400,296 360,246 250,246 210,196 80,121" style="stroke:#000080;stroke-width:3;fill:none"/>
<polyline points="701,299 701,299 701,299 701,299 701,299 701,299 701,299 701,299 701,299 701,299 701,299 701,299 701,299 701,299 701,299 701,299 701,299 701,299 701,299 701,299 701,299 701,299 701,299 701,299 701,299 701,299 701,299 701,299 701,299 701,299 701,299 701,299 701,299 701,299 701,299 701,299 701,299 701,299 701,299 701,299 701,299 701,299 701,299 701,299 701,299 701,299 701,299 701,299 490,286 460,296 400,296 360,246 250,246 210,196 80,121" style="stroke:#000080;stroke-width:3;fill:none"/>
<polyline points="701,299 701,299 701,299 701,299 701,299 701,299 701,299 701,299 701,299 701,299 701,299 701,299 701,299 701,299 701,299 701,299 701,299 701,299 701,299 701,299 701,299 701,299 701,299 701,299 701,299 701,299 701,299 701,299 701,299 701,299 701,299 701,299 701,299 701,299 701,299 701,299 701,299 701,299 701,299 701,299 701,299 701,299 701,299 701,299 701,299 701,299 701,299 701,299 490,286 460,296 400,296 360,246 250,246 210,196 80,121" style="stroke:#000080;stroke-width:3;fill:none"/>
<polyline points="701,299 701,299 701,299 701,299 701,299 701,299 701,299 701,299 701,299 701,299 701,299 701,299 701,299 701,299 701,299 701,299 701,299 701,299 701,299 701,299 701,299 701,299 701,299 701,299 701,299 701,299 701,299 701,299 701,299 701,299 701,299 701,299 701,299 701,299 701,299 701,299 701,299 701,299 701,299 701,299 701,299 701,299 701,299 701,299 701,299 701,299 701,299 701,299 490,286 460,296 400,296 360,246 250,246 210,196 80,121" style="stroke:#000080;stroke-width:3;fill:none"/>
<polyline points="701,299 701,299 701,299 701,299 701,299 701,299 701,299 701,299 701,299 701,299 701,299 701,299 701,299 701,299 701,299 701,299 701,299 701,299 701,299 701,299 701,299 701,299 701,299 701,299 701,299 701,299 701,299 701,299 701,299 701,299 701,299 701,299 701,299 701,299 701,299 701,299 701,299 701,299 701,299 701,299 701,299 701,299 701,299 701,299 701,299 701,299 701,299 701,299 490,286 460,296 400,296 360,246 250,246 210,196 80,121" style="stroke:#000080;stroke-width:3;fill:none"/>
<polyline points="701,299 701,299 701,299 701,299 701,299 701,299 701,299 701,299 701,299 701,299 701,299 701,299 701,299 701,299 701,299 701,299 701,299 701,299 701,299 701,299 701,299 701,299 701,299 701,299 701,299 701,299 701,299 701,299 701,299 701,299 701,299 701,299 701,299 701,299 701,299 701,299 701,299 701,299 701,299 701,299 701,299 701,299 701,299 701,299 701,299 701,299 701,299 701,299 490,286 460,296 400,296 360,246 250,246 210,196 80,121" style="stroke:#000080;stroke-width:3;fill:none"/>
<polyline points="701,299 701,299 701,299 701,299 701,299 701,299 701,299 701,299 701,299 701,299 701,299 701,299 701,299 701,299 701,299 701,299 701,299 701,299 701,299 701,299 701,299 701,299 701,299 701,299 701,299 701,299 701,299 701,299 701,299 701,299 701,299 701,299 701,299 701,299 701,299 701,299 701,299 701,299 701,299 701,299 701,299 701,299 701,299 701,299 701,299 701,299 701,299 701,299 490,286 460,296 400,296 360,246 250,246 210,196 80,121" style="stroke:#000080;stroke-width:3;fill:none"/>
<polyline points="701,299 701,299 701,299 701,299 701,299 701,299 701,299 701,299 701,299 701,299 701,299 701,299 701,299 701,299 701,299 701,299 701,299 701,299 701,299 701,299 701,299 701,299 701,299 701,299 701,299 701,299 701,299 701,299 701,299 701,299 701,299 701,299 701,299 701,299 701,299 701,299 701,299 701,299 701,299 701,299 701,299 701,299 701,299 701,299 701,299 701,299 701,299 701,299 490,286 460,296 400,296 360,246 250,246 210,196 80,121" style="stroke:#000080;stroke-width:3;fill:none"/>
<polyline points="701,299 701,299 701,299 701,299 701,299 701,299 701,299 701,299 701,299 701,299 701,299 701,299 701,299 701,299 701,299 701,299 701,299 701,299 701,299 701,299 701,299 701,299 701,299 701,299 701,299 701,299 701,299 701,299 701,299 701,299 701,299 701,299 701,299 701,299 701,299 701,299 701,299 701,299 701,299 701,299 701,299 701,299 701,299 701,299 701,299 701,299 701,299 701,299 490,286 460,296 400,296 360,246 250,246 210,196 80,121" style="stroke:#000080;stroke-width:3;fill:none"/>
<polyline points="701,299 701,299 701,299 701,299 701,299 701,299 701,299 701,299 701,299 701,299 701,299 701,299 701,299 701,299 701,299 701,299 701,299 701,299 701,299 701,299 701,299 701,299 701,299 701,299 701,299 701,299 701,299 701,299 701,299 701,299 701,299 701,299 701,299 701,299 701,299 701,299 701,299 701,299 701,299 701,299 701,299 701,299 701,299 701,299 701,299 701,299 701,299 701,299 490,286 460,296 400,296 360,246 250,246 210,196 80,121" style="stroke:#000080;stroke-width:3;fill:none"/>
<polyline points="701,299 701,299 701,299 701,299 701,299 701,299 701,299 701,299 701,299 701,299 701,299 701,299 701,299 701,299 701,299 701,299 701,299 701,299 701,299 701,299 701,299 701,299 701,299 701,299 701,299 701,299 701,299 701,299 701,299 701,299 701,299 701,299 701,299 701,299 701,299 701,299 701,299 701,299 701,299 701,299 701,299 701,299 701,299 701,299 701,299 701,299 701,299 701,299 490,286 460,296 400,296 360,246 250,246 210,196 80,121" style="stroke:#000080;stroke-width:3;fill:none"/>
<polyline points="701,299 701,299 701,299 701,299 701,299 701,299 701,299 701,299 701,299 701,299 701,299 701,299 701,299 701,299 701,299 701,299 701,299 701,299 701,299 701,299 701,299 701,299 701,299 701,299 701,299 701,299 701,299 701,299 701,299 701,299 701,299 701,299 701,299 701,299 701,299 701,299 701,299 701,299 701,299 701,299 701,299 701,299 701,299 701,299 701,299 701,299 701,299 701,299 490,286 460,296 400,296 360,246 250,246 210,196 80,121" style="stroke:#000080;stroke-width:3;fill:none"/>
<polyline points="701,299 701,299 701,299 701,299 701,299 701,299 701,299 701,299 701,299 701,299 701,299 701,299 701,299 701,299 701,299 701,299 701,299 701,299 701,299 701,299 701,299 701,299 701,299 701,299 701,299 701,299 701,299 701,299 701,299 701,299 701,299 701,299 701,299 701,299 701,299 701,299 701,299 701,299 701,299 701,299 701,299 701,299 701,299 701,299 701,299 701,299 701,299 701,299 490,286 460,296 400,296 360,246 250,246 210,196 80,121" style="stroke:#000080;stroke-width:3;fill:none"/>
<polyline points="701,299 701,299 701,299 701,299 701,299 701,299 701,299 701,299 701,299 701,299 701,299 701,299 701,299 701,299 701,299 701,299 701,299 701,299 701,299 701,299 701,299 701,299 701,299 701,299 701,299 701,299 701,299 701,299 701,299 701,299 701,299 701,299 701,299 701,299 701,299 701,299 701,299 701,299 701,299 701,299 701,299 701,299 701,299 701,299 701,299 701,299 701,299 701,299 490,286 460,296 400,296 360,246 250,246 210,196 80,121" style="stroke:#000080;stroke-width:3;fill:none"/>
<polyline points="701,299 701,299 701,299 701,299 701,299 701,299 701,299 701,299 701,299 701,299 701,299 701,299 701,299 701,299 701,299 701,299 701,299 701,299 701,299 701,299 701,299 701,299 701,299 701,299 701,299 701,299 701,299 701,299 701,299 701,299 701,299 701,299 701,299 701,299 701,299 701,299 701,299 701,299 701,299 701,299 701,299 701,299 701,299 701,299 701,299 701,299 701,299 701,299 490,286 460,296 400,296 360,246 250,246 210,196 80,121" style="stroke:#000080;stroke-width:3;fill:none"/>
<polyline points="701,299 701,299 701,299 701,299 701,299 701,299 701,299 701,299 701,299 701,299 701,299 701,299 701,299 701,299 701,299 701,299 701,299 701,299 701,299 701,299 701,299 701,299 701,299 701,299 701,299 701,299 701,299 701,299 701,299 701,299 701,299 701,299 701,299 701,299 701,299 701,299 701,299 701,299 701,299 701,299 701,299 701,299 701,299 701,299 701,299 701,299 701,299 701,299 490,286 460,296 400,296 360,246 250,246 210,196 80,121" style="stroke:#000080;stroke-width:3;fill:none"/>
<polyline points="701,299 701,299 701,299 701,299 701,299 701,299 701,299 701,299 701,299 701,299 701,299 701,299 701,299 701,299 701,299 701,299 701,299 701,299 701,299 701,299 701,299 701,299 701,299 701,299 701,299 701,299 701,299 701,299 701,299 701,299 701,299 701,299 701,299 701,299 701,299 701,299 701,299 701,299 701,299 701,299 701,299 701,299 701,299 701,299 701,299 701,299 701,299 701,299 490,286 460,296 400,296 360,246 250,246 210,196 80,121" style="stroke:#000080;stroke-width:3;fill:none"/>
<polyline points="701,299 701,299 701,299 701,299 701,299 701,299 701,299 701,299 701,299 701,299 701,299 701,299 701,299 701,299 701,299 701,299 701,299 701,299 701,299 701,299 701,299 701,299 701,299 701,299 701,299 701,299 701,299 701,299 701,299 701,299 701,299 701,299 701,299 701,299 701,299 701,299 701,299 701,299 701,299 701,299 701,299 701,299 701,299 701,299 701,299 701,299 701,299 701,299 490,286 460,296 400,296 360,246 250,246 210,196 80,121" style="stroke:#000080;stroke-width:3;fill:none"/>
<polyline points="701,299 701,299 701,299 701,299 701,299 701,299 701,299 701,299 701,299 701,299 701,299 701,299 701,299 701,299 701,299 701,299 701,299 701,299 701,299 701,299 701,299 701,299 701,299 701,299 701,299 701,299 701,299 701,299 701,299 701,299 701,299 701,299 701,299 701,299 701,299 701,299 701,299 701,299 701,299 701,299 701,299 701,299 701,299 701,299 701,299 701,299 701,299 701,299 490,286 460,296 400,296 360,246 250,246 210,196 80,121" style="stroke:#000080;stroke-width:3;fill:none"/>
<polyline points="701,299 701,299 701,299 701,299 701,299 701,299 701,299 701,299 701,299 701,299 701,299 701,299 701,299 701,299 701,299 701,299 701,299 701,299 701,299 701,299 701,299 701,299 701,299 701,299 701,299 701,299 701,299 701,299 701,299 701,299 701,299 701,299 701,299 701,299 701,299 701,299 701,299 701,299 701,299 701,299 701,299 701,299 701,299 701,299 701,299 701,299 701,299 701,299 490,286 460,296 400,296 360,246 250,246 210,196 80,121" style="stroke:#000080;stroke-width:3;fill:none"/>
<polyline points="701,299 701,299 701,299 701,299 701,299 701,299 701,299 701,299 701,299 701,299 701,299 701,299 701,299 701,299 701,299 701,299 701,299 701,299 701,299 701,299 701,299 701,299 701,299 701,299 701,299 701,299 701,299 701,299 701,299 701,299 701,299 701,299 701,299 701,299 701,299 701,299 701,299 701,299 701,299 701,299 701,299 701,299 701,299 701,299 701,299 701,299 701,299 701,299 490,286 460,296 400,296 360,246 250,246 210,196 80,121" style="stroke:#000080;stroke-width:3;fill:none"/>
<polyline points="701,299 701,299 701,299 701,299 701,299 701,299 701,299 701,299 701,299 701,299 701,299 701,299 701,299 701,299 701,299 701,299 701,299 701,299 701,299 701,299 701,299 701,299 701,299 701,299 701,299 701,299 701,299 701,299 701,299 701,299 701,299 701,299 701,299 701,299 701,299 701,299 701,299 701,299 701,299 701,299 701,299 701,299 701,299 701,299 701,299 701,299 701,299 701,299 490,286 460,296 400,296 360,246 250,246 210,196 80,121" style="stroke:#000080;stroke-width:3;fill:none"/>
<polyline points="701,299 701,299 701,299 701,299 701,299 701,299 701,299 701,299 701,299 701,299 701,299 701,299 701,299 701,299 701,299 701,299 701,299 701,299 701,299 701,299 701,299 701,299 701,299 701,299 701,299 701,299 701,299 701,299 701,299 701,299 701,299 701,299 701,299 701,299 701,299 701,299 701,299 701,299 701,299 701,299 701,299 701,299 701,299 701,299 701,299 701,299 701,299 701,299 490,286 460,296 400,296 360,246 250,246 210,196 80,121" style="stroke:#000080;stroke-width:3;fill:none"/>
<polyline points="701,299 701,299 701,299 701,299 701,299 701,299 701,299 701,299 701,299 701,299 701,299 701,299 701,299 701,299 701,299 701,299 701,299 701,299 701,299 701,299 701,299 701,299 701,299 701,299 701,299 701,299 701,299 701,299 701,299 701,299 701,299 701,299 701,299 701,299 701,299 701,299 701,299 701,299 701,299 701,299 701,299 701,299 701,299 701,299 701,299 701,299 701,299 701,299 490,286 460,296 400,296 360,246 250,246 210,196 80,121" style="stroke:#000080;stroke-width:3;fill:none"/>
<polyline points="701,299 701,299 701,299 701,299 701,299 701,299 701,299 701,299 701,299 701,299 701,299 701,299 701,299 701,299 701,299 701,299 701,299 701,299 701,299 701,299 701,299 701,299 701,299 701,299 701,299 701,299 701,299 701,299 701,299 701,299 701,299 701,299 701,299 701,299 701,299 701,299 701,299 701,299 701,299 701,299 701,299 701,299 701,299 701,299 701,299 701,299 701,299 701,299 490,286 460,296 400,296 360,246 250,246 210,196 80,121" style="stroke:#000080;stroke-width:3;fill:none"/>
<polyline points="701,299 701,299 701,299 701,299 701,299 701,299 701,299 701,299 701,299 701,299 701,299 701,299 701,299 701,299 701,299 701,299 701,299 701,299 701,299 701,299 701,299 701,299 701,299 701,299 701,299 701,299 701,299 701,299 701,299 701,299 701,299 701,299 701,299 701,299 701,299 701,299 701,299 701,299 701,299 701,299 701,299 701,299 701,299 701,299 701,299 701,299 701,299 701,299 490,286 460,296 400,296 360,246 250,246 210,196 80,121" style="stroke:#000080;stroke-width:3;fill:none"/>
<circle cx="701" cy="299" r="10" style="stroke:black;fill:red"/>
<rect x="2" y="-10" width="78" height="481" style="stroke:black;fill:#B3B3B3;stroke-width:4"/>
<line x1="40" y1="0" x2="40" y2="461" style="stroke:black;stroke-dasharray:25,25;stroke-width:3"/>
</svg>