<?xml version="1.0" encoding="UTF-8"?>
<!-- Generated by SVGo -->
<svg width="1101" height="993" xmlns="http://www.w3.org/2000/svg" xmlns:xlink="http://www.w3.org/1999/xlink">
<rect x="0" y="0" width="1101" height="993" style="fill:#CCFFCC"/>
<line x1="936" y1="723" x2="980" y2="693" style="stroke:#55aadd;stroke-width:3"/>
<line x1="201" y1="954" x2="370" y2="966" style="stroke:#55aadd;stroke-width:3"/>
<line x1="201" y1="954" x2="201" y2="905" style="stroke:#55aadd;stroke-width:3"/>
<line x1="370" y1="966" x2="364" y2="907" style="stroke:#55aadd;stroke-width:3"/>
<line x1="370" y1="966" x2="358" y2="769" style="stroke:#55aadd;stroke-width:3"/>
<line x1="370" y1="966" x2="380" y2="873" style="stroke:#55aadd;stroke-width:3"/>
<line x1="370" y1="966" x2="403" y2="959" style="stroke:#55aadd;stroke-width:3"/>
<line x1="370" y1="966" x2="520" y2="973" style="stroke:#55aadd;stroke-width:3"/>
<line x1="370" y1="966" x2="388" y2="908" style="stroke:#55aadd;stroke-width:3"/>
<line x1="364" y1="907" x2="236" y2="883" style="stroke:#55aadd;stroke-width:3"/>
<line x1="364" y1="907" x2="201" y2="905" style="stroke:#55aadd;stroke-width:3"/>
<line x1="364" y1="907" x2="282" y2="849" style="stroke:#55aadd;stroke-width:3"/>
<line x1="364" y1="907" x2="334" y2="823" style="stroke:#55aadd;stroke-width:3"/>
<line x1="364" y1="907" x2="358" y2="769" style="stroke:#55aadd;stroke-width:3"/>
<line x1="364" y1="907" x2="645" y2="794" style="stroke:#55aadd;stroke-width:3"/>
<line x1="364" y1="907" x2="380" y2="873" style="stroke:#55aadd;stroke-width:3"/>
<line x1="364" y1="907" x2="520" y2="833" style="stroke:#55aadd;stroke-width:3"/>
<line x1="364" y1="907" x2="400" y2="792" style="stroke:#55aadd;stroke-width:3"/>
<line x1="364" y1="907" x2="403" y2="959" style="stroke:#55aadd;stroke-width:3"/>
<line x1="364" y1="907" x2="388" y2="908" style="stroke:#55aadd;stroke-width:3"/>
<line x1="364" y1="907" x2="580" y2="853" style="stroke:#55aadd;stroke-width:3"/>
<line x1="364" y1="907" x2="456" y2="890" style="stroke:#55aadd;stroke-width:3"/>
<line x1="236" y1="883" x2="201" y2="905" style="stroke:#55aadd;stroke-width:3"/>
<line x1="236" y1="883" x2="213" y2="787" style="stroke:#55aadd;stroke-width:3"/>
<line x1="236" y1="883" x2="282" y2="849" style="stroke:#55aadd;stroke-width:3"/>
<line x1="236" y1="883" x2="334" y2="823" style="stroke:#55aadd;stroke-width:3"/>
<line x1="236" y1="883" x2="380" y2="873" style="stroke:#55aadd;stroke-width:3"/>
<line x1="236" y1="883" x2="400" y2="792" style="stroke:#55aadd;stroke-width:3"/>
<line x1="236" y1="883" x2="388" y2="908" style="stroke:#55aadd;stroke-width:3"/>
<line x1="236" y1="883" x2="456" y2="890" style="stroke:#55aadd;stroke-width:3"/>
<line x1="201" y1="905" x2="213" y2="787" style="stroke:#55aadd;stroke-width:3"/>
<line x1="201" y1="905" x2="282" y2="849" style="stroke:#55aadd;stroke-width:3"/>
<line x1="213" y1="787" x2="282" y2="849" style="stroke:#55aadd;stroke-width:3"/>
<line x1="213" y1="787" x2="236" y2="735" style="stroke:#55aadd;stroke-width:3"/>
<line x1="213" y1="787" x2="242" y2="595" style="stroke:#55aadd;stroke-width:3"/>
<line x1="213" y1="787" x2="240" y2="703" style="stroke:#55aadd;stroke-width:3"/>
<line x1="282" y1="849" x2="334" y2="823" style="stroke:#55aadd;stroke-width:3"/>
<line x1="282" y1="849" x2="380" y2="873" style="stroke:#55aadd;stroke-width:3"/>
<line x1="282" y1="849" x2="400" y2="792" style="stroke:#55aadd;stroke-width:3"/>
<line x1="282" y1="849" x2="520" y2="973" style="stroke:#55aadd;stroke-width:3"/>
<line x1="282" y1="849" x2="388" y2="908" style="stroke:#55aadd;stroke-width:3"/>
<line x1="282" y1="849" x2="580" y2="973" style="stroke:#55aadd;stroke-width:3"/>
<line x1="334" y1="823" x2="358" y2="769" style="stroke:#55aadd;stroke-width:3"/>
<line x1="334" y1="823" x2="445" y2="713" style="stroke:#55aadd;stroke-width:3"/>
<line x1="334" y1="823" x2="466" y2="695" style="stroke:#55aadd;stroke-width:3"/>
<line x1="334" y1="823" x2="488" y2="696" style="stroke:#55aadd;stroke-width:3"/>
<line x1="334" y1="823" x2="380" y2="873" style="stroke:#55aadd;stroke-width:3"/>
<line x1="334" y1="823" x2="400" y2="792" style="stroke:#55aadd;stroke-width:3"/>
<line x1="334" y1="823" x2="403" y2="959" style="stroke:#55aadd;stroke-width:3"/>
<line x1="334" y1="823" x2="388" y2="908" style="stroke:#55aadd;stroke-width:3"/>
<line x1="358" y1="769" x2="288" y2="760" style="stroke:#55aadd;stroke-width:3"/>
<line x1="358" y1="769" x2="356" y2="740" style="stroke:#55aadd;stroke-width:3"/>
<line x1="358" y1="769" x2="445" y2="713" style="stroke:#55aadd;stroke-width:3"/>
<line x1="358" y1="769" x2="488" y2="696" style="stroke:#55aadd;stroke-width:3"/>
<line x1="358" y1="769" x2="380" y2="873" style="stroke:#55aadd;stroke-width:3"/>
<line x1="358" y1="769" x2="462" y2="766" style="stroke:#55aadd;stroke-width:3"/>
<line x1="358" y1="769" x2="400" y2="792" style="stroke:#55aadd;stroke-width:3"/>
<line x1="236" y1="735" x2="288" y2="760" style="stroke:#55aadd;stroke-width:3"/>
<line x1="236" y1="735" x2="242" y2="595" style="stroke:#55aadd;stroke-width:3"/>
<line x1="236" y1="735" x2="240" y2="703" style="stroke:#55aadd;stroke-width:3"/>
<line x1="288" y1="760" x2="356" y2="740" style="stroke:#55aadd;stroke-width:3"/>
<line x1="288" y1="760" x2="240" y2="703" style="stroke:#55aadd;stroke-width:3"/>
<line x1="288" y1="760" x2="462" y2="766" style="stroke:#55aadd;stroke-width:3"/>
<line x1="356" y1="740" x2="445" y2="713" style="stroke:#55aadd;stroke-width:3"/>
<line x1="356" y1="740" x2="645" y2="794" style="stroke:#55aadd;stroke-width:3"/>
<line x1="356" y1="740" x2="380" y2="873" style="stroke:#55aadd;stroke-width:3"/>
<line x1="356" y1="740" x2="462" y2="766" style="stroke:#55aadd;stroke-width:3"/>
<line x1="356" y1="740" x2="400" y2="792" style="stroke:#55aadd;stroke-width:3"/>
<line x1="445" y1="713" x2="242" y2="595" style="stroke:#55aadd;stroke-width:3"/>
<line x1="445" y1="713" x2="250" y2="572" style="stroke:#55aadd;stroke-width:3"/>
<line x1="445" y1="713" x2="466" y2="695" style="stroke:#55aadd;stroke-width:3"/>
<line x1="445" y1="713" x2="488" y2="696" style="stroke:#55aadd;stroke-width:3"/>
<line x1="445" y1="713" x2="645" y2="794" style="stroke:#55aadd;stroke-width:3"/>
<line x1="445" y1="713" x2="520" y2="833" style="stroke:#55aadd;stroke-width:3"/>
<line x1="445" y1="713" x2="462" y2="766" style="stroke:#55aadd;stroke-width:3"/>
<line x1="445" y1="713" x2="400" y2="792" style="stroke:#55aadd;stroke-width:3"/>
<line x1="445" y1="713" x2="580" y2="853" style="stroke:#55aadd;stroke-width:3"/>
<line x1="445" y1="713" x2="620" y2="853" style="stroke:#55aadd;stroke-width:3"/>
<line x1="242" y1="595" x2="240" y2="703" style="stroke:#55aadd;stroke-width:3"/>
<line x1="242" y1="595" x2="250" y2="572" style="stroke:#55aadd;stroke-width:3"/>
<line x1="242" y1="595" x2="466" y2="695" style="stroke:#55aadd;stroke-width:3"/>
<line x1="242" y1="595" x2="645" y2="794" style="stroke:#55aadd;stroke-width:3"/>
<line x1="250" y1="572" x2="466" y2="695" style="stroke:#55aadd;stroke-width:3"/>
<line x1="250" y1="572" x2="464" y2="521" style="stroke:#55aadd;stroke-width:3"/>
<line x1="466" y1="695" x2="464" y2="521" style="stroke:#55aadd;stroke-width:3"/>
<line x1="466" y1="695" x2="488" y2="696" style="stroke:#55aadd;stroke-width:3"/>
<line x1="466" y1="695" x2="645" y2="794" style="stroke:#55aadd;stroke-width:3"/>
<line x1="466" y1="695" x2="493" y2="518" style="stroke:#55aadd;stroke-width:3"/>
<line x1="466" y1="695" x2="520" y2="833" style="stroke:#55aadd;stroke-width:3"/>
<line x1="466" y1="695" x2="462" y2="766" style="stroke:#55aadd;stroke-width:3"/>
<line x1="466" y1="695" x2="400" y2="792" style="stroke:#55aadd;stroke-width:3"/>
<line x1="466" y1="695" x2="580" y2="853" style="stroke:#55aadd;stroke-width:3"/>
<line x1="466" y1="695" x2="620" y2="853" style="stroke:#55aadd;stroke-width:3"/>
<line x1="464" y1="521" x2="488" y2="696" style="stroke:#55aadd;stroke-width:3"/>
<line x1="464" y1="521" x2="493" y2="518" style="stroke:#55aadd;stroke-width:3"/>
<line x1="488" y1="696" x2="645" y2="794" style="stroke:#55aadd;stroke-width:3"/>
<line x1="488" y1="696" x2="493" y2="518" style="stroke:#55aadd;stroke-width:3"/>
<line x1="488" y1="696" x2="520" y2="833" style="stroke:#55aadd;stroke-width:3"/>
<line x1="488" y1="696" x2="462" y2="766" style="stroke:#55aadd;stroke-width:3"/>
<line x1="488" y1="696" x2="400" y2="792" style="stroke:#55aadd;stroke-width:3"/>
<line x1="488" y1="696" x2="580" y2="853" style="stroke:#55aadd;stroke-width:3"/>
<line x1="488" y1="696" x2="620" y2="853" style="stroke:#55aadd;stroke-width:3"/>
<line x1="645" y1="794" x2="493" y2="518" style="stroke:#55aadd;stroke-width:3"/>
<line x1="645" y1="794" x2="520" y2="833" style="stroke:#55aadd;stroke-width:3"/>
<line x1="645" y1="794" x2="462" y2="766" style="stroke:#55aadd;stroke-width:3"/>
<line x1="645" y1="794" x2="388" y2="908" style="stroke:#55aadd;stroke-width:3"/>
<line x1="645" y1="794" x2="580" y2="853" style="stroke:#55aadd;stroke-width:3"/>
<line x1="645" y1="794" x2="456" y2="890" style="stroke:#55aadd;stroke-width:3"/>
<line x1="645" y1="794" x2="740" y2="653" style="stroke:#55aadd;stroke-width:3"/>
<line x1="645" y1="794" x2="620" y2="853" style="stroke:#55aadd;stroke-width:3"/>
<line x1="645" y1="794" x2="660" y2="753" style="stroke:#55aadd;stroke-width:3"/>
<line x1="645" y1="794" x2="588" y2="527" style="stroke:#55aadd;stroke-width:3"/>
<line x1="493" y1="518" x2="462" y2="766" style="stroke:#55aadd;stroke-width:3"/>
<line x1="493" y1="518" x2="660" y2="753" style="stroke:#55aadd;stroke-width:3"/>
<line x1="493" y1="518" x2="976" y2="518" style="stroke:#55aadd;stroke-width:3"/>
<line x1="493" y1="518" x2="588" y2="527" style="stroke:#55aadd;stroke-width:3"/>
<line x1="493" y1="518" x2="1040" y2="513" style="stroke:#55aadd;stroke-width:3"/>
<line x1="380" y1="873" x2="520" y2="833" style="stroke:#55aadd;stroke-width:3"/>
<line x1="380" y1="873" x2="400" y2="792" style="stroke:#55aadd;stroke-width:3"/>
<line x1="380" y1="873" x2="520" y2="973" style="stroke:#55aadd;stroke-width:3"/>
<line x1="380" y1="873" x2="388" y2="908" style="stroke:#55aadd;stroke-width:3"/>
<line x1="380" y1="873" x2="580" y2="973" style="stroke:#55aadd;stroke-width:3"/>
<line x1="380" y1="873" x2="580" y2="853" style="stroke:#55aadd;stroke-width:3"/>
<line x1="380" y1="873" x2="456" y2="890" style="stroke:#55aadd;stroke-width:3"/>
<line x1="520" y1="833" x2="462" y2="766" style="stroke:#55aadd;stroke-width:3"/>
<line x1="520" y1="833" x2="388" y2="908" style="stroke:#55aadd;stroke-width:3"/>
<line x1="520" y1="833" x2="580" y2="853" style="stroke:#55aadd;stroke-width:3"/>
<line x1="520" y1="833" x2="456" y2="890" style="stroke:#55aadd;stroke-width:3"/>
<line x1="520" y1="833" x2="620" y2="853" style="stroke:#55aadd;stroke-width:3"/>
<line x1="462" y1="766" x2="400" y2="792" style="stroke:#55aadd;stroke-width:3"/>
<line x1="462" y1="766" x2="580" y2="853" style="stroke:#55aadd;stroke-width:3"/>
<line x1="462" y1="766" x2="620" y2="853" style="stroke:#55aadd;stroke-width:3"/>
<line x1="403" y1="959" x2="520" y2="973" style="stroke:#55aadd;stroke-width:3"/>
<line x1="403" y1="959" x2="388" y2="908" style="stroke:#55aadd;stroke-width:3"/>
<line x1="520" y1="973" x2="388" y2="908" style="stroke:#55aadd;stroke-width:3"/>
<line x1="520" y1="973" x2="580" y2="973" style="stroke:#55aadd;stroke-width:3"/>
<line x1="520" y1="973" x2="456" y2="890" style="stroke:#55aadd;stroke-width:3"/>
<line x1="520" y1="973" x2="620" y2="973" style="stroke:#55aadd;stroke-width:3"/>
<line x1="388" y1="908" x2="580" y2="973" style="stroke:#55aadd;stroke-width:3"/>
<line x1="388" y1="908" x2="580" y2="853" style="stroke:#55aadd;stroke-width:3"/>
<line x1="388" y1="908" x2="456" y2="890" style="stroke:#55aadd;stroke-width:3"/>
<line x1="580" y1="973" x2="580" y2="853" style="stroke:#55aadd;stroke-width:3"/>
<line x1="580" y1="973" x2="456" y2="890" style="stroke:#55aadd;stroke-width:3"/>
<line x1="580" y1="973" x2="620" y2="973" style="stroke:#55aadd;stroke-width:3"/>
<line x1="580" y1="973" x2="620" y2="853" style="stroke:#55aadd;stroke-width:3"/>
<line x1="580" y1="853" x2="456" y2="890" style="stroke:#55aadd;stroke-width:3"/>
<line x1="580" y1="853" x2="620" y2="973" style="stroke:#55aadd;stroke-width:3"/>
<line x1="580" y1="853" x2="620" y2="853" style="stroke:#55aadd;stroke-width:3"/>
<line x1="620" y1="973" x2="680" y2="953" style="stroke:#55aadd;stroke-width:3"/>
<line x1="620" y1="973" x2="620" y2="853" style="stroke:#55aadd;stroke-width:3"/>
<line x1="620" y1="973" x2="1100" y2="853" style="stroke:#55aadd;stroke-width:3"/>
<line x1="680" y1="953" x2="820" y2="893" style="stroke:#55aadd;stroke-width:3"/>
<line x1="680" y1="953" x2="1100" y2="853" style="stroke:#55aadd;stroke-width:3"/>
<line x1="820" y1="893" x2="780" y2="653" style="stroke:#55aadd;stroke-width:3"/>
<line x1="820" y1="893" x2="860" y2="853" style="stroke:#55aadd;stroke-width:3"/>
<line x1="820" y1="893" x2="1100" y2="853" style="stroke:#55aadd;stroke-width:3"/>
<line x1="820" y1="893" x2="820" y2="653" style="stroke:#55aadd;stroke-width:3"/>
<line x1="780" y1="653" x2="740" y2="653" style="stroke:#55aadd;stroke-width:3"/>
<line x1="780" y1="653" x2="976" y2="518" style="stroke:#55aadd;stroke-width:3"/>
<line x1="780" y1="653" x2="860" y2="853" style="stroke:#55aadd;stroke-width:3"/>
<line x1="780" y1="653" x2="1040" y2="513" style="stroke:#55aadd;stroke-width:3"/>
<line x1="780" y1="653" x2="980" y2="653" style="stroke:#55aadd;stroke-width:3"/>
<line x1="780" y1="653" x2="820" y2="653" style="stroke:#55aadd;stroke-width:3"/>
<line x1="740" y1="653" x2="620" y2="853" style="stroke:#55aadd;stroke-width:3"/>
<line x1="740" y1="653" x2="660" y2="753" style="stroke:#55aadd;stroke-width:3"/>
<line x1="740" y1="653" x2="976" y2="518" style="stroke:#55aadd;stroke-width:3"/>
<line x1="740" y1="653" x2="1040" y2="513" style="stroke:#55aadd;stroke-width:3"/>
<line x1="740" y1="653" x2="980" y2="653" style="stroke:#55aadd;stroke-width:3"/>
<line x1="740" y1="653" x2="820" y2="653" style="stroke:#55aadd;stroke-width:3"/>
<line x1="660" y1="753" x2="588" y2="527" style="stroke:#55aadd;stroke-width:3"/>
<line x1="976" y1="518" x2="588" y2="527" style="stroke:#55aadd;stroke-width:3"/>
<line x1="976" y1="518" x2="1040" y2="513" style="stroke:#55aadd;stroke-width:3"/>
<line x1="976" y1="518" x2="980" y2="653" style="stroke:#55aadd;stroke-width:3"/>
<line x1="976" y1="518" x2="820" y2="653" style="stroke:#55aadd;stroke-width:3"/>
<line x1="588" y1="527" x2="1040" y2="513" style="stroke:#55aadd;stroke-width:3"/>
<line x1="860" y1="853" x2="1100" y2="853" style="stroke:#55aadd;stroke-width:3"/>
<line x1="860" y1="853" x2="820" y2="653" style="stroke:#55aadd;stroke-width:3"/>
<line x1="1100" y1="853" x2="1100" y2="513" style="stroke:#55aadd;stroke-width:3"/>
<line x1="1100" y1="513" x2="1040" y2="513" style="stroke:#55aadd;stroke-width:3"/>
<line x1="1040" y1="513" x2="980" y2="693" style="stroke:#55aadd;stroke-width:3"/>
<line x1="1040" y1="513" x2="980" y2="653" style="stroke:#55aadd;stroke-width:3"/>
<line x1="1040" y1="513" x2="820" y2="653" style="stroke:#55aadd;stroke-width:3"/>
<line x1="980" y1="693" x2="980" y2="653" style="stroke:#55aadd;stroke-width:3"/>
<line x1="980" y1="653" x2="820" y2="653" style="stroke:#55aadd;stroke-width:3"/>
<polygon points="201,954 370,966 364,907 236,883 201,905" style="fill:#6b6b6b;stroke:black"/>
<polygon points="213,787 282,849 334,823 358,769 281,799 236,735" style="fill:#6b6b6b;stroke:black"/>
<polygon points="288,760 356,740 445,713 242,595 327,692 240,703" style="fill:#6b6b6b;stroke:black"/>
<polygon points="250,572 466,695 464,521" style="fill:#6b6b6b;stroke:black"/>
<polygon points="488,696 508,696 645,794 493,518" style="fill:#6b6b6b;stroke:black"/>
<polygon points="380,873 520,833 462,766 400,792" style="fill:#6b6b6b;stroke:black"/>
<polygon points="403,959 520,973 388,908" style="fill:#6b6b6b;stroke:black"/>
<polygon points="580,973 580,853 456,890" style="fill:#6b6b6b;stroke:black"/>
<polygon points="620,973 680,953 680,893 820,893 780,653 740,653 740,853 620,853" style="fill:#6b6b6b;stroke:black"/>
<polygon points="660,753 713,591 976,518 588,527" style="fill:#6b6b6b;stroke:black"/>
<polygon points="860,853 1100,853 1100,513 1040,513 1040,793 880,793 853,692 980,693 980,653 820,653" style="fill:#6b6b6b;stroke:black"/>
<circle cx="936" cy="723" r="10" style="stroke:black;fill:red"/>
<rect x="2" y="-10" width="78" height="1013" style="stroke:black;fill:#B3B3B3;stroke-width:4"/>
<line x1="40" y1="0" x2="40" y2="993" style="stroke:black;stroke-dasharray:25,25;stroke-width:3"/>
</svg>